SplineFontDB: 3.0
FontName: Jost-BoldItalic
FullName: Jost* 700 Bold Italic
FamilyName: Jost*
Weight: Bold
Copyright: This typeface is licensed under the SIL open font license.
UComments: "2018-6-8: Created with FontForge (http://fontforge.org)"
Version: 003.400
ItalicAngle: -10
UnderlinePosition: -100
UnderlineWidth: 50
Ascent: 800
Descent: 200
InvalidEm: 0
LayerCount: 2
Layer: 0 0 "Back" 1
Layer: 1 0 "Fore" 0
XUID: [1021 69 1495626776 760146]
FSType: 0
OS2Version: 0
OS2_WeightWidthSlopeOnly: 0
OS2_UseTypoMetrics: 0
CreationTime: 1528480336
ModificationTime: 1562964798
PfmFamily: 17
TTFWeight: 700
TTFWidth: 5
LineGap: 100
VLineGap: 0
OS2TypoAscent: 825
OS2TypoAOffset: 0
OS2TypoDescent: -225
OS2TypoDOffset: 0
OS2TypoLinegap: 100
OS2WinAscent: 900
OS2WinAOffset: 0
OS2WinDescent: 300
OS2WinDOffset: 0
HheadAscent: 1030
HheadAOffset: 0
HheadDescent: -350
HheadDOffset: 0
OS2CapHeight: 700
OS2XHeight: 460
OS2Vendor: 'PfEd'
Lookup: 1 0 0 "alt a" { "alt a"  } ['ss01' ('DFLT' <'dflt' > 'latn' <'dflt' > ) ]
Lookup: 1 0 0 "Tabular Numbers lookup" { "Tabular Numbers lookup"  } ['tnum' ('DFLT' <'dflt' > 'grek' <'dflt' > 'latn' <'dflt' > ) ]
Lookup: 258 0 0 "Lets get our kern on" { "kernin like nobodys business" [150,0,4] } ['kern' ('DFLT' <'dflt' > 'latn' <'dflt' > ) ]
MarkAttachClasses: 1
DEI: 91125
KernClass2: 16 14 "kernin like nobodys business"
 43 slash seven V W Wcircumflex uni040E uni0423
 175 quotedbl quotesingle asterisk grave dieresis ordfeminine macron degree acute ordmasculine circumflex breve dotaccent ring tilde quoteleft quoteright quotedblleft quotedblright
 25 nine question F P uni0420
 131 A L backslash Agrave Aacute Acircumflex Atilde Adieresis Aring Amacron Abreve Aogonek Lacute uni013B Lslash uni0410 uni0414 uni041C
 58 three eight B C germandbls uni0411 uni0412 uni0417 uni0421
 29 K X Z uni0416 uni041A uni0425

StartChar: H
Encoding: 72 72 0
Width: 763
VWidth: 0
Flags: HMW
LayerCount: 2
Fore
SplineSet
138 293 m 1
 165 445 l 1
 683 445 l 1
 656 293 l 1
 138 293 l 1
618 700 m 1
 788 700 l 1
 667 0 l 1
 500 0 l 1
 618 700 l 1
162 700 m 1
 331 700 l 1
 211 0 l 1
 44 0 l 1
 162 700 l 1
EndSplineSet
EndChar

StartChar: O
Encoding: 79 79 1
Width: 796
VWidth: 0
Flags: HMW
LayerCount: 2
Fore
SplineSet
241 350 m 0
 224 243 272 142 390 141 c 0
 509 140 601 235 621 350 c 0
 638 458 592 558 472 559 c 0
 353 560 260 465 241 350 c 0
64 350 m 0
 95 558 274 716 488 716 c 0
 699 716 828 551 799 350 c 0
 768 141 591 -23 373 -23 c 0
 159 -23 35 149 64 350 c 0
EndSplineSet
EndChar

StartChar: I
Encoding: 73 73 2
Width: 311
VWidth: 0
Flags: HMW
LayerCount: 2
Fore
SplineSet
162 700 m 1
 334 700 l 1
 214 0 l 1
 44 0 l 1
 162 700 l 1
EndSplineSet
EndChar

StartChar: C
Encoding: 67 67 3
Width: 679
VWidth: 0
Flags: HMW
LayerCount: 2
Fore
SplineSet
247 350 m 0
 229 237 295 148 409 146 c 0
 502 145 572 190 630 238 c 1
 603 54 l 1
 541 12 473 -16 382 -16 c 0
 166 -15 34 146 64 350 c 0
 96 561 275 715 496 716 c 0
 584 716 645 690 701 645 c 1
 673 461 l 1
 631 515 573 554 488 554 c 0
 372 554 268 469 247 350 c 0
EndSplineSet
EndChar

StartChar: E
Encoding: 69 69 4
Width: 584
VWidth: 0
Flags: HMW
LayerCount: 2
Fore
SplineSet
153 0 m 1
 177 140 l 1
 523 140 l 1
 498 0 l 1
 153 0 l 1
249 560 m 1
 273 700 l 1
 619 700 l 1
 594 560 l 1
 249 560 l 1
204 299 m 1
 228 436 l 1
 554 436 l 1
 530 299 l 1
 204 299 l 1
162 700 m 1
 325 700 l 1
 204 0 l 1
 44 0 l 1
 162 700 l 1
EndSplineSet
EndChar

StartChar: F
Encoding: 70 70 6
Width: 536
VWidth: 0
Flags: HMW
LayerCount: 2
Fore
SplineSet
248 553 m 1
 273 700 l 1
 580 700 l 1
 554 553 l 1
 248 553 l 1
201 280 m 1
 225 417 l 1
 522 417 l 1
 498 280 l 1
 201 280 l 1
162 700 m 1
 325 700 l 1
 204 0 l 1
 44 0 l 1
 162 700 l 1
EndSplineSet
EndChar

StartChar: G
Encoding: 71 71 7
Width: 790
VWidth: 0
Flags: HMW
LayerCount: 2
Fore
SplineSet
422 253 m 1
 446 383 l 1
 790 383 l 1
 766 168 624 -23 382 -23 c 0
 166 -23 34 145 64 350 c 0
 97 563 281 716 501 716 c 0
 635 716 728 651 786 549 c 1
 628 472 l 1
 603 528 559 567 486 567 c 0
 365 567 261 475 240 350 c 0
 221 231 276 126 400 126 c 0
 499 126 560 180 597 253 c 1
 422 253 l 1
EndSplineSet
EndChar

StartChar: T
Encoding: 84 84 8
Width: 545
VWidth: 0
Flags: HMW
LayerCount: 2
Fore
SplineSet
68 547 m 1
 95 700 l 1
 637 700 l 1
 611 547 l 1
 424 547 l 1
 330 0 l 1
 162 0 l 1
 256 547 l 1
 68 547 l 1
EndSplineSet
EndChar

StartChar: L
Encoding: 76 76 9
Width: 513
VWidth: 0
Flags: HMW
LayerCount: 2
Fore
SplineSet
163 700 m 1
 331 700 l 1
 236 147 l 1
 509 147 l 1
 484 0 l 1
 43 0 l 1
 163 700 l 1
EndSplineSet
EndChar

StartChar: D
Encoding: 68 68 10
Width: 710
VWidth: 0
Flags: HMW
LayerCount: 2
Fore
SplineSet
162 700 m 1
 337 700 l 1
 217 0 l 1
 44 0 l 1
 162 700 l 1
293 0 m 2
 152 0 l 1
 180 152 l 1
 303 152 l 2
 418 152 518 217 540 350 c 0
 560 477 493 548 380 548 c 2
 246 548 l 1
 273 700 l 1
 403 700 l 2
 619 700 745 554 714 350 c 0
 682 140 514 0 293 0 c 2
EndSplineSet
EndChar

StartChar: Q
Encoding: 81 81 11
Width: 838
VWidth: 0
Flags: HMW
LayerCount: 2
Fore
SplineSet
241 350 m 0
 223 233 283 129 404 128 c 0
 523 127 616 216 636 331 c 0
 655 442 605 558 475 559 c 0
 356 560 261 465 241 350 c 0
64 350 m 0
 95 558 278 716 492 716 c 0
 703 716 828 550 799 350 c 0
 768 142 594 -23 376 -23 c 0
 162 -23 35 149 64 350 c 0
373 300 m 1
 538 300 l 1
 813 -13 l 1
 641 -13 l 1
 373 300 l 1
EndSplineSet
EndChar

StartChar: A
Encoding: 65 65 12
Width: 713
VWidth: 0
Flags: HMW
LayerCount: 2
Fore
SplineSet
174 134 m 1
 207 263 l 1
 547 263 l 1
 535 134 l 1
 174 134 l 1
405 441 m 1
 274 216 l 1
 276 178 l 1
 162 0 l 1
 -32 0 l 1
 456 747 l 1
 688 0 l 1
 502 0 l 1
 452 172 l 1
 463 215 l 1
 405 441 l 1
EndSplineSet
EndChar

StartChar: R
Encoding: 82 82 13
Width: 628
VWidth: 0
Flags: HMW
LayerCount: 2
Fore
SplineSet
270 316 m 1
 440 316 l 1
 597 0 l 1
 406 0 l 1
 270 316 l 1
162 700 m 1
 331 700 l 1
 211 0 l 1
 44 0 l 1
 162 700 l 1
242 555 m 1
 267 700 l 1
 408 700 l 2
 565 700 658 609 640 471 c 0
 621 331 501 242 339 242 c 2
 188 242 l 1
 211 374 l 1
 340 374 l 2
 403 374 454 408 465 465 c 0
 475 520 440 555 380 555 c 2
 242 555 l 1
EndSplineSet
EndChar

StartChar: V
Encoding: 86 86 14
Width: 713
VWidth: 0
Flags: HMW
LayerCount: 2
Fore
SplineSet
382 287 m 1
 610 700 l 1
 809 700 l 1
 334 -47 l 1
 90 700 l 1
 282 700 l 1
 382 287 l 1
EndSplineSet
EndChar

StartChar: M
Encoding: 77 77 15
Width: 865
VWidth: 0
Flags: HMW
LayerCount: 2
Fore
SplineSet
284 354 m 1
 182 0 l 1
 3 0 l 1
 240 735 l 1
 456 311 l 1
 824 740 l 1
 807 0 l 1
 630 0 l 1
 650 348 l 1
 419 64 l 1
 284 354 l 1
EndSplineSet
EndChar

StartChar: W
Encoding: 87 87 16
Width: 1034
VWidth: 0
Flags: HMW
LayerCount: 2
Fore
SplineSet
734 289 m 1
 923 700 l 1
 1125 700 l 1
 714 -43 l 1
 560 376 l 1
 275 -44 l 1
 94 700 l 1
 291 700 l 1
 352 291 l 1
 613 737 l 1
 734 289 l 1
EndSplineSet
EndChar

StartChar: N
Encoding: 78 78 17
Width: 769
VWidth: 0
Flags: HMW
LayerCount: 2
Fore
SplineSet
631 700 m 1
 793 700 l 1
 668 -34 l 1
 273 393 l 1
 205 0 l 1
 43 0 l 1
 168 734 l 1
 563 307 l 1
 631 700 l 1
EndSplineSet
EndChar

StartChar: a
Encoding: 97 97 18
Width: 598
VWidth: 0
Flags: HMW
LayerCount: 2
Fore
SplineSet
447 460 m 1
 597 460 l 1
 518 0 l 1
 369 0 l 1
 447 460 l 1
42 230 m 0
 60 367 168 471 291 470 c 0
 415 469 465 355 449 230 c 0
 431 99 342 -10 219 -10 c 0
 96 -10 25 98 42 230 c 0
199 230 m 0
 190 170 220 114 281 113 c 0
 338 112 395 165 406 230 c 0
 415 290 383 345 328 347 c 0
 266 349 210 294 199 230 c 0
EndSplineSet
Substitution2: "alt a" a.alt
EndChar

StartChar: X
Encoding: 88 88 19
Width: 666
VWidth: 0
Flags: HMW
LayerCount: 2
Fore
SplineSet
533 700 m 1
 744 700 l 1
 474 355 l 1
 646 0 l 1
 443 0 l 1
 356 229 l 1
 194 0 l 1
 -17 0 l 1
 276 362 l 1
 119 700 l 1
 322 700 l 1
 395 500 l 1
 533 700 l 1
EndSplineSet
EndChar

StartChar: K
Encoding: 75 75 20
Width: 680
VWidth: 0
Flags: HMW
LayerCount: 2
Fore
SplineSet
162 700 m 1
 338 700 l 1
 217 0 l 1
 44 0 l 1
 162 700 l 1
561 700 m 1
 765 700 l 1
 428 368 l 1
 653 0 l 1
 456 0 l 1
 231 371 l 1
 561 700 l 1
EndSplineSet
EndChar

StartChar: Y
Encoding: 89 89 21
Width: 641
VWidth: 0
Flags: HMW
LayerCount: 2
Fore
SplineSet
542 700 m 1
 739 700 l 1
 428 281 l 1
 380 0 l 1
 209 0 l 1
 259 288 l 1
 92 700 l 1
 281 700 l 1
 367 441 l 1
 542 700 l 1
EndSplineSet
EndChar

StartChar: B
Encoding: 66 66 22
Width: 645
VWidth: 0
Flags: HMW
LayerCount: 2
Fore
SplineSet
226 348 m 1
 239 422 l 1
 345 422 l 2
 397 422 442 449 450 497 c 0
 458 543 427 568 378 568 c 2
 309 568 l 1
 233 132 l 1
 311 132 l 2
 372 133 432 157 442 221 c 0
 451 279 406 302 349 303 c 2
 218 303 l 1
 235 396 l 1
 375 396 l 2
 501 395 630 335 611 196 c 0
 591 57 467 0 317 0 c 2
 43 0 l 1
 163 700 l 1
 410 700 l 2
 534 700 646 643 628 521 c 0
 610 404 490 349 360 348 c 2
 226 348 l 1
EndSplineSet
EndChar

StartChar: Z
Encoding: 90 90 23
Width: 602
VWidth: 0
Flags: HMW
LayerCount: 2
Fore
SplineSet
120 547 m 1
 147 700 l 1
 685 700 l 1
 271 147 l 1
 555 147 l 1
 528 0 l 1
 -22 0 l 1
 388 546 l 1
 120 547 l 1
EndSplineSet
EndChar

StartChar: o
Encoding: 111 111 24
Width: 571
VWidth: 0
Flags: HMW
LayerCount: 2
Fore
SplineSet
48 230 m 0
 66 371 191 470 337 470 c 0
 480 470 580 368 562 230 c 0
 544 89 418 -10 272 -10 c 0
 129 -10 30 92 48 230 c 0
202 230 m 0
 193 170 224 117 284 116 c 0
 345 115 398 167 408 230 c 0
 417 290 386 343 326 344 c 0
 265 345 212 293 202 230 c 0
EndSplineSet
EndChar

StartChar: J
Encoding: 74 74 25
Width: 320
VWidth: 0
Flags: HMW
LayerCount: 2
Fore
SplineSet
-112 -64 m 1
 -93 -81 -67 -97 -39 -96 c 0
 -2 -95 33 -64 40 -15 c 2
 163 700 l 1
 345 700 l 1
 217 -54 l 2
 196 -180 87 -240 -38 -239 c 0
 -109 -239 -173 -212 -219 -181 c 1
 -112 -64 l 1
EndSplineSet
EndChar

StartChar: t
Encoding: 116 116 26
Width: 309
VWidth: 0
Flags: HMW
LayerCount: 2
Fore
SplineSet
56 460 m 1
 359 460 l 1
 336 334 l 1
 33 334 l 1
 56 460 l 1
161 620 m 1
 306 620 l 1
 199 0 l 1
 55 0 l 1
 161 620 l 1
EndSplineSet
EndChar

StartChar: d
Encoding: 100 100 27
Width: 598
VWidth: 0
Flags: HMW
LayerCount: 2
Fore
SplineSet
500 780 m 1
 652 780 l 1
 518 0 l 1
 367 0 l 1
 500 780 l 1
42 230 m 0
 60 367 168 471 291 470 c 0
 415 469 465 355 449 230 c 0
 431 99 342 -10 219 -10 c 0
 96 -10 25 98 42 230 c 0
199 230 m 0
 190 170 220 114 281 113 c 0
 338 112 395 165 406 230 c 0
 415 290 383 345 328 347 c 0
 266 349 210 294 199 230 c 0
EndSplineSet
EndChar

StartChar: l
Encoding: 108 108 28
Width: 262
VWidth: 0
Flags: HMW
LayerCount: 2
Fore
SplineSet
162 780 m 1
 314 780 l 1
 180 0 l 1
 29 0 l 1
 162 780 l 1
EndSplineSet
EndChar

StartChar: i
Encoding: 105 105 29
Width: 267
VWidth: 0
Flags: HMW
LayerCount: 2
Fore
SplineSet
126 632 m 0
 126 680 166 714 215 714 c 0
 264 714 304 680 304 632 c 0
 304 584 264 550 215 550 c 0
 166 550 126 584 126 632 c 0
112 460 m 1
 259 460 l 1
 180 0 l 1
 34 0 l 1
 112 460 l 1
EndSplineSet
EndChar

StartChar: r
Encoding: 114 114 30
Width: 402
VWidth: 0
Flags: HMW
LayerCount: 2
Fore
SplineSet
256 460 m 1
 177 0 l 1
 28 0 l 1
 108 460 l 1
 256 460 l 1
363 303 m 1
 348 317 334 328 311 328 c 0
 261 329 223 280 215 227 c 1
 193 281 l 1
 210 376 288 470 368 471 c 0
 401 471 428 454 447 431 c 1
 363 303 l 1
EndSplineSet
EndChar

StartChar: c
Encoding: 99 99 31
Width: 478
VWidth: 0
Flags: HMW
LayerCount: 2
Fore
SplineSet
200 230 m 0
 190 164 231 114 297 112 c 0
 353 111 406 141 441 179 c 1
 421 31 l 1
 382 6 335 -10 274 -10 c 0
 129 -10 28 91 46 230 c 0
 65 372 190 470 339 470 c 0
 398 470 442 454 479 430 c 1
 460 281 l 1
 435 323 390 348 341 348 c 0
 270 348 211 296 200 230 c 0
EndSplineSet
EndChar

StartChar: b
Encoding: 98 98 32
Width: 598
VWidth: 0
Flags: HMW
LayerCount: 2
Fore
SplineSet
312 780 m 1
 178 0 l 1
 27 0 l 1
 160 780 l 1
 312 780 l 1
582 230 m 0
 564 93 455 -11 332 -10 c 0
 208 -9 159 105 175 230 c 0
 193 361 283 470 405 470 c 0
 528 470 599 362 582 230 c 0
425 230 m 0
 434 290 403 346 342 347 c 0
 285 348 229 295 218 230 c 0
 209 170 240 115 295 113 c 0
 357 111 414 166 425 230 c 0
EndSplineSet
EndChar

StartChar: p
Encoding: 112 112 33
Width: 598
VWidth: 0
Flags: HMW
LayerCount: 2
Fore
SplineSet
141 -220 m 1
 -11 -220 l 1
 106 460 l 1
 257 460 l 1
 141 -220 l 1
582 230 m 0
 563 89 456 -17 332 -16 c 0
 203 -15 165 106 181 230 c 0
 199 361 278 476 405 476 c 0
 529 476 599 365 582 230 c 0
425 230 m 0
 434 290 402 340 342 341 c 0
 286 342 228 295 218 230 c 0
 209 169 241 121 296 119 c 0
 358 117 415 167 425 230 c 0
EndSplineSet
EndChar

StartChar: q
Encoding: 113 113 34
Width: 598
VWidth: 0
Flags: HMW
LayerCount: 2
Fore
SplineSet
329 -220 m 1
 445 460 l 1
 597 460 l 1
 480 -220 l 1
 329 -220 l 1
42 230 m 0
 61 371 168 477 292 476 c 0
 421 475 459 354 443 230 c 0
 425 99 345 -16 218 -16 c 0
 94 -16 25 95 42 230 c 0
199 230 m 0
 190 170 222 120 282 119 c 0
 338 118 396 166 406 230 c 0
 415 291 383 339 328 341 c 0
 266 343 209 293 199 230 c 0
EndSplineSet
EndChar

StartChar: h
Encoding: 104 104 35
Width: 551
VWidth: 0
Flags: HMW
LayerCount: 2
Fore
SplineSet
314 780 m 1
 180 0 l 1
 28 0 l 1
 162 780 l 1
 314 780 l 1
368 280 m 2
 373 322 368 360 321 363 c 0
 273 366 239 325 228 281 c 1
 200 281 l 1
 219 383 277 477 391 477 c 0
 502 477 534 403 520 303 c 1
 469 0 l 1
 318 0 l 1
 368 280 l 2
EndSplineSet
EndChar

StartChar: n
Encoding: 110 110 36
Width: 557
VWidth: 0
Flags: HMW
LayerCount: 2
Fore
SplineSet
259 460 m 1
 180 0 l 1
 28 0 l 1
 108 460 l 1
 259 460 l 1
368 280 m 2
 373 322 368 360 321 363 c 0
 273 366 239 325 228 281 c 1
 199 275 l 1
 217 377 276 470 390 470 c 0
 500 470 541 396 526 296 c 1
 475 0 l 1
 318 0 l 1
 368 280 l 2
EndSplineSet
EndChar

StartChar: m
Encoding: 109 109 37
Width: 796
VWidth: 0
Flags: HMW
LayerCount: 2
Fore
SplineSet
343 280 m 2
 347 320 346 360 304 363 c 0
 261 367 230 324 221 281 c 1
 193 275 l 1
 211 376 269 469 378 470 c 0
 484 471 506 400 494 303 c 2
 443 0 l 1
 292 0 l 1
 343 280 l 2
253 460 m 1
 174 0 l 1
 28 0 l 1
 108 460 l 1
 253 460 l 1
764 296 m 2
 714 0 l 1
 562 0 l 1
 612 280 l 2
 616 320 615 360 573 363 c 0
 530 367 500 324 491 281 c 1
 440 275 l 1
 460 377 537 470 648 470 c 0
 755 470 776 393 764 296 c 2
EndSplineSet
EndChar

StartChar: k
Encoding: 107 107 38
Width: 561
VWidth: 0
Flags: HMW
LayerCount: 2
Fore
SplineSet
160 780 m 1
 306 780 l 1
 172 0 l 1
 27 0 l 1
 160 780 l 1
407 460 m 1
 593 460 l 1
 363 265 l 1
 527 0 l 1
 357 0 l 1
 189 274 l 1
 407 460 l 1
EndSplineSet
EndChar

StartChar: u
Encoding: 117 117 39
Width: 557
VWidth: 0
Flags: HMW
LayerCount: 2
Fore
SplineSet
324 0 m 1
 403 460 l 1
 554 460 l 1
 475 0 l 1
 324 0 l 1
215 180 m 1
 211 137 215 100 262 97 c 0
 310 94 344 135 355 179 c 1
 383 185 l 1
 365 83 307 -10 193 -10 c 0
 83 -10 45 63 57 164 c 1
 108 460 l 1
 265 460 l 1
 215 180 l 1
EndSplineSet
EndChar

StartChar: e
Encoding: 101 101 40
Width: 556
VWidth: 0
Flags: HMW
LayerCount: 2
Fore
SplineSet
128 197 m 1
 140 281 l 1
 393 281 l 1
 393 328 374 367 322 368 c 0
 259 369 217 316 205 253 c 1
 199 230 l 1
 190 157 213 104 277 101 c 0
 328 99 368 126 396 159 c 1
 529 125 l 1
 471 45 391 -11 271 -10 c 0
 117 -9 30 93 48 230 c 0
 50 247 54 263 59 279 c 0
 95 393 196 470 334 470 c 0
 484 470 561 375 545 237 c 0
 544 226 542 212 539 197 c 1
 128 197 l 1
EndSplineSet
EndChar

StartChar: g
Encoding: 103 103 41
Width: 592
VWidth: 0
Flags: HMW
LayerCount: 2
Fore
SplineSet
6 -33 m 1
 149 -34 l 1
 151 -86 177 -116 233 -117 c 0
 302 -118 357 -64 368 10 c 2
 445 460 l 1
 591 460 l 1
 514 10 l 2
 489 -148 379 -239 230 -239 c 0
 78 -239 5 -159 6 -33 c 1
42 237 m 0
 60 374 169 471 291 470 c 0
 414 469 466 362 450 236 c 0
 432 105 343 3 221 3 c 0
 99 3 25 104 42 237 c 0
200 236 m 0
 191 176 223 127 283 126 c 0
 339 125 397 173 407 237 c 0
 416 298 383 346 328 347 c 0
 263 348 210 299 200 236 c 0
EndSplineSet
EndChar

StartChar: f
Encoding: 102 102 42
Width: 334
VWidth: 0
Flags: HMW
LayerCount: 2
Fore
SplineSet
68 460 m 1
 377 460 l 1
 355 334 l 1
 45 334 l 1
 68 460 l 1
392 634 m 1
 381 648 368 660 351 660 c 0
 318 660 296 628 291 591 c 2
 189 0 l 1
 44 0 l 1
 151 630 l 2
 168 727 238 797 347 796 c 0
 405 796 440 770 467 744 c 1
 392 634 l 1
EndSplineSet
EndChar

StartChar: s
Encoding: 115 115 43
Width: 442
VWidth: 0
Flags: HMW
LayerCount: 2
Fore
SplineSet
85 175 m 1
 138 124 184 92 224 94 c 0
 247 94 272 108 275 130 c 0
 280 167 231 180 193 195 c 0
 130 220 75 259 85 339 c 0
 97 425 177 470 270 470 c 0
 344 470 405 440 456 401 c 1
 390 303 l 1
 359 336 317 364 277 364 c 0
 251 364 225 354 222 334 c 0
 215 297 279 286 319 270 c 0
 381 245 433 204 425 129 c 0
 414 29 338 -19 236 -19 c 0
 144 -19 72 21 12 76 c 1
 85 175 l 1
EndSplineSet
EndChar

StartChar: y
Encoding: 121 121 44
Width: 506
VWidth: 0
Flags: HMW
LayerCount: 2
Fore
SplineSet
571 460 m 1
 163 -220 l 1
 8 -220 l 1
 165 41 l 1
 43 460 l 1
 203 460 l 1
 285 90 l 1
 207 92 l 1
 413 460 l 1
 571 460 l 1
EndSplineSet
EndChar

StartChar: w
Encoding: 119 119 45
Width: 739
VWidth: 0
Flags: HMW
LayerCount: 2
Fore
SplineSet
45 460 m 1
 198 460 l 1
 250 229 l 1
 425 497 l 1
 508 228 l 1
 641 460 l 1
 803 460 l 1
 485 -31 l 1
 385 241 l 1
 192 -31 l 1
 45 460 l 1
EndSplineSet
EndChar

StartChar: v
Encoding: 118 118 46
Width: 511
VWidth: 0
Flags: HMW
LayerCount: 2
Fore
SplineSet
51 460 m 1
 210 460 l 1
 271 209 l 1
 411 460 l 1
 573 460 l 1
 232 -56 l 1
 51 460 l 1
EndSplineSet
EndChar

StartChar: x
Encoding: 120 120 47
Width: 517
VWidth: 0
Flags: HMW
LayerCount: 2
Fore
SplineSet
395 460 m 1
 566 460 l 1
 357 233 l 1
 500 0 l 1
 338 0 l 1
 264 135 l 1
 156 0 l 1
 -21 0 l 1
 200 244 l 1
 65 460 l 1
 232 460 l 1
 295 341 l 1
 395 460 l 1
EndSplineSet
EndChar

StartChar: z
Encoding: 122 122 48
Width: 507
VWidth: 0
Flags: HMW
LayerCount: 2
Fore
SplineSet
272 322 m 1
 82 322 l 1
 106 460 l 1
 549 460 l 1
 271 138 l 1
 460 138 l 1
 436 0 l 1
 -17 0 l 1
 272 322 l 1
EndSplineSet
EndChar

StartChar: j
Encoding: 106 106 49
Width: 263
VWidth: 0
Flags: HMW
LayerCount: 2
Fore
SplineSet
123 632 m 0
 123 680 162 714 211 714 c 0
 260 714 300 680 300 632 c 0
 300 584 260 550 211 550 c 0
 162 550 123 584 123 632 c 0
-76 -77 m 1
 -65 -92 -50 -103 -33 -103 c 0
 -1 -104 19 -70 24 -34 c 2
 109 460 l 1
 255 460 l 1
 164 -73 l 2
 147 -170 80 -240 -29 -239 c 0
 -87 -239 -124 -213 -152 -187 c 1
 -76 -77 l 1
EndSplineSet
EndChar

StartChar: P
Encoding: 80 80 50
Width: 605
VWidth: 0
Flags: HMW
LayerCount: 2
Fore
SplineSet
162 700 m 1
 331 700 l 1
 211 0 l 1
 44 0 l 1
 162 700 l 1
243 560 m 1
 267 700 l 1
 395 700 l 1
 553 699 644 613 628 471 c 0
 612 326 490 243 327 242 c 1
 188 242 l 1
 213 382 l 1
 341 382 l 1
 404 383 455 414 466 471 c 0
 476 526 440 560 380 560 c 2
 243 560 l 1
EndSplineSet
EndChar

StartChar: U
Encoding: 85 85 51
Width: 680
VWidth: 0
Flags: HMW
LayerCount: 2
Fore
SplineSet
158 700 m 1
 326 700 l 1
 246 243 l 2
 238 181 258 125 330 124 c 0
 406 123 449 177 461 243 c 1
 541 700 l 1
 709 700 l 1
 629 230 l 2
 603 67 479 -29 314 -29 c 0
 159 -29 55 69 78 230 c 1
 158 700 l 1
EndSplineSet
EndChar

StartChar: S
Encoding: 83 83 52
Width: 607
VWidth: 0
Flags: HMW
LayerCount: 2
Fore
SplineSet
162 251 m 1
 194 179 230 126 304 126 c 0
 353 126 392 150 401 194 c 0
 413 253 345 275 284 301 c 0
 206 336 117 398 132 518 c 0
 151 640 271 716 408 716 c 0
 529 716 598 647 631 562 c 1
 496 489 l 1
 473 536 442 571 390 571 c 0
 347 571 310 547 303 512 c 0
 291 460 378 436 437 413 c 0
 531 375 592 304 578 196 c 0
 558 57 432 -23 290 -23 c 0
 166 -23 67 57 33 168 c 1
 162 251 l 1
EndSplineSet
EndChar

StartChar: at
Encoding: 64 64 53
Width: 747
VWidth: 0
Flags: HMW
LayerCount: 2
Fore
SplineSet
335 320 m 0
 331 288 336 256 364 253 c 0
 404 247 451 313 457 364 c 0
 460 398 454 428 426 431 c 0
 383 436 341 368 335 320 c 0
216 313 m 0
 229 428 314 532 407 530 c 0
 485 528 514 444 505 370 c 0
 493 255 416 154 321 154 c 0
 235 154 206 229 216 313 c 0
44 320 m 0
 77 537 264 724 494 723 c 0
 696 722 796 554 770 390 c 0
 753 246 656 141 544 144 c 0
 472 146 443 200 452 264 c 1
 444 296 l 1
 504 520 l 1
 618 520 l 1
 556 308 l 2
 554 300 551 290 550 281 c 0
 548 263 548 245 566 242 c 0
 603 232 654 313 660 390 c 0
 679 507 630 621 486 622 c 0
 312 623 183 485 155 320 c 0
 133 183 192 77 347 75 c 0
 416 74 476 92 536 118 c 1
 560 27 l 1
 493 -6 419 -26 328 -26 c 0
 115 -24 16 132 44 320 c 0
EndSplineSet
EndChar

StartChar: period
Encoding: 46 46 54
Width: 312
VWidth: 0
Flags: HMW
LayerCount: 2
Fore
SplineSet
50 68 m 0
 50 119 90 161 145 161 c 0
 200 161 239 119 239 68 c 0
 239 17 200 -24 145 -24 c 0
 90 -24 50 17 50 68 c 0
EndSplineSet
EndChar

StartChar: comma
Encoding: 44 44 55
Width: 313
VWidth: 0
Flags: HMW
LayerCount: 2
Fore
SplineSet
105 109 m 1
 253 75 l 1
 89 -172 l 1
 -24 -148 l 1
 105 109 l 1
EndSplineSet
EndChar

StartChar: colon
Encoding: 58 58 56
Width: 312
VWidth: 0
Flags: HMW
LayerCount: 2
Fore
SplineSet
47 68 m 0
 47 119 86 161 141 161 c 0
 196 161 236 119 236 68 c 0
 236 17 196 -24 141 -24 c 0
 86 -24 47 17 47 68 c 0
110 442 m 0
 110 493 150 535 205 535 c 0
 260 535 299 493 299 442 c 0
 299 391 260 349 205 349 c 0
 150 349 110 391 110 442 c 0
EndSplineSet
EndChar

StartChar: semicolon
Encoding: 59 59 57
Width: 381
VWidth: 0
Flags: HMW
LayerCount: 2
Fore
SplineSet
160 436 m 0
 160 487 200 528 255 528 c 0
 310 528 349 487 349 436 c 0
 349 385 310 342 255 342 c 0
 200 342 160 385 160 436 c 0
127 109 m 1
 274 75 l 1
 110 -172 l 1
 -3 -148 l 1
 127 109 l 1
EndSplineSet
EndChar

StartChar: quotedbl
Encoding: 34 34 58
Width: 502
VWidth: 0
Flags: HMW
LayerCount: 2
Fore
SplineSet
191 700 m 1
 352 700 l 1
 200 381 l 1
 98 381 l 1
 191 700 l 1
396 700 m 1
 557 700 l 1
 405 381 l 1
 304 381 l 1
 396 700 l 1
EndSplineSet
EndChar

StartChar: exclam
Encoding: 33 33 59
Width: 333
VWidth: 0
Flags: HMW
LayerCount: 2
Fore
SplineSet
167 700 m 1
 352 700 l 1
 241 232 l 1
 118 232 l 1
 167 700 l 1
57 62 m 0
 57 113 97 149 152 149 c 0
 207 149 247 113 247 62 c 0
 247 11 207 -25 152 -25 c 0
 97 -25 57 11 57 62 c 0
EndSplineSet
EndChar

StartChar: quotesingle
Encoding: 39 39 60
Width: 297
VWidth: 0
Flags: HMW
LayerCount: 2
Fore
SplineSet
191 700 m 1
 352 700 l 1
 200 381 l 1
 98 381 l 1
 191 700 l 1
EndSplineSet
EndChar

StartChar: numbersign
Encoding: 35 35 61
Width: 648
VWidth: 0
Flags: HMW
LayerCount: 2
Fore
SplineSet
117 412 m 1
 136 534 l 1
 680 534 l 1
 659 412 l 1
 512 412 l 1
 485 418 l 1
 286 418 l 1
 259 412 l 1
 117 412 l 1
35 172 m 1
 56 294 l 1
 189 294 l 1
 219 287 l 1
 443 287 l 1
 473 294 l 1
 600 294 l 1
 579 172 l 1
 35 172 l 1
549 700 m 1
 684 700 l 1
 398 0 l 1
 265 0 l 1
 357 224 l 1
 373 249 l 1
 457 456 l 1
 463 487 l 1
 549 700 l 1
315 700 m 1
 449 700 l 1
 362 488 l 1
 343 456 l 1
 259 251 l 1
 256 226 l 1
 163 0 l 1
 31 0 l 1
 315 700 l 1
EndSplineSet
EndChar

StartChar: hyphen
Encoding: 45 45 62
Width: 215
VWidth: 0
Flags: HMW
LayerCount: 2
Fore
SplineSet
6 172 m 1
 28 304 l 1
 238 304 l 1
 215 172 l 1
 6 172 l 1
EndSplineSet
EndChar

StartChar: dollar
Encoding: 36 36 63
Width: 602
VWidth: 0
Flags: HMW
LayerCount: 2
Fore
SplineSet
363 818 m 1
 486 818 l 1
 451 636 l 1
 340 636 l 1
 363 818 l 1
252 62 m 1
 362 62 l 1
 341 -112 l 1
 219 -112 l 1
 252 62 l 1
497 489 m 1
 475 540 447 583 394 584 c 0
 347 585 312 558 305 521 c 0
 293 459 377 438 440 413 c 0
 532 376 597 304 584 196 c 0
 565 63 443 -11 294 -10 c 0
 173 -9 78 68 40 168 c 1
 167 251 l 1
 200 179 238 126 312 126 c 0
 363 126 401 151 408 195 c 0
 418 252 350 276 288 302 c 0
 209 336 119 403 133 521 c 0
 150 632 269 710 400 710 c 0
 524 710 592 647 631 562 c 1
 497 489 l 1
EndSplineSet
EndChar

StartChar: bar
Encoding: 124 124 64
Width: 342
VWidth: 0
Flags: HMW
LayerCount: 2
Fore
SplineSet
200 785 m 1
 351 785 l 1
 197 -215 l 1
 46 -215 l 1
 200 785 l 1
EndSplineSet
EndChar

StartChar: zero
Encoding: 48 48 65
Width: 643
VWidth: 0
Flags: HMW
LayerCount: 2
Fore
SplineSet
232 350 m 0
 222 256 224 136 313 134 c 0
 403 132 462 244 477 350 c 0
 487 444 485 564 396 566 c 0
 306 568 247 456 232 350 c 0
70 350 m 0
 98 549 226 713 412 713 c 0
 603 713 663 538 639 350 c 0
 611 150 487 -13 298 -13 c 0
 111 -13 46 162 70 350 c 0
EndSplineSet
Substitution2: "Tabular Numbers lookup" uniFF10
EndChar

StartChar: one
Encoding: 49 49 66
Width: 493
VWidth: 0
Flags: HMW
LayerCount: 2
Fore
SplineSet
121 495 m 1
 147 646 l 1
 490 714 l 1
 367 0 l 1
 206 0 l 1
 297 538 l 1
 121 495 l 1
EndSplineSet
Substitution2: "Tabular Numbers lookup" uniFF11
EndChar

StartChar: two
Encoding: 50 50 67
Width: 637
VWidth: 0
Flags: HMW
LayerCount: 2
Fore
SplineSet
-1 0 m 1
 351 323 l 2
 404 374 457 419 466 480 c 0
 472 524 448 566 392 567 c 0
 324 569 281 506 268 441 c 1
 103 441 l 1
 128 589 236 714 410 714 c 0
 559 714 658 609 640 491 c 0
 629 414 578 351 516 301 c 2
 337 157 l 1
 606 156 l 1
 581 0 l 1
 -1 0 l 1
EndSplineSet
Substitution2: "Tabular Numbers lookup" uniFF12
EndChar

StartChar: four
Encoding: 52 52 68
Width: 679
VWidth: 0
Flags: HMW
LayerCount: 2
Fore
SplineSet
4 125 m 1
 497 699 l 1
 625 700 l 1
 505 0 l 1
 331 0 l 1
 360 176 l 1
 381 187 l 1
 426 446 l 1
 251 247 l 1
 493 247 l 1
 513 269 l 1
 659 269 l 1
 633 124 l 1
 4 125 l 1
EndSplineSet
Substitution2: "Tabular Numbers lookup" uniFF14
EndChar

StartChar: slash
Encoding: 47 47 69
Width: 590
VWidth: 0
Flags: HMW
LayerCount: 2
Fore
SplineSet
524 700 m 1
 674 700 l 1
 113 -150 l 1
 -41 -149 l 1
 524 700 l 1
EndSplineSet
EndChar

StartChar: backslash
Encoding: 92 92 70
Width: 529
VWidth: 0
Flags: HMW
LayerCount: 2
Fore
SplineSet
107 700 m 1
 250 700 l 1
 488 0 l 1
 346 0 l 1
 107 700 l 1
EndSplineSet
EndChar

StartChar: eight
Encoding: 56 56 71
Width: 609
VWidth: 0
Flags: HMW
LayerCount: 2
Fore
SplineSet
137 532 m 0
 155 650 272 716 395 716 c 0
 513 716 617 647 600 530 c 0
 583 408 457 342 341 342 c 0
 229 342 120 410 137 532 c 0
291 514 m 0
 285 474 306 437 349 436 c 0
 396 435 434 473 441 515 c 0
 447 556 425 593 382 594 c 0
 334 595 298 556 291 514 c 0
55 190 m 0
 74 328 219 396 341 396 c 0
 458 396 585 328 566 190 c 0
 547 62 413 -16 280 -16 c 0
 153 -16 36 63 55 190 c 0
225 215 m 0
 217 164 244 124 295 123 c 0
 350 122 396 163 405 217 c 0
 412 262 383 305 334 306 c 0
 280 307 234 263 225 215 c 0
EndSplineSet
Substitution2: "Tabular Numbers lookup" uniFF18
EndChar

StartChar: nine
Encoding: 57 57 72
Width: 649
VWidth: 0
Flags: HMW
LayerCount: 2
Fore
SplineSet
492 454 m 0
 501 516 465 569 400 570 c 0
 333 571 275 520 265 454 c 0
 256 392 291 337 357 336 c 0
 424 335 482 388 492 454 c 0
315 3 m 1
 98 3 l 1
 357 254 l 1
 397 269 l 1
 360 239 327 227 281 227 c 0
 167 228 86 330 100 454 c 0
 120 616 258 716 414 716 c 0
 568 716 677 613 657 454 c 0
 646 378 600 314 549 258 c 2
 315 3 l 1
EndSplineSet
Substitution2: "Tabular Numbers lookup" uniFF19
EndChar

StartChar: three
Encoding: 51 51 73
Width: 603
VWidth: 0
Flags: HMW
LayerCount: 2
Fore
SplineSet
302 339 m 1
 312 415 l 1
 378 419 447 451 454 508 c 0
 459 546 438 576 392 577 c 0
 339 578 301 538 289 494 c 1
 134 495 l 1
 157 619 260 713 404 713 c 0
 539 713 637 633 620 518 c 0
 600 385 449 341 302 339 c 1
293 -16 m 0
 137 -16 50 93 61 223 c 1
 225 222 l 1
 222 161 252 122 312 121 c 0
 368 120 418 152 426 208 c 0
 439 274 377 303 298 306 c 1
 309 392 l 1
 462 390 610 340 589 191 c 0
 571 62 445 -16 293 -16 c 0
EndSplineSet
Substitution2: "Tabular Numbers lookup" uniFF13
EndChar

StartChar: five
Encoding: 53 53 74
Width: 626
VWidth: 0
Flags: HMW
LayerCount: 2
Fore
SplineSet
607 223 m 0
 587 68 440 -13 299 -13 c 0
 186 -13 102 26 36 78 c 1
 118 217 l 1
 164 173 221 143 278 143 c 0
 352 143 418 176 428 243 c 0
 437 308 378 338 316 339 c 0
 254 341 182 325 114 296 c 1
 269 700 l 1
 666 700 l 1
 643 552 l 1
 372 552 l 1
 310 428 l 1
 347 444 388 452 430 452 c 0
 548 451 622 350 607 223 c 0
EndSplineSet
Substitution2: "Tabular Numbers lookup" uniFF15
EndChar

StartChar: six
Encoding: 54 54 75
Width: 649
VWidth: 0
Flags: HMW
LayerCount: 2
Fore
SplineSet
233 246 m 0
 224 184 259 131 324 130 c 0
 391 129 450 180 460 246 c 0
 469 308 434 363 368 364 c 0
 301 365 243 312 233 246 c 0
410 696 m 1
 628 696 l 1
 367 446 l 1
 328 431 l 1
 365 461 398 473 444 473 c 0
 558 472 638 370 624 246 c 0
 604 84 466 -16 310 -16 c 0
 156 -16 48 87 68 246 c 0
 79 322 124 386 175 442 c 2
 410 696 l 1
EndSplineSet
Substitution2: "Tabular Numbers lookup" uniFF16
EndChar

StartChar: seven
Encoding: 55 55 76
Width: 585
VWidth: 0
Flags: HMW
LayerCount: 2
Fore
SplineSet
93 541 m 1
 119 700 l 1
 678 700 l 1
 241 0 l 1
 57 0 l 1
 405 541 l 1
 93 541 l 1
EndSplineSet
Substitution2: "Tabular Numbers lookup" uniFF17
EndChar

StartChar: plus
Encoding: 43 43 77
Width: 654
VWidth: 0
Flags: HMW
LayerCount: 2
Fore
SplineSet
68 196 m 1
 93 342 l 1
 625 342 l 1
 599 196 l 1
 68 196 l 1
315 541 m 1
 471 541 l 1
 377 -3 l 1
 222 -3 l 1
 315 541 l 1
EndSplineSet
EndChar

StartChar: equal
Encoding: 61 61 78
Width: 607
VWidth: 0
Flags: HMW
LayerCount: 2
Fore
SplineSet
40 83 m 1
 63 215 l 1
 565 215 l 1
 542 83 l 1
 40 83 l 1
75 290 m 1
 98 422 l 1
 601 422 l 1
 578 290 l 1
 75 290 l 1
EndSplineSet
EndChar

StartChar: percent
Encoding: 37 37 79
Width: 893
VWidth: 0
Flags: HMW
LayerCount: 2
Fore
SplineSet
84 534 m 0
 98 634 190 719 296 719 c 0
 401 719 469 630 455 533 c 0
 441 433 349 350 243 350 c 0
 138 350 70 437 84 534 c 0
207 533 m 0
 203 502 221 470 259 469 c 0
 295 468 327 502 332 535 c 0
 336 566 319 599 281 600 c 0
 245 601 212 566 207 533 c 0
505 167 m 0
 519 267 611 351 717 351 c 0
 822 351 889 263 875 166 c 0
 861 66 769 -19 663 -19 c 0
 558 -19 491 70 505 167 c 0
628 166 m 0
 624 135 643 102 678 101 c 0
 714 100 747 131 753 167 c 0
 757 198 738 231 703 232 c 0
 667 233 634 202 628 166 c 0
721 700 m 1
 882 700 l 1
 238 0 l 1
 79 0 l 1
 721 700 l 1
EndSplineSet
EndChar

StartChar: ampersand
Encoding: 38 38 80
Width: 730
VWidth: 0
Flags: HMW
LayerCount: 2
Fore
SplineSet
258 371 m 2
 219 424 180 476 188 544 c 0
 202 641 302 717 421 717 c 0
 534 717 609 638 597 547 c 0
 584 450 500 402 402 343 c 0
 332 303 221 284 208 201 c 0
 200 152 235 118 293 116 c 0
 420 110 537 235 621 341 c 1
 713 262 l 1
 608 133 455 -15 261 -13 c 0
 137 -12 32 64 49 188 c 0
 68 338 233 378 327 420 c 0
 389 449 452 487 459 534 c 0
 462 563 444 594 405 595 c 0
 365 596 337 567 331 533 c 0
 323 489 360 449 398 400 c 2
 695 0 l 1
 531 0 l 1
 258 371 l 2
EndSplineSet
EndChar

StartChar: question
Encoding: 63 63 81
Width: 608
VWidth: 0
Flags: HMW
LayerCount: 2
Fore
SplineSet
466 500 m 0
 475 555 439 589 377 590 c 0
 313 591 251 553 208 504 c 1
 118 591 l 1
 195 667 284 720 399 719 c 0
 526 718 636 632 617 500 c 0
 598 378 486 308 375 285 c 1
 355 202 l 1
 231 202 l 1
 241 380 l 1
 271 380 l 1
 369 382 452 435 466 500 c 0
172 60 m 0
 172 106 213 142 266 142 c 0
 319 142 358 105 358 60 c 0
 358 14 319 -24 266 -24 c 0
 213 -24 172 14 172 60 c 0
EndSplineSet
EndChar

StartChar: parenleft
Encoding: 40 40 82
Width: 330
VWidth: 0
Flags: HMW
LayerCount: 2
Fore
SplineSet
283 779 m 1
 421 779 l 1
 334 628 268 463 240 290 c 0
 215 126 224 -42 272 -200 c 1
 138 -200 l 1
 82 -43 68 125 92 290 c 0
 119 464 185 632 283 779 c 1
EndSplineSet
EndChar

StartChar: parenright
Encoding: 41 41 83
Width: 330
VWidth: 0
Flags: HMW
LayerCount: 2
Fore
SplineSet
103 -199 m 1
 -34 -199 l 1
 53 -48 118 117 146 290 c 0
 171 454 163 622 115 780 c 1
 249 780 l 1
 305 623 319 455 295 290 c 0
 268 116 201 -52 103 -199 c 1
EndSplineSet
EndChar

StartChar: asterisk
Encoding: 42 42 84
Width: 574
VWidth: 0
Flags: HMW
LayerCount: 2
Fore
SplineSet
558 603 m 1
 579 470 l 1
 344 428 l 1
 333 501 l 1
 558 603 l 1
505 312 m 1
 380 230 l 1
 307 445 l 1
 369 486 l 1
 505 312 l 1
224 233 m 1
 123 318 l 1
 311 485 l 1
 366 440 l 1
 224 233 l 1
101 472 m 1
 164 602 l 1
 359 497 l 1
 325 429 l 1
 101 472 l 1
309 700 m 1
 450 700 l 1
 377 465 l 1
 304 464 l 1
 309 700 l 1
EndSplineSet
EndChar

StartChar: less
Encoding: 60 60 85
Width: 621
VWidth: 0
Flags: HMW
LayerCount: 2
Fore
SplineSet
292 264 m 1
 558 144 l 1
 532 0 l 1
 72 215 l 1
 89 316 l 1
 625 531 l 1
 597 375 l 1
 292 264 l 1
EndSplineSet
EndChar

StartChar: greater
Encoding: 62 62 86
Width: 621
VWidth: 0
Flags: HMW
LayerCount: 2
Fore
SplineSet
365 264 m 1
 100 384 l 1
 124 527 l 1
 585 313 l 1
 568 212 l 1
 33 -3 l 1
 60 152 l 1
 365 264 l 1
EndSplineSet
EndChar

StartChar: bracketleft
Encoding: 91 91 87
Width: 352
VWidth: 0
Flags: HMW
LayerCount: 2
Fore
SplineSet
320 648 m 1
 206 -88 l 1
 304 -88 l 1
 283 -220 l 1
 35 -220 l 1
 190 780 l 1
 438 780 l 1
 417 648 l 1
 320 648 l 1
EndSplineSet
EndChar

StartChar: bracketright
Encoding: 93 93 88
Width: 352
VWidth: 0
Flags: HMW
LayerCount: 2
Fore
SplineSet
86 -88 m 1
 199 648 l 1
 100 648 l 1
 122 780 l 1
 369 780 l 1
 215 -220 l 1
 -33 -220 l 1
 -12 -88 l 1
 86 -88 l 1
EndSplineSet
EndChar

StartChar: asciicircum
Encoding: 94 94 89
Width: 494
VWidth: 0
Flags: HMW
LayerCount: 2
Fore
SplineSet
322 577 m 1
 224 448 l 1
 84 448 l 1
 294 710 l 1
 384 710 l 1
 504 447 l 1
 374 447 l 1
 322 577 l 1
EndSplineSet
EndChar

StartChar: underscore
Encoding: 95 95 90
Width: 515
VWidth: 0
Flags: HMW
LayerCount: 2
Fore
SplineSet
-55 -153 m 1
 -38 -58 l 1
 481 -58 l 1
 464 -153 l 1
 -55 -153 l 1
EndSplineSet
EndChar

StartChar: grave
Encoding: 96 96 91
Width: 363
VWidth: 0
Flags: HMW
LayerCount: 2
Fore
SplineSet
135 656 m 1
 253 707 l 1
 376 544 l 1
 290 504 l 1
 135 656 l 1
EndSplineSet
EndChar

StartChar: braceleft
Encoding: 123 123 92
Width: 386
VWidth: 0
Flags: HMW
LayerCount: 2
Fore
SplineSet
338 609 m 2
 319 490 l 2
 301 390 274 289 144 280 c 1
 146 300 l 1
 273 288 271 181 256 90 c 2
 237 -30 l 2
 233 -57 245 -79 275 -79 c 2
 311 -79 l 1
 293 -200 l 1
 206 -200 l 2
 125 -199 56 -150 68 -60 c 2
 97 125 l 2
 104 188 97 215 54 235 c 1
 70 345 l 1
 116 362 137 391 146 456 c 2
 175 640 l 2
 189 731 266 779 350 780 c 1
 444 780 l 1
 426 660 l 1
 393 660 l 2
 362 660 343 638 338 609 c 2
EndSplineSet
EndChar

StartChar: braceright
Encoding: 125 125 93
Width: 386
VWidth: 0
Flags: HMW
LayerCount: 2
Fore
SplineSet
109 -29 m 2
 127 90 l 2
 145 190 172 291 302 300 c 1
 300 280 l 1
 173 292 175 399 190 490 c 2
 209 610 l 2
 213 637 200 659 171 659 c 2
 136 659 l 1
 153 780 l 1
 240 780 l 2
 321 779 390 730 378 640 c 2
 349 455 l 2
 342 392 349 365 392 345 c 1
 376 235 l 1
 330 218 309 189 300 124 c 2
 272 -60 l 2
 258 -152 181 -199 97 -200 c 1
 2 -200 l 1
 20 -80 l 1
 53 -80 l 2
 84 -80 104 -58 109 -29 c 2
EndSplineSet
EndChar

StartChar: asciitilde
Encoding: 126 126 94
Width: 558
VWidth: 0
Flags: HMW
LayerCount: 2
Fore
SplineSet
162 163 m 1
 44 168 l 1
 43 176 43 185 44 193 c 0
 48 227 62 260 87 288 c 0
 118 323 161 346 220 346 c 0
 263 346 296 326 335 297 c 0
 357 281 377 263 397 263 c 0
 418 263 433 283 437 302 c 0
 439 313 438 326 436 336 c 1
 555 331 l 1
 556 322 557 312 556 302 c 0
 552 268 539 234 515 206 c 0
 486 173 449 153 399 153 c 0
 359 153 325 175 285 203 c 0
 260 221 237 238 212 237 c 0
 184 236 166 214 161 192 c 0
 159 181 161 172 162 163 c 1
EndSplineSet
EndChar

StartChar: exclamdown
Encoding: 161 161 95
Width: 333
VWidth: 0
Flags: HMW
LayerCount: 2
Fore
SplineSet
193 -229 m 1
 7 -229 l 1
 119 239 l 1
 242 239 l 1
 193 -229 l 1
303 408 m 0
 297 360 249 322 198 323 c 0
 146 324 111 361 117 410 c 0
 123 458 170 496 221 495 c 0
 273 494 309 457 303 408 c 0
EndSplineSet
EndChar

StartChar: cent
Encoding: 162 162 96
Width: 562
VWidth: 0
Flags: HMW
LayerCount: 2
Fore
SplineSet
207 38 m 1
 318 38 l 1
 301 -112 l 1
 171 -112 l 1
 207 38 l 1
213 230 m 0
 203 163 242 114 307 112 c 0
 366 111 416 145 452 180 c 1
 430 30 l 1
 391 5 340 -10 282 -10 c 0
 137 -10 39 91 59 230 c 0
 80 372 206 470 355 470 c 0
 411 470 458 455 495 430 c 1
 472 279 l 1
 448 319 412 348 356 348 c 0
 289 348 225 297 213 230 c 0
290 578 m 1
 420 578 l 1
 384 428 l 1
 273 428 l 1
 290 578 l 1
EndSplineSet
EndChar

StartChar: sterling
Encoding: 163 163 97
Width: 592
VWidth: 0
Flags: HMW
LayerCount: 2
Fore
SplineSet
100 370 m 1
 471 370 l 1
 452 270 l 1
 82 270 l 1
 100 370 l 1
476 467 m 1
 477 518 468 574 400 575 c 0
 351 576 305 545 296 494 c 0
 280 415 358 364 347 270 c 0
 331 160 206 77 117 51 c 1
 180 140 l 1
 522 140 l 1
 497 0 l 1
 22 0 l 1
 113 94 187 177 205 287 c 0
 217 375 131 422 142 522 c 0
 158 641 282 711 406 710 c 0
 540 709 619 617 617 517 c 1
 476 467 l 1
EndSplineSet
EndChar

StartChar: currency
Encoding: 164 164 98
Width: 559
VWidth: 0
Flags: HMW
LayerCount: 2
Fore
SplineSet
80 505 m 1
 150 566 l 1
 232 461 l 1
 165 404 l 1
 80 505 l 1
65 34 m 1
 12 102 l 1
 124 196 l 1
 176 132 l 1
 65 34 l 1
486 404 m 1
 431 470 l 1
 544 566 l 1
 597 501 l 1
 486 404 l 1
374 136 m 1
 445 196 l 1
 526 93 l 1
 460 35 l 1
 374 136 l 1
72 300 m 0
 91 432 205 540 340 540 c 0
 474 540 555 428 537 300 c 0
 518 168 404 60 268 60 c 0
 134 60 54 172 72 300 c 0
207 300 m 0
 199 247 227 200 284 199 c 0
 342 198 392 244 401 300 c 0
 409 353 382 400 325 401 c 0
 267 402 216 356 207 300 c 0
EndSplineSet
EndChar

StartChar: yen
Encoding: 165 165 99
Width: 649
VWidth: 0
Flags: HMW
LayerCount: 2
Fore
SplineSet
60 265 m 1
 78 365 l 1
 641 365 l 1
 623 265 l 1
 60 265 l 1
35 115 m 1
 53 215 l 1
 615 215 l 1
 597 115 l 1
 35 115 l 1
546 700 m 1
 743 700 l 1
 432 283 l 1
 384 0 l 1
 212 0 l 1
 263 289 l 1
 96 700 l 1
 284 700 l 1
 370 441 l 1
 546 700 l 1
EndSplineSet
EndChar

StartChar: brokenbar
Encoding: 166 166 100
Width: 342
VWidth: 0
Flags: HMW
LayerCount: 2
Fore
SplineSet
188 695 m 1
 339 695 l 1
 294 430 l 1
 141 430 l 1
 188 695 l 1
267 270 m 1
 221 5 l 1
 69 5 l 1
 115 270 l 1
 267 270 l 1
EndSplineSet
EndChar

StartChar: section
Encoding: 167 167 101
Width: 561
VWidth: 0
Flags: HMW
LayerCount: 2
Fore
SplineSet
460 549 m 1
 435 577 400 597 366 597 c 0
 340 597 310 587 308 568 c 0
 304 541 358 532 394 520 c 0
 463 499 515 448 506 377 c 0
 490 270 377 233 273 230 c 1
 280 271 l 1
 317 281 359 303 366 344 c 0
 376 397 311 415 266 435 c 0
 208 461 157 504 167 579 c 0
 181 673 279 723 369 723 c 0
 443 723 510 694 543 647 c 1
 460 549 l 1
123 173 m 1
 162 130 211 102 257 103 c 0
 287 103 316 116 320 138 c 0
 325 170 276 181 238 194 c 0
 169 215 101 259 111 335 c 0
 126 438 244 476 350 479 c 1
 344 441 l 1
 305 427 264 410 257 369 c 0
 247 311 322 298 366 279 c 0
 428 251 477 203 468 130 c 0
 454 28 349 -23 252 -23 c 0
 154 -23 84 17 39 76 c 1
 123 173 l 1
EndSplineSet
EndChar

StartChar: dieresis
Encoding: 168 168 102
Width: 496
VWidth: 0
Flags: HMW
LayerCount: 2
Fore
SplineSet
360 632 m 0
 365 677 411 714 457 713 c 0
 504 712 540 676 534 630 c 0
 529 585 483 549 437 550 c 0
 390 551 354 586 360 632 c 0
123 632 m 0
 128 677 174 714 220 713 c 0
 267 712 303 676 297 630 c 0
 292 585 246 549 200 550 c 0
 153 551 117 586 123 632 c 0
EndSplineSet
EndChar

StartChar: copyright
Encoding: 169 169 103
Width: 776
VWidth: 0
Flags: HMW
LayerCount: 2
Fore
SplineSet
319 350 m 0
 309 281 348 230 417 229 c 0
 472 228 516 255 550 283 c 1
 535 172 l 1
 498 147 459 131 404 131 c 0
 275 131 192 227 208 350 c 0
 224 476 333 568 464 569 c 0
 518 569 553 554 588 527 c 1
 574 417 l 1
 548 448 513 472 462 472 c 0
 392 472 330 421 319 350 c 0
130 350 m 0
 106 189 201 41 373 40 c 0
 548 39 694 181 720 350 c 0
 744 511 648 659 477 660 c 0
 303 661 156 519 130 350 c 0
74 350 m 0
 101 550 271 710 475 710 c 0
 676 710 800 543 775 350 c 0
 748 150 578 -10 374 -10 c 0
 173 -10 49 157 74 350 c 0
EndSplineSet
EndChar

StartChar: registered
Encoding: 174 174 104
Width: 776
VWidth: 0
Flags: HMW
LayerCount: 2
Fore
SplineSet
399 327 m 1
 489 327 l 1
 577 150 l 1
 462 150 l 1
 399 327 l 1
316 570 m 1
 417 570 l 1
 352 150 l 1
 251 150 l 1
 316 570 l 1
365 484 m 1
 378 570 l 1
 462 570 l 1
 554 568 615 518 605 438 c 0
 594 355 523 304 428 302 c 1
 335 302 l 1
 348 380 l 1
 426 380 l 1
 462 382 495 399 500 433 c 0
 504 465 481 482 448 484 c 1
 365 484 l 1
130 350 m 0
 106 189 201 41 373 40 c 0
 548 39 694 181 720 350 c 0
 744 511 648 659 477 660 c 0
 303 661 156 519 130 350 c 0
74 350 m 0
 101 550 271 710 475 710 c 0
 676 710 800 543 775 350 c 0
 748 150 578 -10 374 -10 c 0
 173 -10 49 157 74 350 c 0
EndSplineSet
EndChar

StartChar: ordfeminine
Encoding: 170 170 105
Width: 261
VWidth: 0
Flags: HMW
LayerCount: 2
Fore
SplineSet
155 529 m 0
 153 515 164 506 180 505 c 0
 208 505 232 524 240 553 c 1
 243 524 l 1
 231 484 200 455 152 456 c 0
 107 457 73 485 79 529 c 0
 86 575 135 603 186 603 c 0
 218 603 244 592 261 579 c 1
 255 543 l 1
 239 554 225 562 202 562 c 0
 181 562 158 547 155 529 c 0
143 624 m 1
 126 680 l 1
 155 692 190 705 229 705 c 0
 283 705 328 680 324 630 c 1
 296 460 l 1
 223 460 l 1
 251 611 l 1
 250 629 241 642 219 644 c 0
 190 646 160 632 143 624 c 1
EndSplineSet
EndChar

StartChar: ordmasculine
Encoding: 186 186 106
Width: 269
VWidth: 0
Flags: HMW
LayerCount: 2
Fore
SplineSet
89 581 m 0
 99 650 162 700 234 700 c 0
 306 700 356 649 347 579 c 0
 337 510 273 460 201 460 c 0
 129 460 80 511 89 581 c 0
166 580 m 0
 162 552 177 525 205 524 c 0
 234 523 265 550 269 580 c 0
 273 608 258 636 230 637 c 0
 201 638 170 610 166 580 c 0
EndSplineSet
EndChar

StartChar: guillemotleft
Encoding: 171 171 107
Width: 524
VWidth: 0
Flags: HMW
LayerCount: 2
Fore
SplineSet
359 256 m 1
 472 62 l 1
 372 0 l 1
 241 260 l 1
 454 509 l 1
 538 441 l 1
 359 256 l 1
161 256 m 1
 274 62 l 1
 174 0 l 1
 43 260 l 1
 255 509 l 1
 340 441 l 1
 161 256 l 1
EndSplineSet
EndChar

StartChar: guillemotright
Encoding: 187 187 108
Width: 524
VWidth: 0
Flags: HMW
LayerCount: 2
Fore
SplineSet
199 254 m 1
 86 448 l 1
 187 510 l 1
 317 250 l 1
 105 1 l 1
 20 69 l 1
 199 254 l 1
398 254 m 1
 285 448 l 1
 385 510 l 1
 516 250 l 1
 303 1 l 1
 219 69 l 1
 398 254 l 1
EndSplineSet
EndChar

StartChar: uni00AD
Encoding: 173 173 109
Width: 203
VWidth: 0
Flags: HMW
LayerCount: 2
Fore
SplineSet
12 200 m 1
 24 275 l 1
 221 275 l 1
 209 200 l 1
 12 200 l 1
EndSplineSet
EndChar

StartChar: logicalnot
Encoding: 172 172 110
Width: 631
VWidth: 0
Flags: HMW
LayerCount: 2
Fore
SplineSet
83 272 m 1
 104 404 l 1
 613 404 l 1
 572 175 l 1
 467 175 l 1
 486 272 l 1
 83 272 l 1
EndSplineSet
EndChar

StartChar: macron
Encoding: 175 175 111
Width: 515
VWidth: 0
Flags: HMW
LayerCount: 2
Fore
SplineSet
147 572 m 1
 168 704 l 1
 532 704 l 1
 511 572 l 1
 147 572 l 1
EndSplineSet
EndChar

StartChar: degree
Encoding: 176 176 112
Width: 286
VWidth: 0
Flags: HMW
LayerCount: 2
Fore
SplineSet
90 597 m 0
 100 666 162 720 235 720 c 0
 308 720 356 666 347 596 c 0
 337 527 274 474 201 474 c 0
 128 474 81 528 90 597 c 0
164 596 m 0
 160 567 176 540 206 539 c 0
 237 538 268 566 273 597 c 0
 277 626 261 654 231 655 c 0
 200 656 169 627 164 596 c 0
EndSplineSet
EndChar

StartChar: plusminus
Encoding: 177 177 113
Width: 613
VWidth: 0
Flags: HMW
LayerCount: 2
Fore
SplineSet
46 6 m 1
 66 137 l 1
 558 137 l 1
 538 6 l 1
 46 6 l 1
96 332 m 1
 118 469 l 1
 609 469 l 1
 588 332 l 1
 96 332 l 1
310 620 m 1
 463 620 l 1
 394 182 l 1
 243 182 l 1
 310 620 l 1
EndSplineSet
EndChar

StartChar: uni00B2
Encoding: 178 178 114
Width: 396
VWidth: 0
Flags: HMW
LayerCount: 2
Fore
SplineSet
42 283 m 1
 256 476 l 2
 288 506 323 533 329 570 c 0
 332 595 319 621 287 623 c 0
 246 626 219 585 210 547 c 1
 110 548 l 1
 128 635 192 712 297 711 c 0
 387 711 444 647 433 575 c 0
 426 529 395 492 358 463 c 2
 249 376 l 1
 409 375 l 1
 393 282 l 1
 42 283 l 1
EndSplineSet
EndChar

StartChar: uni00B3
Encoding: 179 179 115
Width: 353
VWidth: 0
Flags: HMW
LayerCount: 2
Fore
SplineSet
205 484 m 1
 212 529 l 1
 252 533 293 552 299 586 c 0
 302 608 288 625 262 626 c 0
 231 626 209 602 201 577 c 1
 105 578 l 1
 122 651 183 708 269 708 c 0
 350 708 409 659 398 590 c 0
 385 511 293 486 205 484 c 1
198 271 m 0
 103 271 55 336 59 414 c 1
 157 414 l 1
 157 379 171 354 207 353 c 0
 239 352 273 374 277 406 c 0
 285 446 246 461 200 464 c 1
 209 514 l 1
 301 512 389 484 376 394 c 0
 365 318 288 271 198 271 c 0
EndSplineSet
EndChar

StartChar: acute
Encoding: 180 180 116
Width: 363
VWidth: 0
Flags: HMW
LayerCount: 2
Fore
SplineSet
394 651 m 1
 199 504 l 1
 117 549 l 1
 285 706 l 1
 394 651 l 1
EndSplineSet
EndChar

StartChar: mu
Encoding: 181 181 117
Width: 557
VWidth: 0
Flags: HMW
LayerCount: 2
Fore
SplineSet
324 0 m 1
 403 460 l 1
 554 460 l 1
 475 0 l 1
 324 0 l 1
215 180 m 1
 211 137 215 100 262 97 c 0
 310 94 344 135 355 179 c 1
 387 185 l 1
 369 83 307 -10 193 -10 c 0
 83 -10 45 63 57 164 c 1
 108 460 l 1
 265 460 l 1
 215 180 l 1
107 460 m 1
 253 460 l 1
 119 -320 l 1
 -25 -320 l 1
 107 460 l 1
EndSplineSet
EndChar

StartChar: paragraph
Encoding: 182 182 118
Width: 651
VWidth: 0
Flags: HMW
LayerCount: 2
Fore
SplineSet
354 606 m 1
 371 700 l 1
 598 700 l 1
 582 606 l 1
 354 606 l 1
557 700 m 1
 689 700 l 1
 532 -220 l 1
 400 -220 l 1
 557 700 l 1
371 700 m 1
 503 700 l 1
 345 -220 l 1
 214 -220 l 1
 371 700 l 1
301 270 m 1
 179 276 94 356 113 486 c 0
 134 621 243 700 371 700 c 1
 301 270 l 1
EndSplineSet
EndChar

StartChar: periodcentered
Encoding: 183 183 119
Width: 312
VWidth: 0
Flags: HMW
LayerCount: 2
Fore
SplineSet
82 270 m 0
 88 319 136 362 188 361 c 0
 241 360 274 317 268 268 c 0
 262 219 215 175 163 176 c 0
 110 177 76 221 82 270 c 0
EndSplineSet
EndChar

StartChar: uni00B9
Encoding: 185 185 120
Width: 467
VWidth: 0
Flags: HMW
LayerCount: 2
Fore
SplineSet
198 571 m 1
 213 661 l 1
 421 703 l 1
 347 274 l 1
 248 274 l 1
 304 596 l 1
 198 571 l 1
EndSplineSet
EndChar

StartChar: cedilla
Encoding: 184 184 121
Width: 381
VWidth: 0
Flags: HMW
LayerCount: 2
Fore
SplineSet
159 71 m 1
 273 67 l 1
 164 -55 l 1
 174 -52 186 -51 198 -51 c 0
 244 -54 282 -93 275 -150 c 0
 266 -219 195 -256 132 -257 c 0
 79 -258 38 -245 -6 -217 c 1
 46 -150 l 1
 69 -166 97 -175 119 -175 c 0
 146 -175 178 -162 180 -139 c 0
 182 -115 153 -107 130 -107 c 0
 111 -106 77 -113 45 -123 c 1
 159 71 l 1
EndSplineSet
EndChar

StartChar: questiondown
Encoding: 191 191 122
Width: 608
VWidth: 0
Flags: HMW
LayerCount: 2
Fore
SplineSet
208 200 m 0
 199 145 236 111 298 110 c 0
 362 109 423 147 466 196 c 1
 556 109 l 1
 479 33 390 -20 275 -19 c 0
 148 -18 39 68 58 200 c 0
 77 322 189 392 300 415 c 1
 319 498 l 1
 443 498 l 1
 434 320 l 1
 403 320 l 1
 305 318 222 265 208 200 c 0
499 640 m 0
 493 596 445 557 395 558 c 0
 345 559 307 597 313 642 c 0
 319 686 367 725 417 724 c 0
 467 723 505 685 499 640 c 0
EndSplineSet
EndChar

StartChar: multiply
Encoding: 215 215 123
Width: 578
VWidth: 0
Flags: HMW
LayerCount: 2
Fore
SplineSet
112 2 m 1
 34 101 l 1
 219 258 l 1
 88 417 l 1
 192 508 l 1
 318 346 l 1
 499 508 l 1
 577 409 l 1
 392 252 l 1
 523 93 l 1
 419 2 l 1
 293 164 l 1
 112 2 l 1
EndSplineSet
EndChar

StartChar: Oslash
Encoding: 216 216 124
Width: 766
VWidth: 0
Flags: HMW
LayerCount: 2
Fore
SplineSet
241 350 m 0
 224 241 272 142 390 141 c 0
 509 140 601 234 621 350 c 0
 638 459 590 558 472 559 c 0
 353 560 261 466 241 350 c 0
64 350 m 0
 95 558 274 716 489 716 c 0
 700 716 828 551 799 350 c 0
 768 142 589 -23 373 -23 c 0
 161 -23 35 149 64 350 c 0
775 756 m 1
 840 700 l 1
 82 -56 l 1
 19 -3 l 1
 775 756 l 1
EndSplineSet
EndChar

StartChar: Thorn
Encoding: 222 222 125
Width: 594
VWidth: 0
Flags: HMW
LayerCount: 2
Fore
SplineSet
168 700 m 1
 316 700 l 1
 196 0 l 1
 49 0 l 1
 168 700 l 1
216 445 m 1
 240 579 l 1
 368 579 l 1
 525 577 623 495 601 353 c 0
 579 209 464 129 302 127 c 1
 162 127 l 1
 186 261 l 1
 315 261 l 1
 385 263 441 287 453 353 c 0
 464 417 421 443 355 445 c 1
 216 445 l 1
EndSplineSet
EndChar

StartChar: divide
Encoding: 247 247 126
Width: 620
VWidth: 0
Flags: HMW
LayerCount: 2
Fore
SplineSet
284 555 m 0
 290 604 338 648 390 647 c 0
 443 646 477 602 471 553 c 0
 465 504 418 461 366 462 c 0
 313 463 278 506 284 555 c 0
207 100 m 0
 213 149 260 192 312 191 c 0
 365 190 399 147 393 98 c 0
 387 49 339 5 287 6 c 0
 234 7 201 51 207 100 c 0
40 260 m 1
 64 397 l 1
 638 397 l 1
 614 260 l 1
 40 260 l 1
EndSplineSet
EndChar

StartChar: oslash
Encoding: 248 248 127
Width: 529
VWidth: 0
Flags: HMW
LayerCount: 2
Fore
SplineSet
42 230 m 0
 63 375 189 470 335 470 c 0
 478 470 576 372 556 230 c 0
 535 85 408 -10 262 -10 c 0
 119 -10 22 88 42 230 c 0
184 230 m 0
 174 164 208 111 274 110 c 0
 341 109 403 161 414 230 c 0
 424 291 388 349 323 350 c 0
 257 351 196 296 184 230 c 0
497 506 m 1
 553 470 l 1
 87 -50 l 1
 33 -16 l 1
 497 506 l 1
EndSplineSet
EndChar

StartChar: circumflex
Encoding: 710 710 128
Width: 465
VWidth: 0
Flags: HMW
LayerCount: 2
Fore
SplineSet
316 628 m 1
 214 544 l 1
 118 618 l 1
 331 755 l 1
 503 613 l 1
 390 543 l 1
 316 628 l 1
EndSplineSet
EndChar

StartChar: ogonek
Encoding: 731 731 129
Width: 252
VWidth: 0
Flags: HMW
LayerCount: 2
Fore
SplineSet
153 -110 m 1
 176 -181 l 1
 153 -201 122 -220 75 -220 c 0
 13 -220 -34 -182 -27 -119 c 0
 -18 -49 61 -8 127 25 c 1
 167 0 l 1
 124 -26 80 -56 74 -94 c 0
 72 -114 80 -128 101 -130 c 0
 120 -132 139 -120 153 -110 c 1
EndSplineSet
EndChar

StartChar: tilde
Encoding: 732 732 130
Width: 514
VWidth: 0
Flags: HMW
LayerCount: 2
Fore
SplineSet
152 639 m 1
 172 686 218 734 280 732 c 0
 335 731 355 679 405 681 c 0
 434 682 456 707 477 733 c 1
 540 657 l 1
 514 619 459 571 399 573 c 0
 350 575 318 628 271 625 c 0
 238 623 225 593 217 575 c 1
 152 639 l 1
EndSplineSet
EndChar

StartChar: ring
Encoding: 730 730 131
Width: 317
VWidth: 0
Flags: HMW
LayerCount: 2
Fore
SplineSet
141 770 m 0
 150 835 212 884 279 884 c 0
 346 884 395 834 386 768 c 0
 377 702 314 654 247 654 c 0
 180 654 132 705 141 770 c 0
218 768 m 0
 215 745 229 723 252 722 c 0
 276 720 305 745 308 770 c 0
 311 793 296 816 273 817 c 0
 249 819 221 793 218 768 c 0
EndSplineSet
EndChar

StartChar: dotaccent
Encoding: 729 729 132
Width: 291
VWidth: 0
Flags: HMW
LayerCount: 2
Fore
SplineSet
170 815 m 0
 176 860 222 896 268 895 c 0
 315 894 350 858 344 812 c 0
 338 767 292 731 246 732 c 0
 199 733 164 769 170 815 c 0
EndSplineSet
EndChar

StartChar: uni2010
Encoding: 8208 8208 133
Width: 215
VWidth: 0
Flags: HMW
LayerCount: 2
Fore
SplineSet
6 172 m 1
 28 304 l 1
 238 304 l 1
 215 172 l 1
 6 172 l 1
EndSplineSet
EndChar

StartChar: endash
Encoding: 8211 8211 134
Width: 760
VWidth: 0
Flags: HMW
LayerCount: 2
Fore
SplineSet
69 172 m 1
 91 304 l 1
 714 304 l 1
 691 172 l 1
 69 172 l 1
EndSplineSet
EndChar

StartChar: figuredash
Encoding: 8210 8210 135
Width: 608
VWidth: 0
Flags: HMW
LayerCount: 2
Fore
SplineSet
69 172 m 1
 91 304 l 1
 559 304 l 1
 536 172 l 1
 69 172 l 1
EndSplineSet
EndChar

StartChar: emdash
Encoding: 8212 8212 136
Width: 911
VWidth: 0
Flags: HMW
LayerCount: 2
Fore
SplineSet
69 172 m 1
 91 304 l 1
 868 304 l 1
 845 172 l 1
 69 172 l 1
EndSplineSet
EndChar

StartChar: minus
Encoding: 8722 8722 137
Width: 575
VWidth: 0
Flags: HMW
LayerCount: 2
Fore
SplineSet
56 172 m 1
 79 304 l 1
 546 304 l 1
 524 172 l 1
 56 172 l 1
EndSplineSet
EndChar

StartChar: quoteright
Encoding: 8217 8217 138
Width: 321
VWidth: 0
Flags: HMW
LayerCount: 2
Fore
SplineSet
191 700 m 1
 351 700 l 1
 206 445 l 1
 95 445 l 1
 191 700 l 1
EndSplineSet
EndChar

StartChar: quoteleft
Encoding: 8216 8216 139
Width: 321
VWidth: 0
Flags: HMW
LayerCount: 2
Fore
SplineSet
272 445 m 1
 113 445 l 1
 258 699 l 1
 369 699 l 1
 272 445 l 1
EndSplineSet
EndChar

StartChar: quotesinglbase
Encoding: 8218 8218 140
Width: 321
VWidth: 0
Flags: HMW
LayerCount: 2
Fore
SplineSet
95 80 m 1
 254 80 l 1
 109 -175 l 1
 -1 -175 l 1
 95 80 l 1
EndSplineSet
EndChar

StartChar: quotedblleft
Encoding: 8220 8220 141
Width: 545
VWidth: 0
Flags: HMW
LayerCount: 2
Fore
SplineSet
272 445 m 1
 113 445 l 1
 258 699 l 1
 369 699 l 1
 272 445 l 1
497 445 m 1
 338 445 l 1
 483 699 l 1
 593 699 l 1
 497 445 l 1
EndSplineSet
EndChar

StartChar: quotedblright
Encoding: 8221 8221 142
Width: 545
VWidth: 0
Flags: HMW
LayerCount: 2
Fore
SplineSet
191 700 m 1
 351 700 l 1
 206 445 l 1
 95 445 l 1
 191 700 l 1
416 700 m 1
 575 700 l 1
 431 445 l 1
 319 445 l 1
 416 700 l 1
EndSplineSet
EndChar

StartChar: perthousand
Encoding: 8240 8240 143
Width: 1336
VWidth: 0
Flags: HMW
LayerCount: 2
Fore
SplineSet
947 167 m 0
 961 267 1054 351 1160 351 c 0
 1265 351 1332 263 1318 166 c 0
 1304 66 1212 -19 1106 -19 c 0
 1001 -19 933 70 947 167 c 0
1070 166 m 0
 1066 135 1084 103 1119 101 c 0
 1155 99 1190 134 1195 167 c 0
 1199 198 1182 230 1147 232 c 0
 1111 234 1075 199 1070 166 c 0
84 534 m 0
 98 634 190 719 296 719 c 0
 401 719 469 630 455 533 c 0
 441 433 349 350 243 350 c 0
 138 350 70 437 84 534 c 0
207 533 m 0
 203 502 221 471 256 469 c 0
 292 467 327 502 332 535 c 0
 336 566 319 598 284 600 c 0
 248 602 212 566 207 533 c 0
505 167 m 0
 519 267 611 351 717 351 c 0
 822 351 889 263 875 166 c 0
 861 66 769 -19 663 -19 c 0
 558 -19 491 70 505 167 c 0
628 166 m 0
 624 135 641 103 676 101 c 0
 712 99 748 134 753 167 c 0
 757 198 740 230 705 232 c 0
 669 234 633 199 628 166 c 0
721 700 m 1
 882 700 l 1
 238 0 l 1
 79 0 l 1
 721 700 l 1
EndSplineSet
EndChar

StartChar: guilsinglleft
Encoding: 8249 8249 144
Width: 339
VWidth: 0
Flags: HMW
LayerCount: 2
Fore
SplineSet
161 256 m 1
 274 62 l 1
 174 0 l 1
 43 260 l 1
 255 509 l 1
 340 441 l 1
 161 256 l 1
EndSplineSet
EndChar

StartChar: guilsinglright
Encoding: 8250 8250 145
Width: 339
VWidth: 0
Flags: HMW
LayerCount: 2
Fore
SplineSet
212 254 m 1
 99 448 l 1
 198 510 l 1
 330 250 l 1
 118 1 l 1
 33 69 l 1
 212 254 l 1
EndSplineSet
EndChar

StartChar: uni2031
Encoding: 8241 8241 146
Width: 1779
VWidth: 0
Flags: HMW
LayerCount: 2
Fore
SplineSet
1390 167 m 0
 1404 267 1496 351 1602 351 c 0
 1707 351 1775 263 1761 166 c 0
 1747 66 1655 -19 1549 -19 c 0
 1444 -19 1376 70 1390 167 c 0
1513 166 m 0
 1509 135 1526 103 1561 101 c 0
 1597 99 1633 134 1638 167 c 0
 1642 198 1625 230 1590 232 c 0
 1554 234 1518 199 1513 166 c 0
947 167 m 0
 961 267 1054 351 1160 351 c 0
 1265 351 1332 263 1318 166 c 0
 1304 66 1212 -19 1106 -19 c 0
 1001 -19 933 70 947 167 c 0
1070 166 m 0
 1066 135 1084 103 1119 101 c 0
 1155 99 1190 134 1195 167 c 0
 1199 198 1182 230 1147 232 c 0
 1111 234 1075 199 1070 166 c 0
84 534 m 0
 98 634 190 719 296 719 c 0
 401 719 469 630 455 533 c 0
 441 433 349 350 243 350 c 0
 138 350 70 437 84 534 c 0
207 533 m 0
 203 502 221 471 256 469 c 0
 292 467 327 502 332 535 c 0
 336 566 319 598 284 600 c 0
 248 602 212 566 207 533 c 0
505 167 m 0
 519 267 611 351 717 351 c 0
 822 351 889 263 875 166 c 0
 861 66 769 -19 663 -19 c 0
 558 -19 491 70 505 167 c 0
628 166 m 0
 624 135 641 103 676 101 c 0
 712 99 748 134 753 167 c 0
 757 198 740 230 705 232 c 0
 669 234 633 199 628 166 c 0
721 700 m 1
 882 700 l 1
 238 0 l 1
 79 0 l 1
 721 700 l 1
EndSplineSet
EndChar

StartChar: uni203D
Encoding: 8253 8253 147
Width: 608
VWidth: 0
Flags: HMW
LayerCount: 2
Fore
SplineSet
476 481 m 0
 488 550 443 590 370 590 c 0
 305 591 247 559 208 505 c 1
 118 591 l 1
 180 663 280 719 398 718 c 0
 525 717 636 632 617 500 c 0
 595 352 434 282 307 277 c 1
 299 349 l 1
 380 355 461 402 476 481 c 0
267 504 m 1
 413 503 l 1
 333 202 l 1
 242 202 l 1
 267 504 l 1
175 63 m 0
 181 110 230 149 281 148 c 0
 333 147 369 109 363 61 c 0
 357 14 309 -25 258 -24 c 0
 206 -23 169 15 175 63 c 0
EndSplineSet
EndChar

StartChar: Euro
Encoding: 8364 8364 148
Width: 636
VWidth: 0
Flags: HMW
LayerCount: 2
Fore
SplineSet
89 381 m 1
 104 465 l 1
 584 465 l 1
 568 381 l 1
 89 381 l 1
53 250 m 1
 68 334 l 1
 542 334 l 1
 527 250 l 1
 53 250 l 1
277 350 m 0
 263 236 283 123 391 121 c 0
 450 120 504 147 550 182 c 1
 527 21 l 1
 481 -3 430 -19 376 -19 c 0
 178 -19 106 169 130 350 c 0
 158 543 296 720 494 720 c 0
 546 720 592 704 636 679 c 1
 612 517 l 1
 576 555 533 579 479 579 c 0
 370 579 296 476 277 350 c 0
EndSplineSet
EndChar

StartChar: fraction
Encoding: 8260 8260 149
Width: 707
VWidth: 0
Flags: HMW
LayerCount: 2
Fore
SplineSet
651 699 m 1
 777 699 l 1
 153 0 l 1
 27 0 l 1
 651 699 l 1
EndSplineSet
EndChar

StartChar: onequarter
Encoding: 188 188 150
Width: 798
VWidth: 0
Flags: HMW
LayerCount: 2
Fore
SplineSet
701 699 m 1
 802 699 l 1
 177 0 l 1
 77 0 l 1
 701 699 l 1
92 571 m 1
 108 661 l 1
 315 703 l 1
 241 274 l 1
 142 274 l 1
 197 596 l 1
 92 571 l 1
377 75 m 1
 470 148 l 1
 650 148 l 1
 663 162 l 1
 772 161 l 1
 756 75 l 1
 377 75 l 1
489 105 m 1
 373 72 l 1
 673 419 l 1
 752 420 l 1
 680 0 l 1
 574 0 l 1
 590 96 l 1
 602 102 l 1
 630 265 l 1
 489 105 l 1
EndSplineSet
EndChar

StartChar: onehalf
Encoding: 189 189 151
Width: 868
VWidth: 0
Flags: HMW
LayerCount: 2
Fore
SplineSet
701 699 m 1
 802 699 l 1
 177 0 l 1
 77 0 l 1
 701 699 l 1
92 571 m 1
 108 661 l 1
 315 703 l 1
 241 274 l 1
 142 274 l 1
 197 596 l 1
 92 571 l 1
461 3 m 1
 675 196 l 2
 707 226 742 253 748 290 c 0
 751 315 738 341 706 343 c 0
 665 346 638 305 629 267 c 1
 528 268 l 1
 546 355 611 432 716 431 c 0
 806 431 863 367 852 295 c 0
 845 249 814 212 777 183 c 2
 668 96 l 1
 828 95 l 1
 811 2 l 1
 461 3 l 1
EndSplineSet
EndChar

StartChar: threequarters
Encoding: 190 190 152
Width: 852
VWidth: 0
Flags: HMW
LayerCount: 2
Fore
SplineSet
762 699 m 1
 864 699 l 1
 239 0 l 1
 139 0 l 1
 762 699 l 1
214 484 m 1
 220 529 l 1
 260 533 300 552 306 586 c 0
 309 608 296 625 270 626 c 0
 239 626 216 602 208 577 c 1
 113 578 l 1
 130 651 191 708 277 708 c 0
 358 708 417 659 406 590 c 0
 393 511 302 486 214 484 c 1
206 271 m 0
 111 271 63 336 67 414 c 1
 165 414 l 1
 165 379 179 354 215 353 c 0
 247 352 281 374 285 406 c 0
 293 446 254 461 208 464 c 1
 217 514 l 1
 309 512 397 484 384 394 c 0
 373 318 296 271 206 271 c 0
432 75 m 1
 526 148 l 1
 705 148 l 1
 718 162 l 1
 828 161 l 1
 813 75 l 1
 432 75 l 1
545 105 m 1
 429 72 l 1
 729 419 l 1
 808 420 l 1
 735 0 l 1
 630 0 l 1
 646 96 l 1
 658 102 l 1
 686 265 l 1
 545 105 l 1
EndSplineSet
EndChar

StartChar: uni2150
Encoding: 8528 8528 153
Width: 914
VWidth: 0
Flags: HMW
LayerCount: 2
Fore
SplineSet
677 699 m 1
 802 699 l 1
 178 0 l 1
 53 0 l 1
 677 699 l 1
92 571 m 1
 108 661 l 1
 315 703 l 1
 241 274 l 1
 142 274 l 1
 197 596 l 1
 92 571 l 1
588 325 m 1
 604 420 l 1
 942 420 l 1
 673 0 l 1
 561 0 l 1
 773 324 l 1
 588 325 l 1
EndSplineSet
EndChar

StartChar: uni2151
Encoding: 8529 8529 154
Width: 858
VWidth: 0
Flags: HMW
LayerCount: 2
Fore
SplineSet
671 699 m 1
 796 699 l 1
 172 0 l 1
 47 0 l 1
 671 699 l 1
92 571 m 1
 108 661 l 1
 315 703 l 1
 241 274 l 1
 142 274 l 1
 197 596 l 1
 92 571 l 1
758 275 m 0
 763 312 744 343 706 344 c 0
 667 346 627 313 622 274 c 0
 617 237 638 206 676 204 c 0
 715 202 753 236 758 275 c 0
650 5 m 1
 516 5 l 1
 674 154 l 1
 699 162 l 1
 677 145 658 138 630 138 c 0
 562 139 514 201 523 275 c 0
 535 372 620 431 713 431 c 0
 805 431 873 369 859 274 c 0
 852 228 822 190 792 157 c 1
 650 5 l 1
EndSplineSet
EndChar

StartChar: uni2152
Encoding: 8530 8530 155
Width: 1176
VWidth: 0
Flags: HMW
LayerCount: 2
Fore
SplineSet
671 699 m 1
 796 699 l 1
 172 0 l 1
 47 0 l 1
 671 699 l 1
92 571 m 1
 108 661 l 1
 315 703 l 1
 241 274 l 1
 142 274 l 1
 197 596 l 1
 92 571 l 1
558 298 m 1
 573 388 l 1
 781 430 l 1
 706 1 l 1
 608 1 l 1
 663 323 l 1
 558 298 l 1
910 210 m 0
 904 154 905 82 958 80 c 0
 1011 78 1049 148 1058 210 c 0
 1064 266 1063 338 1010 340 c 0
 957 342 919 272 910 210 c 0
813 210 m 0
 828 329 906 428 1016 428 c 0
 1130 428 1169 324 1155 210 c 0
 1139 91 1064 -8 951 -8 c 0
 839 -8 799 96 813 210 c 0
EndSplineSet
EndChar

StartChar: onethird
Encoding: 8531 8531 156
Width: 849
VWidth: 0
Flags: HMW
LayerCount: 2
Fore
SplineSet
670 699 m 1
 795 699 l 1
 172 0 l 1
 46 0 l 1
 670 699 l 1
92 571 m 1
 108 661 l 1
 315 703 l 1
 241 274 l 1
 142 274 l 1
 197 596 l 1
 92 571 l 1
648 204 m 1
 655 249 l 1
 695 253 736 272 742 306 c 0
 745 328 732 345 706 346 c 0
 675 346 651 322 643 297 c 1
 548 298 l 1
 565 371 626 428 712 428 c 0
 793 428 852 379 841 310 c 0
 828 231 736 206 648 204 c 1
641 -9 m 0
 546 -9 498 56 502 134 c 1
 600 134 l 1
 600 99 615 74 651 73 c 0
 683 72 716 94 720 126 c 0
 728 166 690 181 644 184 c 1
 651 234 l 1
 743 232 833 204 820 114 c 0
 809 38 731 -9 641 -9 c 0
EndSplineSet
EndChar

StartChar: twothirds
Encoding: 8532 8532 157
Width: 978
VWidth: 0
Flags: HMW
LayerCount: 2
Fore
SplineSet
812 699 m 1
 938 699 l 1
 314 0 l 1
 188 0 l 1
 812 699 l 1
47 283 m 1
 261 476 l 2
 293 506 328 533 334 570 c 0
 337 595 324 621 292 623 c 0
 251 626 224 585 215 547 c 1
 114 548 l 1
 132 635 197 712 302 711 c 0
 392 711 449 647 438 575 c 0
 431 529 399 492 362 463 c 2
 254 376 l 1
 414 375 l 1
 398 282 l 1
 47 283 l 1
777 204 m 1
 785 249 l 1
 825 253 865 272 871 306 c 0
 874 328 861 345 835 346 c 0
 804 346 781 322 773 297 c 1
 678 298 l 1
 695 371 755 428 841 428 c 0
 922 428 981 379 970 310 c 0
 957 231 865 206 777 204 c 1
771 -9 m 0
 676 -9 627 56 631 134 c 1
 729 134 l 1
 729 99 744 74 780 73 c 0
 812 72 845 94 849 126 c 0
 857 166 819 181 773 184 c 1
 781 234 l 1
 873 232 962 204 949 114 c 0
 938 38 861 -9 771 -9 c 0
EndSplineSet
EndChar

StartChar: uni2155
Encoding: 8533 8533 158
Width: 838
VWidth: 0
Flags: HMW
LayerCount: 2
Fore
SplineSet
671 699 m 1
 796 699 l 1
 172 0 l 1
 47 0 l 1
 671 699 l 1
92 571 m 1
 108 661 l 1
 315 703 l 1
 241 274 l 1
 142 274 l 1
 197 596 l 1
 92 571 l 1
814 132 m 0
 802 39 711 -10 628 -10 c 0
 559 -10 510 14 469 45 c 1
 518 128 l 1
 547 102 579 84 613 84 c 0
 656 84 701 105 706 145 c 0
 710 182 675 200 640 201 c 0
 603 203 561 192 519 176 c 1
 591 226 l 1
 625 254 664 271 707 270 c 0
 778 269 824 208 814 132 c 0
678 329 m 1
 624 224 l 1
 512 171 l 1
 614 418 l 1
 854 418 l 1
 838 330 l 1
 678 329 l 1
EndSplineSet
EndChar

StartChar: uni2156
Encoding: 8534 8534 159
Width: 976
VWidth: 0
Flags: HMW
LayerCount: 2
Fore
SplineSet
812 699 m 1
 938 699 l 1
 314 0 l 1
 188 0 l 1
 812 699 l 1
47 283 m 1
 261 476 l 2
 293 506 328 533 334 570 c 0
 337 595 324 621 292 623 c 0
 251 626 224 585 215 547 c 1
 114 548 l 1
 132 635 197 712 302 711 c 0
 392 711 449 647 438 575 c 0
 431 529 399 492 362 463 c 2
 254 376 l 1
 414 375 l 1
 398 282 l 1
 47 283 l 1
943 132 m 0
 931 39 840 -10 757 -10 c 0
 688 -10 639 14 598 45 c 1
 648 128 l 1
 677 102 708 84 742 84 c 0
 785 84 830 105 835 145 c 0
 839 182 805 200 770 201 c 0
 733 203 689 192 647 176 c 1
 721 226 l 1
 755 254 794 271 837 270 c 0
 908 269 953 208 943 132 c 0
807 329 m 1
 753 224 l 1
 641 171 l 1
 744 418 l 1
 984 418 l 1
 968 330 l 1
 807 329 l 1
EndSplineSet
EndChar

StartChar: uni2157
Encoding: 8535 8535 160
Width: 903
VWidth: 0
Flags: HMW
LayerCount: 2
Fore
SplineSet
743 699 m 1
 868 699 l 1
 244 0 l 1
 119 0 l 1
 743 699 l 1
210 484 m 1
 217 529 l 1
 257 533 297 552 303 586 c 0
 306 608 293 625 267 626 c 0
 236 626 213 602 205 577 c 1
 110 578 l 1
 127 651 187 708 273 708 c 0
 354 708 414 659 403 590 c 0
 390 511 298 486 210 484 c 1
203 271 m 0
 108 271 60 336 64 414 c 1
 162 414 l 1
 162 379 176 354 212 353 c 0
 244 352 278 374 282 406 c 0
 290 446 251 461 205 464 c 1
 214 514 l 1
 306 512 394 484 381 394 c 0
 370 318 293 271 203 271 c 0
867 132 m 0
 855 39 764 -10 681 -10 c 0
 612 -10 563 14 522 45 c 1
 572 128 l 1
 601 102 632 84 666 84 c 0
 709 84 754 105 759 145 c 0
 763 182 729 200 694 201 c 0
 657 203 614 192 572 176 c 1
 645 226 l 1
 679 254 718 271 761 270 c 0
 832 269 877 208 867 132 c 0
731 329 m 1
 678 224 l 1
 566 171 l 1
 668 418 l 1
 908 418 l 1
 892 330 l 1
 731 329 l 1
EndSplineSet
EndChar

StartChar: uni2158
Encoding: 8536 8536 161
Width: 987
VWidth: 0
Flags: HMW
LayerCount: 2
Fore
SplineSet
801 699 m 1
 926 698 l 1
 303 -0 l 1
 178 -0 l 1
 801 699 l 1
51 355 m 1
 144 428 l 1
 324 428 l 1
 337 442 l 1
 446 441 l 1
 430 355 l 1
 51 355 l 1
163 385 m 1
 47 352 l 1
 347 699 l 1
 426 700 l 1
 354 280 l 1
 248 280 l 1
 264 376 l 1
 276 382 l 1
 304 545 l 1
 163 385 l 1
956 131 m 0
 944 38 853 -10 770 -10 c 0
 701 -10 652 13 611 44 c 1
 661 127 l 1
 690 101 722 84 756 84 c 0
 799 84 844 104 849 144 c 0
 853 181 819 200 784 201 c 0
 747 203 703 192 661 176 c 1
 735 225 l 1
 769 253 807 270 850 269 c 0
 921 268 966 207 956 131 c 0
820 329 m 1
 766 223 l 1
 655 170 l 1
 757 417 l 1
 997 417 l 1
 981 329 l 1
 820 329 l 1
EndSplineSet
EndChar

StartChar: uni2159
Encoding: 8537 8537 162
Width: 846
VWidth: 0
Flags: HMW
LayerCount: 2
Fore
SplineSet
689 699 m 1
 814 699 l 1
 191 0 l 1
 65 0 l 1
 689 699 l 1
92 571 m 1
 108 661 l 1
 315 703 l 1
 241 274 l 1
 142 274 l 1
 197 596 l 1
 92 571 l 1
583 145 m 0
 578 108 599 77 637 76 c 0
 676 74 714 107 719 146 c 0
 724 183 705 214 667 216 c 0
 628 218 588 184 583 145 c 0
693 415 m 1
 827 415 l 1
 668 266 l 1
 643 258 l 1
 665 274 683 282 711 282 c 0
 779 283 829 219 820 145 c 0
 808 48 722 -11 629 -11 c 0
 537 -11 470 51 484 146 c 0
 491 192 520 230 550 263 c 1
 693 415 l 1
EndSplineSet
EndChar

StartChar: uni215A
Encoding: 8538 8538 163
Width: 904
VWidth: 0
Flags: HMW
LayerCount: 2
Fore
SplineSet
764 699 m 1
 890 699 l 1
 266 0 l 1
 141 0 l 1
 764 699 l 1
401 412 m 0
 389 319 299 270 216 270 c 0
 147 270 98 294 57 325 c 1
 106 408 l 1
 135 382 168 364 202 364 c 0
 245 364 289 385 294 425 c 0
 298 462 264 480 229 481 c 0
 192 483 149 472 107 456 c 1
 180 506 l 1
 214 534 252 551 295 550 c 0
 366 549 411 488 401 412 c 0
265 609 m 1
 212 504 l 1
 101 451 l 1
 202 698 l 1
 442 698 l 1
 427 610 l 1
 265 609 l 1
640 145 m 0
 635 108 655 77 693 76 c 0
 732 74 771 107 776 146 c 0
 781 183 762 214 724 216 c 0
 685 218 645 184 640 145 c 0
749 415 m 1
 883 415 l 1
 725 266 l 1
 700 258 l 1
 722 274 740 282 768 282 c 0
 836 283 885 219 876 145 c 0
 864 48 780 -11 687 -11 c 0
 595 -11 527 51 541 146 c 0
 548 192 576 230 606 263 c 1
 749 415 l 1
EndSplineSet
EndChar

StartChar: oneeighth
Encoding: 8539 8539 164
Width: 865
VWidth: 0
Flags: HMW
LayerCount: 2
Fore
SplineSet
689 699 m 1
 814 699 l 1
 191 0 l 1
 65 0 l 1
 689 699 l 1
92 571 m 1
 108 661 l 1
 315 703 l 1
 241 274 l 1
 142 274 l 1
 197 596 l 1
 92 571 l 1
572 320 m 0
 581 389 654 429 726 429 c 0
 796 429 861 389 851 318 c 0
 842 246 764 206 696 206 c 0
 629 206 563 247 572 320 c 0
665 309 m 0
 662 286 674 262 699 261 c 0
 724 260 751 285 754 310 c 0
 757 334 745 355 720 356 c 0
 694 357 669 334 665 309 c 0
522 115 m 0
 532 197 621 237 693 237 c 0
 763 237 841 196 830 113 c 0
 820 37 737 -9 659 -9 c 0
 582 -9 511 38 522 115 c 0
625 129 m 0
 621 99 637 74 666 73 c 0
 696 72 728 98 732 130 c 0
 735 157 719 183 691 184 c 0
 661 185 629 157 625 129 c 0
EndSplineSet
EndChar

StartChar: threeeighths
Encoding: 8540 8540 165
Width: 925
VWidth: 0
Flags: HMW
LayerCount: 2
Fore
SplineSet
749 699 m 1
 875 699 l 1
 250 0 l 1
 125 0 l 1
 749 699 l 1
210 484 m 1
 217 529 l 1
 257 533 297 552 303 586 c 0
 306 608 293 625 267 626 c 0
 236 626 213 602 205 577 c 1
 110 578 l 1
 127 651 187 708 273 708 c 0
 354 708 414 659 403 590 c 0
 390 511 298 486 210 484 c 1
203 271 m 0
 108 271 60 336 64 414 c 1
 162 414 l 1
 162 379 176 354 212 353 c 0
 244 352 278 374 282 406 c 0
 290 446 251 461 205 464 c 1
 214 514 l 1
 306 512 394 484 381 394 c 0
 370 318 293 271 203 271 c 0
631 320 m 0
 640 389 714 429 786 429 c 0
 856 429 921 389 911 318 c 0
 902 246 824 206 756 206 c 0
 689 206 622 247 631 320 c 0
725 309 m 0
 722 286 734 262 759 261 c 0
 784 260 811 285 814 310 c 0
 817 334 805 355 780 356 c 0
 754 357 729 334 725 309 c 0
582 115 m 0
 592 197 681 237 753 237 c 0
 823 237 901 196 890 113 c 0
 880 37 797 -9 719 -9 c 0
 642 -9 571 38 582 115 c 0
685 129 m 0
 681 99 698 74 727 73 c 0
 757 72 789 98 793 130 c 0
 796 157 779 183 751 184 c 0
 721 185 689 157 685 129 c 0
EndSplineSet
EndChar

StartChar: fiveeighths
Encoding: 8541 8541 166
Width: 940
VWidth: 0
Flags: HMW
LayerCount: 2
Fore
SplineSet
764 699 m 1
 890 699 l 1
 266 0 l 1
 141 0 l 1
 764 699 l 1
395 412 m 0
 383 319 292 270 209 270 c 0
 140 270 91 294 50 325 c 1
 100 408 l 1
 129 382 161 364 195 364 c 0
 238 364 283 385 288 425 c 0
 292 462 258 480 223 481 c 0
 186 483 143 472 101 456 c 1
 174 506 l 1
 208 534 247 551 290 550 c 0
 361 549 405 488 395 412 c 0
259 609 m 1
 206 504 l 1
 94 451 l 1
 196 698 l 1
 436 698 l 1
 421 610 l 1
 259 609 l 1
647 320 m 0
 656 389 729 429 801 429 c 0
 871 429 936 389 926 318 c 0
 917 246 839 206 771 206 c 0
 704 206 638 247 647 320 c 0
740 309 m 0
 737 286 749 262 774 261 c 0
 799 260 827 285 830 310 c 0
 833 334 821 355 796 356 c 0
 770 357 744 334 740 309 c 0
598 115 m 0
 608 197 696 237 768 237 c 0
 838 237 917 196 906 113 c 0
 896 37 813 -9 735 -9 c 0
 658 -9 587 38 598 115 c 0
701 129 m 0
 697 99 713 74 742 73 c 0
 772 72 804 98 808 130 c 0
 811 157 794 183 766 184 c 0
 736 185 705 157 701 129 c 0
EndSplineSet
EndChar

StartChar: seveneighths
Encoding: 8542 8542 167
Width: 834
VWidth: 0
Flags: HMW
LayerCount: 2
Fore
SplineSet
651 699 m 1
 777 699 l 1
 153 0 l 1
 27 0 l 1
 651 699 l 1
97 605 m 1
 114 700 l 1
 452 700 l 1
 182 281 l 1
 70 281 l 1
 283 604 l 1
 97 605 l 1
541 320 m 0
 550 389 623 429 695 429 c 0
 765 429 830 389 820 318 c 0
 811 246 733 206 665 206 c 0
 598 206 532 247 541 320 c 0
634 309 m 0
 631 286 642 262 667 261 c 0
 692 260 720 285 723 310 c 0
 726 334 714 355 689 356 c 0
 663 357 638 334 634 309 c 0
491 115 m 0
 501 197 590 237 662 237 c 0
 732 237 810 196 799 113 c 0
 789 37 706 -9 628 -9 c 0
 551 -9 480 38 491 115 c 0
594 129 m 0
 590 99 606 74 635 73 c 0
 665 72 698 98 702 130 c 0
 705 157 688 183 660 184 c 0
 630 185 598 157 594 129 c 0
EndSplineSet
EndChar

StartChar: uni2074
Encoding: 8308 8308 168
Width: 413
VWidth: 0
Flags: HMW
LayerCount: 2
Fore
SplineSet
44 355 m 1
 138 428 l 1
 318 428 l 1
 330 442 l 1
 440 441 l 1
 425 355 l 1
 44 355 l 1
157 385 m 1
 41 352 l 1
 341 699 l 1
 419 700 l 1
 348 280 l 1
 242 280 l 1
 258 376 l 1
 270 382 l 1
 298 545 l 1
 157 385 l 1
EndSplineSet
EndChar

StartChar: uni2075
Encoding: 8309 8309 169
Width: 375
VWidth: 0
Flags: HMW
LayerCount: 2
Fore
SplineSet
395 412 m 0
 383 319 292 270 209 270 c 0
 140 270 91 294 50 325 c 1
 100 408 l 1
 129 382 161 364 195 364 c 0
 238 364 283 385 288 425 c 0
 292 462 258 480 223 481 c 0
 186 483 143 472 101 456 c 1
 174 506 l 1
 208 534 247 551 290 550 c 0
 361 549 405 488 395 412 c 0
259 609 m 1
 206 504 l 1
 94 451 l 1
 196 698 l 1
 436 698 l 1
 421 610 l 1
 259 609 l 1
EndSplineSet
EndChar

StartChar: uni2076
Encoding: 8310 8310 170
Width: 372
VWidth: 0
Flags: HMW
LayerCount: 2
Fore
SplineSet
165 425 m 0
 160 388 181 357 219 356 c 0
 258 354 296 387 301 426 c 0
 306 463 287 494 249 496 c 0
 210 498 170 464 165 425 c 0
274 695 m 1
 408 695 l 1
 250 546 l 1
 225 538 l 1
 247 554 265 562 293 562 c 0
 361 563 410 499 401 425 c 0
 389 328 304 269 211 269 c 0
 119 269 51 331 65 426 c 0
 72 472 101 510 131 543 c 1
 274 695 l 1
EndSplineSet
EndChar

StartChar: uni2077
Encoding: 8311 8311 171
Width: 367
VWidth: 0
Flags: HMW
LayerCount: 2
Fore
SplineSet
97 605 m 1
 114 700 l 1
 452 700 l 1
 182 281 l 1
 70 281 l 1
 283 604 l 1
 97 605 l 1
EndSplineSet
EndChar

StartChar: uni2078
Encoding: 8312 8312 172
Width: 350
VWidth: 0
Flags: HMW
LayerCount: 2
Fore
SplineSet
111 600 m 0
 120 669 193 709 265 709 c 0
 335 709 399 669 389 598 c 0
 380 526 303 486 235 486 c 0
 168 486 102 527 111 600 c 0
203 589 m 0
 200 566 212 542 237 541 c 0
 262 540 290 565 293 590 c 0
 296 614 284 635 259 636 c 0
 233 637 207 614 203 589 c 0
61 395 m 0
 71 477 160 517 232 517 c 0
 302 517 380 476 369 393 c 0
 359 317 276 271 198 271 c 0
 121 271 50 318 61 395 c 0
164 409 m 0
 160 379 176 354 205 353 c 0
 235 352 267 378 271 410 c 0
 274 437 258 463 230 464 c 0
 200 465 168 437 164 409 c 0
EndSplineSet
EndChar

StartChar: uni2079
Encoding: 8313 8313 173
Width: 369
VWidth: 0
Flags: HMW
LayerCount: 2
Fore
SplineSet
324 555 m 0
 329 592 309 623 271 624 c 0
 232 626 193 593 188 554 c 0
 183 517 203 486 241 484 c 0
 280 482 319 516 324 555 c 0
215 285 m 1
 82 285 l 1
 240 434 l 1
 264 442 l 1
 242 425 224 418 196 418 c 0
 128 419 80 481 89 555 c 0
 101 652 185 711 278 711 c 0
 370 711 438 649 424 554 c 0
 417 508 388 470 358 437 c 1
 215 285 l 1
EndSplineSet
EndChar

StartChar: uni2070
Encoding: 8304 8304 174
Width: 378
VWidth: 0
Flags: HMW
LayerCount: 2
Fore
SplineSet
173 490 m 0
 167 434 167 362 220 360 c 0
 273 358 311 428 320 490 c 0
 326 546 325 618 272 620 c 0
 219 622 182 552 173 490 c 0
75 490 m 0
 90 609 168 708 278 708 c 0
 392 708 431 604 417 490 c 0
 401 371 327 272 214 272 c 0
 102 272 61 376 75 490 c 0
EndSplineSet
EndChar

StartChar: uni2080
Encoding: 8320 8320 175
Width: 378
VWidth: 0
Flags: HMW
LayerCount: 2
Fore
SplineSet
125 210 m 0
 119 154 119 82 172 80 c 0
 225 78 263 148 272 210 c 0
 278 266 277 338 224 340 c 0
 171 342 134 272 125 210 c 0
27 210 m 0
 42 329 121 428 231 428 c 0
 345 428 384 324 370 210 c 0
 354 91 279 -8 166 -8 c 0
 54 -8 13 96 27 210 c 0
EndSplineSet
EndChar

StartChar: uni2084
Encoding: 8324 8324 176
Width: 418
VWidth: 0
Flags: HMW
LayerCount: 2
Fore
SplineSet
-4 75 m 1
 89 148 l 1
 269 148 l 1
 282 162 l 1
 391 161 l 1
 375 75 l 1
 -4 75 l 1
108 105 m 1
 -8 72 l 1
 292 419 l 1
 371 420 l 1
 299 0 l 1
 192 0 l 1
 209 96 l 1
 221 102 l 1
 250 265 l 1
 108 105 l 1
EndSplineSet
EndChar

StartChar: uni2085
Encoding: 8325 8325 177
Width: 383
VWidth: 0
Flags: HMW
LayerCount: 2
Fore
SplineSet
351 132 m 0
 339 39 248 -10 165 -10 c 0
 96 -10 47 14 6 45 c 1
 56 128 l 1
 85 102 116 84 150 84 c 0
 193 84 239 105 244 145 c 0
 248 182 213 200 178 201 c 0
 141 203 98 192 56 176 c 1
 129 226 l 1
 163 254 202 271 245 270 c 0
 316 269 361 208 351 132 c 0
215 329 m 1
 161 224 l 1
 50 171 l 1
 151 418 l 1
 391 418 l 1
 376 330 l 1
 215 329 l 1
EndSplineSet
EndChar

StartChar: uni2086
Encoding: 8326 8326 178
Width: 382
VWidth: 0
Flags: HMW
LayerCount: 2
Fore
SplineSet
121 145 m 0
 116 108 136 77 174 76 c 0
 213 74 252 107 257 146 c 0
 262 183 242 214 204 216 c 0
 165 218 126 184 121 145 c 0
230 415 m 1
 363 415 l 1
 205 266 l 1
 181 258 l 1
 203 274 220 282 248 282 c 0
 316 283 365 219 356 145 c 0
 344 48 260 -11 167 -11 c 0
 75 -11 7 51 21 146 c 0
 28 192 57 230 87 263 c 1
 230 415 l 1
EndSplineSet
EndChar

StartChar: uni2087
Encoding: 8327 8327 179
Width: 372
VWidth: 0
Flags: HMW
LayerCount: 2
Fore
SplineSet
53 325 m 1
 70 420 l 1
 408 420 l 1
 138 0 l 1
 26 0 l 1
 238 324 l 1
 53 325 l 1
EndSplineSet
EndChar

StartChar: uni2088
Encoding: 8328 8328 180
Width: 357
VWidth: 0
Flags: HMW
LayerCount: 2
Fore
SplineSet
67 320 m 0
 76 389 149 429 221 429 c 0
 291 429 356 389 346 318 c 0
 337 246 259 206 191 206 c 0
 124 206 58 247 67 320 c 0
160 309 m 0
 157 286 168 262 193 261 c 0
 218 260 247 285 250 310 c 0
 253 334 241 355 216 356 c 0
 190 357 164 334 160 309 c 0
17 115 m 0
 27 197 116 237 188 237 c 0
 258 237 336 196 325 113 c 0
 315 37 232 -9 154 -9 c 0
 77 -9 6 38 17 115 c 0
120 129 m 0
 116 99 133 74 162 73 c 0
 192 72 224 98 228 130 c 0
 231 157 214 183 186 184 c 0
 156 185 124 157 120 129 c 0
EndSplineSet
EndChar

StartChar: uni2089
Encoding: 8329 8329 181
Width: 386
VWidth: 0
Flags: HMW
LayerCount: 2
Fore
SplineSet
279 275 m 0
 284 312 263 343 225 344 c 0
 186 346 147 313 142 274 c 0
 137 237 157 206 195 204 c 0
 234 202 274 236 279 275 c 0
169 5 m 1
 35 5 l 1
 194 154 l 1
 219 162 l 1
 197 145 179 138 151 138 c 0
 83 139 33 201 42 275 c 0
 54 372 140 431 233 431 c 0
 325 431 392 369 378 274 c 0
 371 228 342 190 312 157 c 1
 169 5 l 1
EndSplineSet
EndChar

StartChar: uni2081
Encoding: 8321 8321 182
Width: 349
VWidth: 0
Flags: HMW
LayerCount: 2
Fore
SplineSet
109 298 m 1
 126 388 l 1
 332 430 l 1
 258 1 l 1
 160 1 l 1
 215 323 l 1
 109 298 l 1
EndSplineSet
EndChar

StartChar: uni2082
Encoding: 8322 8322 183
Width: 398
VWidth: 0
Flags: HMW
LayerCount: 2
Fore
SplineSet
-3 3 m 1
 212 196 l 2
 244 226 278 253 284 290 c 0
 287 315 275 341 243 343 c 0
 202 346 174 305 165 267 c 1
 65 268 l 1
 83 355 147 432 252 431 c 0
 342 431 399 367 388 295 c 0
 381 249 350 212 313 183 c 2
 205 96 l 1
 364 95 l 1
 348 2 l 1
 -3 3 l 1
EndSplineSet
EndChar

StartChar: uni2083
Encoding: 8323 8323 184
Width: 360
VWidth: 0
Flags: HMW
LayerCount: 2
Fore
SplineSet
162 204 m 1
 169 249 l 1
 209 253 249 272 255 306 c 0
 258 328 245 345 219 346 c 0
 188 346 165 322 157 297 c 1
 62 298 l 1
 79 371 139 428 225 428 c 0
 306 428 365 379 354 310 c 0
 341 231 250 206 162 204 c 1
155 -9 m 0
 60 -9 11 56 15 134 c 1
 113 134 l 1
 113 99 128 74 164 73 c 0
 196 72 230 94 234 126 c 0
 242 166 202 181 156 184 c 1
 165 234 l 1
 257 232 346 204 333 114 c 0
 322 38 245 -9 155 -9 c 0
EndSplineSet
EndChar

StartChar: Agrave
Encoding: 192 192 185
Width: 713
VWidth: 0
Flags: HMW
LayerCount: 2
Fore
SplineSet
174 134 m 1
 207 263 l 1
 547 263 l 1
 535 134 l 1
 174 134 l 1
408 441 m 1
 274 216 l 1
 276 178 l 1
 162 0 l 1
 -32 0 l 1
 456 747 l 1
 688 0 l 1
 502 0 l 1
 448 172 l 1
 463 215 l 1
 408 441 l 1
337 957 m 1
 455 1008 l 1
 576 844 l 1
 489 805 l 1
 337 957 l 1
EndSplineSet
EndChar

StartChar: Aacute
Encoding: 193 193 186
Width: 713
VWidth: 0
Flags: HMW
LayerCount: 2
Fore
SplineSet
174 134 m 1
 207 263 l 1
 547 263 l 1
 535 134 l 1
 174 134 l 1
408 441 m 1
 274 216 l 1
 276 178 l 1
 162 0 l 1
 -32 0 l 1
 456 747 l 1
 688 0 l 1
 502 0 l 1
 448 172 l 1
 463 215 l 1
 408 441 l 1
648 952 m 1
 450 805 l 1
 369 850 l 1
 539 1006 l 1
 648 952 l 1
EndSplineSet
EndChar

StartChar: Acircumflex
Encoding: 194 194 187
Width: 713
VWidth: 0
Flags: HMW
LayerCount: 2
Fore
SplineSet
174 134 m 1
 207 263 l 1
 547 263 l 1
 535 134 l 1
 174 134 l 1
408 441 m 1
 274 216 l 1
 276 178 l 1
 162 0 l 1
 -32 0 l 1
 456 747 l 1
 688 0 l 1
 502 0 l 1
 448 172 l 1
 463 215 l 1
 408 441 l 1
483 874 m 1
 380 790 l 1
 285 864 l 1
 497 1002 l 1
 669 859 l 1
 556 789 l 1
 483 874 l 1
EndSplineSet
EndChar

StartChar: Atilde
Encoding: 195 195 188
Width: 713
VWidth: 0
Flags: HMW
LayerCount: 2
Fore
SplineSet
174 134 m 1
 207 263 l 1
 547 263 l 1
 535 134 l 1
 174 134 l 1
408 441 m 1
 274 216 l 1
 276 178 l 1
 162 0 l 1
 -32 0 l 1
 456 747 l 1
 688 0 l 1
 502 0 l 1
 448 172 l 1
 463 215 l 1
 408 441 l 1
285 865 m 1
 306 911 352 959 414 957 c 0
 469 956 488 905 538 907 c 0
 567 908 590 933 612 959 c 1
 673 883 l 1
 647 845 591 797 531 799 c 0
 482 801 450 854 404 851 c 0
 371 849 357 819 349 801 c 1
 285 865 l 1
EndSplineSet
EndChar

StartChar: Adieresis
Encoding: 196 196 189
Width: 713
VWidth: 0
Flags: HMW
LayerCount: 2
Fore
SplineSet
174 134 m 1
 207 263 l 1
 547 263 l 1
 535 134 l 1
 174 134 l 1
408 441 m 1
 274 216 l 1
 276 178 l 1
 162 0 l 1
 -32 0 l 1
 456 747 l 1
 688 0 l 1
 502 0 l 1
 448 172 l 1
 463 215 l 1
 408 441 l 1
522 831 m 0
 528 876 574 912 620 911 c 0
 667 910 702 875 696 829 c 0
 690 784 644 747 598 748 c 0
 551 749 516 785 522 831 c 0
243 837 m 0
 249 882 294 919 340 918 c 0
 387 917 422 881 416 835 c 0
 410 790 365 754 319 755 c 0
 272 756 237 791 243 837 c 0
EndSplineSet
EndChar

StartChar: Aring
Encoding: 197 197 190
Width: 713
VWidth: 0
Flags: HMW
LayerCount: 2
Fore
SplineSet
174 134 m 1
 207 263 l 1
 547 263 l 1
 535 134 l 1
 174 134 l 1
408 441 m 1
 274 216 l 1
 276 178 l 1
 162 0 l 1
 -32 0 l 1
 456 747 l 1
 688 0 l 1
 502 0 l 1
 448 172 l 1
 463 215 l 1
 408 441 l 1
344 802 m 0
 353 867 415 916 482 916 c 0
 549 916 598 866 589 800 c 0
 580 734 517 685 450 685 c 0
 383 685 335 737 344 802 c 0
421 800 m 0
 418 777 432 755 455 754 c 0
 479 752 509 777 512 802 c 0
 515 825 500 847 477 848 c 0
 453 850 424 825 421 800 c 0
EndSplineSet
EndChar

StartChar: AE
Encoding: 198 198 191
Width: 1053
VWidth: 0
Flags: HMW
LayerCount: 2
Fore
SplineSet
260 150 m 1
 293 306 l 1
 587 306 l 1
 560 150 l 1
 260 150 l 1
521 700 m 1
 672 658 l 1
 199 0 l 1
 -16 0 l 1
 521 700 l 1
585 0 m 1
 609 140 l 1
 986 140 l 1
 961 0 l 1
 585 0 l 1
694 560 m 1
 521 700 l 1
 1081 700 l 1
 1056 560 l 1
 694 560 l 1
636 299 m 1
 660 436 l 1
 1017 436 l 1
 993 299 l 1
 636 299 l 1
625 700 m 1
 806 700 l 1
 686 0 l 1
 506 0 l 1
 625 700 l 1
EndSplineSet
EndChar

StartChar: Ccedilla
Encoding: 199 199 192
Width: 679
VWidth: 0
Flags: HMW
LayerCount: 2
Fore
SplineSet
247 350 m 0
 229 237 295 148 409 146 c 0
 502 145 572 190 630 238 c 1
 603 54 l 1
 541 12 473 -16 382 -16 c 0
 166 -15 34 146 64 350 c 0
 96 561 275 716 496 716 c 0
 584 716 645 690 701 645 c 1
 673 461 l 1
 631 515 573 554 488 554 c 0
 372 554 268 469 247 350 c 0
325 47 m 1
 438 44 l 1
 329 -78 l 1
 339 -75 351 -74 363 -74 c 0
 409 -77 447 -116 440 -173 c 0
 430 -242 360 -280 297 -281 c 0
 244 -282 202 -268 158 -240 c 1
 212 -174 l 1
 235 -190 262 -198 284 -198 c 0
 311 -198 344 -185 346 -162 c 0
 348 -138 319 -131 296 -131 c 0
 277 -130 242 -135 210 -145 c 1
 325 47 l 1
EndSplineSet
EndChar

StartChar: Egrave
Encoding: 200 200 193
Width: 584
VWidth: 0
Flags: HMW
LayerCount: 2
Fore
SplineSet
153 0 m 1
 177 140 l 1
 523 140 l 1
 498 0 l 1
 153 0 l 1
249 560 m 1
 273 700 l 1
 619 700 l 1
 594 560 l 1
 249 560 l 1
204 299 m 1
 228 436 l 1
 554 436 l 1
 530 299 l 1
 204 299 l 1
162 700 m 1
 325 700 l 1
 204 0 l 1
 44 0 l 1
 162 700 l 1
273 935 m 1
 391 986 l 1
 512 823 l 1
 425 783 l 1
 273 935 l 1
EndSplineSet
EndChar

StartChar: Eacute
Encoding: 201 201 194
Width: 584
VWidth: 0
Flags: HMW
LayerCount: 2
Fore
SplineSet
153 0 m 1
 177 140 l 1
 523 140 l 1
 498 0 l 1
 153 0 l 1
249 560 m 1
 273 700 l 1
 619 700 l 1
 594 560 l 1
 249 560 l 1
204 299 m 1
 228 436 l 1
 554 436 l 1
 530 299 l 1
 204 299 l 1
162 700 m 1
 325 700 l 1
 204 0 l 1
 44 0 l 1
 162 700 l 1
585 930 m 1
 388 784 l 1
 306 828 l 1
 477 984 l 1
 585 930 l 1
EndSplineSet
EndChar

StartChar: Ecircumflex
Encoding: 202 202 195
Width: 584
VWidth: 0
Flags: HMW
LayerCount: 2
Fore
SplineSet
153 0 m 1
 177 140 l 1
 523 140 l 1
 498 0 l 1
 153 0 l 1
249 560 m 1
 273 700 l 1
 619 700 l 1
 594 560 l 1
 249 560 l 1
204 299 m 1
 228 436 l 1
 554 436 l 1
 530 299 l 1
 204 299 l 1
162 700 m 1
 325 700 l 1
 204 0 l 1
 44 0 l 1
 162 700 l 1
429 883 m 1
 305 789 l 1
 260 832 l 1
 436 970 l 1
 572 827 l 1
 519 789 l 1
 429 883 l 1
EndSplineSet
EndChar

StartChar: Edieresis
Encoding: 203 203 196
Width: 584
VWidth: 0
Flags: HMW
LayerCount: 2
Fore
SplineSet
153 0 m 1
 177 140 l 1
 523 140 l 1
 498 0 l 1
 153 0 l 1
249 560 m 1
 273 700 l 1
 619 700 l 1
 594 560 l 1
 249 560 l 1
204 299 m 1
 228 436 l 1
 554 436 l 1
 530 299 l 1
 204 299 l 1
162 700 m 1
 325 700 l 1
 204 0 l 1
 44 0 l 1
 162 700 l 1
454 867 m 0
 460 912 506 948 552 947 c 0
 599 946 633 910 627 864 c 0
 621 819 576 783 530 784 c 0
 483 785 448 821 454 867 c 0
217 867 m 0
 223 912 269 948 315 947 c 0
 362 946 397 910 391 864 c 0
 385 819 339 783 293 784 c 0
 246 785 211 821 217 867 c 0
EndSplineSet
EndChar

StartChar: Igrave
Encoding: 204 204 197
Width: 311
VWidth: 0
Flags: HMW
LayerCount: 2
Fore
SplineSet
162 700 m 1
 334 700 l 1
 214 0 l 1
 44 0 l 1
 162 700 l 1
125 935 m 1
 244 986 l 1
 365 823 l 1
 277 783 l 1
 125 935 l 1
EndSplineSet
EndChar

StartChar: Iacute
Encoding: 205 205 198
Width: 311
VWidth: 0
Flags: HMW
LayerCount: 2
Fore
SplineSet
162 700 m 1
 334 700 l 1
 214 0 l 1
 44 0 l 1
 162 700 l 1
437 930 m 1
 239 783 l 1
 158 828 l 1
 328 984 l 1
 437 930 l 1
EndSplineSet
EndChar

StartChar: Icircumflex
Encoding: 206 206 199
Width: 311
VWidth: 0
Flags: HMW
LayerCount: 2
Fore
SplineSet
162 700 m 1
 334 700 l 1
 214 0 l 1
 44 0 l 1
 162 700 l 1
277 883 m 1
 153 789 l 1
 107 832 l 1
 284 970 l 1
 420 827 l 1
 368 789 l 1
 277 883 l 1
EndSplineSet
EndChar

StartChar: Idieresis
Encoding: 207 207 200
Width: 311
VWidth: 0
Flags: HMW
LayerCount: 2
Fore
SplineSet
162 700 m 1
 334 700 l 1
 214 0 l 1
 44 0 l 1
 162 700 l 1
307 860 m 0
 313 905 359 941 405 940 c 0
 452 939 487 903 481 857 c 0
 475 812 429 776 383 777 c 0
 336 778 301 814 307 860 c 0
70 860 m 0
 76 905 121 941 167 940 c 0
 214 939 250 903 244 857 c 0
 238 812 192 776 146 777 c 0
 99 778 64 814 70 860 c 0
EndSplineSet
EndChar

StartChar: Ntilde
Encoding: 209 209 201
Width: 769
VWidth: 0
Flags: HMW
LayerCount: 2
Fore
SplineSet
631 700 m 1
 793 700 l 1
 668 -34 l 1
 273 393 l 1
 205 0 l 1
 43 0 l 1
 168 734 l 1
 563 307 l 1
 631 700 l 1
280 836 m 1
 301 882 347 930 409 928 c 0
 464 927 482 875 532 877 c 0
 561 878 584 903 606 929 c 1
 667 853 l 1
 641 815 585 768 525 770 c 0
 476 772 445 825 399 822 c 0
 366 820 351 790 343 772 c 1
 280 836 l 1
EndSplineSet
EndChar

StartChar: Eth
Encoding: 208 208 202
Width: 710
VWidth: 0
Flags: HMW
LayerCount: 2
Fore
SplineSet
28 303 m 1
 47 402 l 1
 389 402 l 1
 371 303 l 1
 28 303 l 1
162 700 m 1
 337 700 l 1
 217 0 l 1
 44 0 l 1
 162 700 l 1
293 0 m 1
 152 0 l 1
 180 152 l 1
 303 152 l 1
 418 155 518 217 540 350 c 0
 560 477 493 545 380 548 c 1
 246 548 l 1
 273 700 l 1
 403 700 l 1
 619 697 745 554 714 350 c 0
 682 140 514 3 293 0 c 1
EndSplineSet
EndChar

StartChar: Ograve
Encoding: 210 210 203
Width: 796
VWidth: 0
Flags: HMW
LayerCount: 2
Fore
SplineSet
241 350 m 0
 224 243 272 142 390 141 c 0
 509 140 601 235 621 350 c 0
 638 458 592 558 472 559 c 0
 353 560 260 465 241 350 c 0
64 350 m 0
 95 558 274 716 488 716 c 0
 699 716 828 551 799 350 c 0
 768 141 591 -23 373 -23 c 0
 159 -23 35 149 64 350 c 0
387 935 m 1
 505 986 l 1
 626 823 l 1
 539 783 l 1
 387 935 l 1
EndSplineSet
EndChar

StartChar: Oacute
Encoding: 211 211 204
Width: 796
VWidth: 0
Flags: HMW
LayerCount: 2
Fore
SplineSet
241 350 m 0
 224 243 272 142 390 141 c 0
 509 140 601 235 621 350 c 0
 638 458 592 558 472 559 c 0
 353 560 260 465 241 350 c 0
64 350 m 0
 95 558 274 716 488 716 c 0
 699 716 828 551 799 350 c 0
 768 141 591 -23 373 -23 c 0
 159 -23 35 149 64 350 c 0
691 930 m 1
 494 784 l 1
 412 828 l 1
 582 984 l 1
 691 930 l 1
EndSplineSet
EndChar

StartChar: Ocircumflex
Encoding: 212 212 205
Width: 796
VWidth: 0
Flags: HMW
LayerCount: 2
Fore
SplineSet
241 350 m 0
 224 243 272 142 390 141 c 0
 509 140 601 235 621 350 c 0
 638 458 592 558 472 559 c 0
 353 560 260 465 241 350 c 0
64 350 m 0
 95 558 275 716 489 716 c 0
 700 716 828 551 799 350 c 0
 768 141 591 -23 373 -23 c 0
 159 -23 35 149 64 350 c 0
536 883 m 1
 412 789 l 1
 366 832 l 1
 543 970 l 1
 678 827 l 1
 626 789 l 1
 536 883 l 1
EndSplineSet
EndChar

StartChar: Otilde
Encoding: 213 213 206
Width: 796
VWidth: 0
Flags: HMW
LayerCount: 2
Fore
SplineSet
241 350 m 0
 224 243 272 142 390 141 c 0
 509 140 601 235 621 350 c 0
 638 458 592 558 472 559 c 0
 353 560 260 465 241 350 c 0
64 350 m 0
 95 558 275 716 489 716 c 0
 700 716 828 551 799 350 c 0
 768 141 591 -23 373 -23 c 0
 159 -23 35 149 64 350 c 0
357 845 m 1
 357 889 433 924 469 924 c 0
 521 923 535 877 582 879 c 0
 606 880 625 902 645 926 c 1
 686 880 l 1
 663 846 624 808 575 810 c 0
 529 812 507 857 465 856 c 0
 429 855 414 824 406 806 c 1
 357 845 l 1
EndSplineSet
EndChar

StartChar: Odieresis
Encoding: 214 214 207
Width: 796
VWidth: 0
Flags: HMW
LayerCount: 2
Fore
SplineSet
241 350 m 0
 224 243 272 142 390 141 c 0
 509 140 601 235 621 350 c 0
 638 458 592 558 472 559 c 0
 353 560 260 465 241 350 c 0
64 350 m 0
 95 558 274 716 488 716 c 0
 699 716 828 551 799 350 c 0
 768 141 591 -23 373 -23 c 0
 159 -23 35 149 64 350 c 0
550 860 m 0
 556 905 602 941 648 940 c 0
 695 939 730 903 724 857 c 0
 718 812 672 776 626 777 c 0
 579 778 544 814 550 860 c 0
313 860 m 0
 319 905 365 941 411 940 c 0
 458 939 493 903 487 857 c 0
 481 812 435 776 389 777 c 0
 342 778 307 814 313 860 c 0
EndSplineSet
EndChar

StartChar: Ugrave
Encoding: 217 217 208
Width: 680
VWidth: 0
Flags: HMW
LayerCount: 2
Fore
SplineSet
158 700 m 1
 326 700 l 1
 246 243 l 2
 238 181 258 125 330 124 c 0
 403 123 448 177 461 243 c 1
 541 700 l 1
 709 700 l 1
 629 230 l 2
 602 67 474 -29 314 -29 c 0
 159 -29 57 68 78 230 c 1
 158 700 l 1
315 928 m 1
 433 980 l 1
 554 816 l 1
 468 776 l 1
 315 928 l 1
EndSplineSet
EndChar

StartChar: Uacute
Encoding: 218 218 209
Width: 680
VWidth: 0
Flags: HMW
LayerCount: 2
Fore
SplineSet
158 700 m 1
 326 700 l 1
 246 243 l 2
 238 181 258 125 330 124 c 0
 403 123 448 177 461 243 c 1
 541 700 l 1
 709 700 l 1
 629 230 l 2
 602 67 474 -29 314 -29 c 0
 159 -29 57 68 78 230 c 1
 158 700 l 1
630 924 m 1
 432 777 l 1
 350 822 l 1
 521 978 l 1
 630 924 l 1
EndSplineSet
EndChar

StartChar: Ucircumflex
Encoding: 219 219 210
Width: 680
VWidth: 0
Flags: HMW
LayerCount: 2
Fore
SplineSet
158 700 m 1
 326 700 l 1
 246 243 l 2
 238 181 258 125 330 124 c 0
 403 123 448 177 461 243 c 1
 541 700 l 1
 709 700 l 1
 629 230 l 2
 602 67 474 -29 314 -29 c 0
 159 -29 57 68 78 230 c 1
 158 700 l 1
464 861 m 1
 361 777 l 1
 266 851 l 1
 478 988 l 1
 651 846 l 1
 537 776 l 1
 464 861 l 1
EndSplineSet
EndChar

StartChar: Udieresis
Encoding: 220 220 211
Width: 680
VWidth: 0
Flags: HMW
LayerCount: 2
Fore
SplineSet
158 700 m 1
 326 700 l 1
 246 243 l 2
 238 181 258 125 330 124 c 0
 403 123 448 177 461 243 c 1
 541 700 l 1
 709 700 l 1
 629 230 l 2
 602 67 474 -29 314 -29 c 0
 159 -29 57 68 78 230 c 1
 158 700 l 1
510 860 m 0
 516 905 562 941 608 940 c 0
 655 939 690 903 684 857 c 0
 678 812 633 776 587 777 c 0
 540 778 504 814 510 860 c 0
236 860 m 0
 242 905 288 941 334 940 c 0
 381 939 416 903 410 857 c 0
 404 812 358 776 312 777 c 0
 265 778 230 814 236 860 c 0
EndSplineSet
EndChar

StartChar: Yacute
Encoding: 221 221 212
Width: 641
VWidth: 0
Flags: HMW
LayerCount: 2
Fore
SplineSet
610 924 m 1
 413 777 l 1
 331 822 l 1
 501 978 l 1
 610 924 l 1
542 700 m 1
 739 700 l 1
 428 281 l 1
 380 0 l 1
 209 0 l 1
 259 288 l 1
 92 700 l 1
 281 700 l 1
 367 441 l 1
 542 700 l 1
EndSplineSet
EndChar

StartChar: agrave
Encoding: 224 224 213
Width: 598
VWidth: 0
Flags: HMW
LayerCount: 2
Fore
SplineSet
447 460 m 1
 597 460 l 1
 518 0 l 1
 369 0 l 1
 447 460 l 1
42 230 m 0
 60 367 168 471 291 470 c 0
 415 469 465 355 449 230 c 0
 431 99 342 -10 219 -10 c 0
 96 -10 25 98 42 230 c 0
199 230 m 0
 190 170 220 114 281 113 c 0
 338 112 395 165 406 230 c 0
 415 290 383 345 328 347 c 0
 266 349 210 294 199 230 c 0
218 683 m 1
 336 734 l 1
 457 571 l 1
 370 530 l 1
 218 683 l 1
EndSplineSet
Substitution2: "alt a" agrave.alt
EndChar

StartChar: aacute
Encoding: 225 225 214
Width: 598
VWidth: 0
Flags: HMW
LayerCount: 2
Fore
SplineSet
447 460 m 1
 597 460 l 1
 518 0 l 1
 369 0 l 1
 447 460 l 1
42 230 m 0
 60 367 168 471 291 470 c 0
 415 469 465 355 449 230 c 0
 431 99 342 -10 219 -10 c 0
 96 -10 25 98 42 230 c 0
199 230 m 0
 190 170 220 114 281 113 c 0
 338 112 395 165 406 230 c 0
 415 290 383 345 328 347 c 0
 266 349 210 294 199 230 c 0
527 678 m 1
 329 531 l 1
 248 576 l 1
 419 733 l 1
 527 678 l 1
EndSplineSet
Substitution2: "alt a" aacute.alt
EndChar

StartChar: acircumflex
Encoding: 226 226 215
Width: 598
VWidth: 0
Flags: HMW
LayerCount: 2
Fore
SplineSet
447 460 m 1
 597 460 l 1
 518 0 l 1
 369 0 l 1
 447 460 l 1
42 230 m 0
 60 367 168 471 291 470 c 0
 415 469 465 355 449 230 c 0
 431 99 342 -10 219 -10 c 0
 96 -10 25 98 42 230 c 0
199 230 m 0
 190 170 220 114 281 113 c 0
 338 112 395 165 406 230 c 0
 415 290 383 345 328 347 c 0
 266 349 210 294 199 230 c 0
387 615 m 1
 284 531 l 1
 188 605 l 1
 401 743 l 1
 574 600 l 1
 461 530 l 1
 387 615 l 1
EndSplineSet
Substitution2: "alt a" acircumflex.alt
EndChar

StartChar: atilde
Encoding: 227 227 216
Width: 598
VWidth: 0
Flags: HMW
LayerCount: 2
Fore
SplineSet
447 460 m 1
 597 460 l 1
 518 0 l 1
 369 0 l 1
 447 460 l 1
42 230 m 0
 60 367 168 471 291 470 c 0
 415 469 465 355 449 230 c 0
 431 99 342 -10 219 -10 c 0
 96 -10 25 98 42 230 c 0
199 230 m 0
 190 170 220 114 281 113 c 0
 338 112 395 165 406 230 c 0
 415 290 383 345 328 347 c 0
 266 349 210 294 199 230 c 0
194 598 m 1
 214 646 260 691 323 691 c 0
 378 691 397 638 447 640 c 0
 476 641 499 667 521 693 c 1
 582 616 l 1
 556 578 500 530 440 532 c 0
 391 534 359 587 313 584 c 0
 280 582 267 552 258 534 c 1
 194 598 l 1
EndSplineSet
Substitution2: "alt a" atilde.alt
EndChar

StartChar: adieresis
Encoding: 228 228 217
Width: 598
VWidth: 0
Flags: HMW
LayerCount: 2
Fore
SplineSet
447 460 m 1
 597 460 l 1
 518 0 l 1
 369 0 l 1
 447 460 l 1
42 230 m 0
 60 367 168 471 291 470 c 0
 415 469 465 355 449 230 c 0
 431 99 342 -10 219 -10 c 0
 96 -10 25 98 42 230 c 0
199 230 m 0
 190 170 220 114 281 113 c 0
 338 112 395 165 406 230 c 0
 415 290 383 345 328 347 c 0
 266 349 210 294 199 230 c 0
408 614 m 0
 414 659 460 695 506 694 c 0
 553 693 588 657 582 611 c 0
 576 566 530 530 484 531 c 0
 437 532 402 568 408 614 c 0
171 614 m 0
 177 659 223 695 269 694 c 0
 316 693 351 657 345 611 c 0
 339 566 293 530 247 531 c 0
 200 532 165 568 171 614 c 0
EndSplineSet
Substitution2: "alt a" adieresis.alt
EndChar

StartChar: aring
Encoding: 229 229 218
Width: 598
VWidth: 0
Flags: HMW
LayerCount: 2
Fore
SplineSet
447 460 m 1
 597 460 l 1
 518 0 l 1
 369 0 l 1
 447 460 l 1
42 230 m 0
 60 367 168 471 291 470 c 0
 415 469 465 355 449 230 c 0
 431 99 342 -10 219 -10 c 0
 96 -10 25 98 42 230 c 0
199 230 m 0
 190 170 220 114 281 113 c 0
 338 112 395 165 406 230 c 0
 415 290 383 345 328 347 c 0
 266 349 210 294 199 230 c 0
250 647 m 0
 259 712 321 762 388 762 c 0
 455 762 505 711 496 645 c 0
 487 579 424 531 357 531 c 0
 290 531 241 582 250 647 c 0
327 646 m 0
 324 623 338 600 361 600 c 0
 385 600 415 622 418 647 c 0
 421 670 406 694 383 694 c 0
 359 694 330 671 327 646 c 0
EndSplineSet
Substitution2: "alt a" aring.alt
EndChar

StartChar: germandbls
Encoding: 223 223 219
Width: 574
VWidth: 0
Flags: HMW
LayerCount: 2
Fore
SplineSet
266 128 m 1
 343 134 405 180 419 255 c 0
 433 325 383 363 295 367 c 1
 312 472 l 1
 465 467 587 375 565 224 c 0
 541 69 408 -6 245 -10 c 1
 266 128 l 1
303 413 m 1
 316 505 l 1
 384 508 429 534 437 584 c 0
 443 628 416 658 366 658 c 0
 315 658 277 630 270 586 c 2
 169 0 l 1
 24 0 l 1
 127 606 l 2
 147 724 257 796 382 796 c 0
 515 796 602 720 585 606 c 0
 565 477 452 417 303 413 c 1
EndSplineSet
EndChar

StartChar: ae
Encoding: 230 230 220
Width: 870
VWidth: 0
Flags: HMW
LayerCount: 2
Fore
SplineSet
168 137 m 0
 163 106 187 91 220 90 c 0
 278 88 323 125 337 186 c 1
 400 128 l 1
 378 38 301 -10 187 -10 c 0
 85 -10 2 36 16 129 c 0
 30 225 126 279 232 279 c 0
 293 279 349 257 379 229 c 1
 369 159 l 1
 338 183 305 197 260 196 c 0
 216 195 174 175 168 137 c 0
143 318 m 1
 107 421 l 1
 166 447 239 473 317 473 c 0
 427 472 469 418 456 324 c 1
 423 130 l 1
 328 130 l 1
 358 290 l 1
 362 328 338 354 294 356 c 0
 235 359 177 334 143 318 c 1
413 198 m 1
 427 281 l 1
 842 282 l 1
 845 197 l 1
 413 198 l 1
696 244 m 2
 703 306 698 365 633 367 c 0
 569 369 526 317 513 254 c 1
 506 230 l 1
 496 158 517 104 581 101 c 0
 632 99 674 125 702 158 c 1
 834 124 l 1
 775 44 695 -11 575 -10 c 0
 420 -9 368 99 389 230 c 0
 392 247 398 263 404 279 c 0
 441 389 535 471 666 470 c 0
 801 469 868 368 852 237 c 0
 851 226 848 213 845 198 c 1
 692 218 l 1
 696 244 l 2
EndSplineSet
EndChar

StartChar: ccedilla
Encoding: 231 231 221
Width: 478
VWidth: 0
Flags: HMW
LayerCount: 2
Fore
SplineSet
194 230 m 0
 184 165 221 114 288 112 c 0
 344 111 397 140 433 178 c 1
 412 31 l 1
 373 6 325 -10 264 -10 c 0
 119 -10 20 91 40 230 c 0
 61 372 187 470 336 470 c 0
 395 470 439 454 476 430 c 1
 454 281 l 1
 430 324 386 348 337 348 c 0
 269 348 206 296 194 230 c 0
210 60 m 1
 323 56 l 1
 215 -65 l 1
 225 -62 236 -62 248 -62 c 0
 294 -65 332 -104 325 -161 c 0
 315 -230 245 -267 182 -268 c 0
 129 -269 87 -256 43 -228 c 1
 97 -161 l 1
 120 -177 147 -186 169 -186 c 0
 196 -186 229 -172 231 -149 c 0
 233 -125 204 -118 181 -118 c 0
 162 -117 127 -123 95 -133 c 1
 210 60 l 1
EndSplineSet
EndChar

StartChar: egrave
Encoding: 232 232 222
Width: 556
VWidth: 0
Flags: HMW
LayerCount: 2
Fore
SplineSet
122 198 m 1
 135 281 l 1
 385 282 l 1
 384 329 371 367 319 368 c 0
 255 370 212 315 199 253 c 1
 192 230 l 1
 182 158 205 104 269 101 c 0
 320 99 361 125 389 158 c 1
 521 124 l 1
 462 44 382 -11 262 -10 c 0
 107 -9 22 94 42 230 c 0
 44 247 48 263 53 279 c 0
 90 393 192 470 331 470 c 0
 481 470 557 375 539 237 c 0
 538 226 535 213 532 198 c 1
 122 198 l 1
212 687 m 1
 331 737 l 1
 452 575 l 1
 365 534 l 1
 212 687 l 1
EndSplineSet
EndChar

StartChar: eacute
Encoding: 233 233 223
Width: 556
VWidth: 0
Flags: HMW
LayerCount: 2
Fore
SplineSet
122 198 m 1
 135 281 l 1
 385 282 l 1
 384 329 371 367 319 368 c 0
 255 370 212 315 199 253 c 1
 192 230 l 1
 182 158 205 104 269 101 c 0
 320 99 361 125 389 158 c 1
 521 124 l 1
 462 44 382 -11 262 -10 c 0
 107 -9 22 94 42 230 c 0
 44 247 48 263 53 279 c 0
 90 393 192 470 331 470 c 0
 481 470 557 375 539 237 c 0
 538 226 535 213 532 198 c 1
 122 198 l 1
542 681 m 1
 344 535 l 1
 262 580 l 1
 433 736 l 1
 542 681 l 1
EndSplineSet
EndChar

StartChar: ecircumflex
Encoding: 234 234 224
Width: 556
VWidth: 0
Flags: HMW
LayerCount: 2
Fore
SplineSet
122 198 m 1
 135 281 l 1
 385 282 l 1
 384 329 371 367 319 368 c 0
 255 370 212 315 199 253 c 1
 192 230 l 1
 182 158 205 104 269 101 c 0
 320 99 361 125 389 158 c 1
 521 124 l 1
 462 44 382 -11 262 -10 c 0
 107 -9 22 94 42 230 c 0
 44 247 48 263 53 279 c 0
 90 393 192 470 331 470 c 0
 481 470 557 375 539 237 c 0
 538 226 535 213 532 198 c 1
 122 198 l 1
364 615 m 1
 261 531 l 1
 166 605 l 1
 378 743 l 1
 551 600 l 1
 438 530 l 1
 364 615 l 1
EndSplineSet
EndChar

StartChar: edieresis
Encoding: 235 235 225
Width: 556
VWidth: 0
Flags: HMW
LayerCount: 2
Fore
SplineSet
122 198 m 1
 135 281 l 1
 385 282 l 1
 384 329 371 367 319 368 c 0
 255 370 212 315 199 253 c 1
 192 230 l 1
 182 158 205 104 269 101 c 0
 320 99 361 125 389 158 c 1
 521 124 l 1
 462 44 382 -11 262 -10 c 0
 107 -9 22 94 42 230 c 0
 44 247 48 263 53 279 c 0
 90 393 192 470 331 470 c 0
 481 470 557 375 539 237 c 0
 538 226 535 213 532 198 c 1
 122 198 l 1
392 614 m 0
 398 659 444 695 490 694 c 0
 537 693 572 657 566 611 c 0
 560 566 514 530 468 531 c 0
 421 532 386 568 392 614 c 0
155 614 m 0
 161 659 207 695 253 694 c 0
 300 693 335 657 329 611 c 0
 323 566 277 530 231 531 c 0
 184 532 149 568 155 614 c 0
EndSplineSet
EndChar

StartChar: igrave
Encoding: 236 236 226
Width: 267
VWidth: 0
Flags: HMW
LayerCount: 2
Fore
SplineSet
112 460 m 1
 259 460 l 1
 179 0 l 1
 34 0 l 1
 112 460 l 1
49 690 m 1
 168 741 l 1
 289 578 l 1
 201 538 l 1
 49 690 l 1
EndSplineSet
EndChar

StartChar: dotlessi
Encoding: 305 305 227
Width: 267
VWidth: 0
Flags: HMW
LayerCount: 2
Fore
SplineSet
112 460 m 1
 259 460 l 1
 179 0 l 1
 34 0 l 1
 112 460 l 1
EndSplineSet
EndChar

StartChar: kgreenlandic
Encoding: 312 312 228
Width: 561
VWidth: 0
Flags: HMW
LayerCount: 2
Fore
SplineSet
105 460 m 1
 251 460 l 1
 172 0 l 1
 27 0 l 1
 105 460 l 1
407 460 m 1
 593 460 l 1
 364 267 l 1
 527 0 l 1
 357 0 l 1
 189 274 l 1
 407 460 l 1
EndSplineSet
EndChar

StartChar: iacute
Encoding: 237 237 229
Width: 267
VWidth: 0
Flags: HMW
LayerCount: 2
Fore
SplineSet
112 460 m 1
 259 460 l 1
 179 0 l 1
 34 0 l 1
 112 460 l 1
392 685 m 1
 195 538 l 1
 114 584 l 1
 284 740 l 1
 392 685 l 1
EndSplineSet
EndChar

StartChar: icircumflex
Encoding: 238 238 230
Width: 267
VWidth: 0
Flags: HMW
LayerCount: 2
Fore
SplineSet
112 460 m 1
 259 460 l 1
 179 0 l 1
 34 0 l 1
 112 460 l 1
216 618 m 1
 113 534 l 1
 18 609 l 1
 230 746 l 1
 402 603 l 1
 290 534 l 1
 216 618 l 1
EndSplineSet
EndChar

StartChar: idieresis
Encoding: 239 239 231
Width: 267
VWidth: 0
Flags: HMW
LayerCount: 2
Fore
SplineSet
112 460 m 1
 259 460 l 1
 179 0 l 1
 34 0 l 1
 112 460 l 1
245 625 m 0
 251 670 297 707 343 706 c 0
 390 705 425 669 419 623 c 0
 413 578 367 541 321 542 c 0
 274 543 239 579 245 625 c 0
8 625 m 0
 14 670 60 707 106 706 c 0
 153 705 188 669 182 623 c 0
 176 578 130 541 84 542 c 0
 37 543 2 579 8 625 c 0
EndSplineSet
EndChar

StartChar: ntilde
Encoding: 241 241 232
Width: 557
VWidth: 0
Flags: HMW
LayerCount: 2
Fore
SplineSet
259 460 m 1
 180 0 l 1
 28 0 l 1
 108 460 l 1
 259 460 l 1
368 280 m 1
 372 323 368 360 321 363 c 0
 273 366 239 325 228 281 c 1
 196 275 l 1
 214 377 276 470 390 470 c 0
 500 470 538 397 526 296 c 1
 475 0 l 1
 318 0 l 1
 368 280 l 1
163 599 m 1
 184 645 229 693 291 691 c 0
 346 690 365 638 415 640 c 0
 444 641 467 667 489 693 c 1
 550 616 l 1
 524 578 468 530 408 532 c 0
 359 534 328 587 282 584 c 0
 249 582 233 552 225 534 c 1
 163 599 l 1
EndSplineSet
EndChar

StartChar: ograve
Encoding: 242 242 233
Width: 571
VWidth: 0
Flags: HMW
LayerCount: 2
Fore
SplineSet
42 230 m 0
 62 371 188 470 335 470 c 0
 479 470 576 368 556 230 c 0
 536 89 408 -10 262 -10 c 0
 118 -10 22 92 42 230 c 0
196 230 m 0
 187 171 215 117 275 116 c 0
 336 115 391 167 402 230 c 0
 411 289 382 343 322 344 c 0
 261 345 207 293 196 230 c 0
222 690 m 1
 340 741 l 1
 461 578 l 1
 374 538 l 1
 222 690 l 1
EndSplineSet
EndChar

StartChar: oacute
Encoding: 243 243 234
Width: 571
VWidth: 0
Flags: HMW
LayerCount: 2
Fore
SplineSet
42 230 m 0
 62 371 188 470 335 470 c 0
 479 470 576 368 556 230 c 0
 536 89 408 -10 262 -10 c 0
 118 -10 22 92 42 230 c 0
196 230 m 0
 187 171 215 117 275 116 c 0
 336 115 391 167 402 230 c 0
 411 289 382 343 322 344 c 0
 261 345 207 293 196 230 c 0
533 685 m 1
 335 538 l 1
 254 584 l 1
 424 740 l 1
 533 685 l 1
EndSplineSet
EndChar

StartChar: ocircumflex
Encoding: 244 244 235
Width: 571
VWidth: 0
Flags: HMW
LayerCount: 2
Fore
SplineSet
42 230 m 0
 62 371 188 470 335 470 c 0
 479 470 576 368 556 230 c 0
 536 89 408 -10 262 -10 c 0
 118 -10 22 92 42 230 c 0
196 230 m 0
 187 171 215 117 275 116 c 0
 336 115 391 167 402 230 c 0
 411 289 382 343 322 344 c 0
 261 345 207 293 196 230 c 0
369 622 m 1
 267 538 l 1
 171 612 l 1
 384 750 l 1
 555 607 l 1
 443 537 l 1
 369 622 l 1
EndSplineSet
EndChar

StartChar: otilde
Encoding: 245 245 236
Width: 571
VWidth: 0
Flags: HMW
LayerCount: 2
Fore
SplineSet
42 230 m 0
 62 371 188 470 335 470 c 0
 479 470 576 368 556 230 c 0
 536 89 408 -10 262 -10 c 0
 118 -10 22 92 42 230 c 0
196 230 m 0
 187 171 215 117 275 116 c 0
 336 115 391 167 402 230 c 0
 411 289 382 343 322 344 c 0
 261 345 207 293 196 230 c 0
170 598 m 1
 170 646 248 691 298 691 c 0
 353 690 372 638 422 640 c 0
 451 641 474 667 496 693 c 1
 557 616 l 1
 531 578 475 530 415 532 c 0
 366 534 335 587 289 584 c 0
 256 582 241 552 233 534 c 1
 170 598 l 1
EndSplineSet
EndChar

StartChar: odieresis
Encoding: 246 246 237
Width: 571
VWidth: 0
Flags: HMW
LayerCount: 2
Fore
SplineSet
42 230 m 0
 62 371 188 470 335 470 c 0
 479 470 576 368 556 230 c 0
 536 89 408 -10 262 -10 c 0
 118 -10 22 92 42 230 c 0
196 230 m 0
 187 171 215 117 275 116 c 0
 336 115 391 167 402 230 c 0
 411 289 382 343 322 344 c 0
 261 345 207 293 196 230 c 0
397 625 m 0
 403 670 449 707 495 706 c 0
 542 705 577 669 571 623 c 0
 565 578 519 541 473 542 c 0
 426 543 391 579 397 625 c 0
160 625 m 0
 166 670 212 707 258 706 c 0
 305 705 340 669 334 623 c 0
 328 578 282 541 236 542 c 0
 189 543 154 579 160 625 c 0
EndSplineSet
EndChar

StartChar: ugrave
Encoding: 249 249 238
Width: 557
VWidth: 0
Flags: HMW
LayerCount: 2
Fore
SplineSet
324 0 m 1
 403 460 l 1
 554 460 l 1
 475 0 l 1
 324 0 l 1
215 180 m 1
 211 137 215 100 262 97 c 0
 310 94 344 135 355 179 c 1
 387 185 l 1
 369 83 307 -10 193 -10 c 0
 83 -10 45 63 57 164 c 1
 108 460 l 1
 265 460 l 1
 215 180 l 1
229 690 m 1
 347 741 l 1
 468 578 l 1
 381 538 l 1
 229 690 l 1
EndSplineSet
EndChar

StartChar: uacute
Encoding: 250 250 239
Width: 557
VWidth: 0
Flags: HMW
LayerCount: 2
Fore
SplineSet
324 0 m 1
 403 460 l 1
 554 460 l 1
 475 0 l 1
 324 0 l 1
215 180 m 1
 211 137 215 100 262 97 c 0
 310 94 344 135 355 179 c 1
 387 185 l 1
 369 83 307 -10 193 -10 c 0
 83 -10 45 63 57 164 c 1
 108 460 l 1
 265 460 l 1
 215 180 l 1
511 685 m 1
 314 538 l 1
 233 584 l 1
 403 740 l 1
 511 685 l 1
EndSplineSet
EndChar

StartChar: ucircumflex
Encoding: 251 251 240
Width: 557
VWidth: 0
Flags: HMW
LayerCount: 2
Fore
SplineSet
324 0 m 1
 403 460 l 1
 554 460 l 1
 475 0 l 1
 324 0 l 1
215 180 m 1
 211 137 215 100 262 97 c 0
 310 94 344 135 355 179 c 1
 387 185 l 1
 369 83 307 -10 193 -10 c 0
 83 -10 45 63 57 164 c 1
 108 460 l 1
 265 460 l 1
 215 180 l 1
362 622 m 1
 259 538 l 1
 163 612 l 1
 376 750 l 1
 548 607 l 1
 435 537 l 1
 362 622 l 1
EndSplineSet
EndChar

StartChar: udieresis
Encoding: 252 252 241
Width: 557
VWidth: 0
Flags: HMW
LayerCount: 2
Fore
SplineSet
324 0 m 1
 403 460 l 1
 554 460 l 1
 475 0 l 1
 324 0 l 1
215 180 m 1
 211 137 215 100 262 97 c 0
 310 94 344 135 355 179 c 1
 387 185 l 1
 369 83 307 -10 193 -10 c 0
 83 -10 45 63 57 164 c 1
 108 460 l 1
 265 460 l 1
 215 180 l 1
391 622 m 0
 397 667 441 703 487 702 c 0
 534 701 570 665 564 619 c 0
 558 574 512 537 466 538 c 0
 419 539 385 576 391 622 c 0
153 622 m 0
 159 667 205 703 251 702 c 0
 298 701 333 665 327 619 c 0
 321 574 275 537 229 538 c 0
 182 539 147 576 153 622 c 0
EndSplineSet
EndChar

StartChar: yacute
Encoding: 253 253 242
Width: 506
VWidth: 0
Flags: HMW
LayerCount: 2
Fore
SplineSet
571 460 m 1
 163 -220 l 1
 8 -220 l 1
 165 41 l 1
 43 460 l 1
 204 460 l 1
 285 90 l 1
 207 92 l 1
 413 460 l 1
 571 460 l 1
502 685 m 1
 304 538 l 1
 223 584 l 1
 393 740 l 1
 502 685 l 1
EndSplineSet
EndChar

StartChar: thorn
Encoding: 254 254 243
Width: 598
VWidth: 0
Flags: HMW
LayerCount: 2
Fore
SplineSet
141 -220 m 1
 -11 -220 l 1
 161 780 l 1
 312 780 l 1
 141 -220 l 1
582 230 m 0
 564 93 455 -11 332 -10 c 0
 208 -9 157 105 173 230 c 0
 191 361 283 470 405 470 c 0
 528 470 599 362 582 230 c 0
425 230 m 0
 434 290 403 346 342 347 c 0
 285 348 227 295 216 230 c 0
 207 170 240 115 295 113 c 0
 357 111 414 166 425 230 c 0
EndSplineSet
EndChar

StartChar: ydieresis
Encoding: 255 255 244
Width: 506
VWidth: 0
Flags: HMW
LayerCount: 2
Fore
SplineSet
571 460 m 1
 163 -220 l 1
 8 -220 l 1
 165 41 l 1
 43 460 l 1
 204 460 l 1
 285 90 l 1
 207 92 l 1
 413 460 l 1
 571 460 l 1
363 614 m 0
 369 659 415 695 461 694 c 0
 508 693 543 657 537 611 c 0
 531 566 485 530 439 531 c 0
 392 532 357 568 363 614 c 0
126 614 m 0
 132 659 177 695 223 694 c 0
 270 693 306 657 300 611 c 0
 294 566 247 530 201 531 c 0
 154 532 120 568 126 614 c 0
EndSplineSet
EndChar

StartChar: Amacron
Encoding: 256 256 245
Width: 713
VWidth: 0
Flags: HMW
LayerCount: 2
Fore
SplineSet
174 134 m 1
 207 263 l 1
 547 263 l 1
 535 134 l 1
 174 134 l 1
408 441 m 1
 274 216 l 1
 276 178 l 1
 162 0 l 1
 -32 0 l 1
 456 747 l 1
 688 0 l 1
 502 0 l 1
 448 172 l 1
 463 215 l 1
 408 441 l 1
286 805 m 1
 309 937 l 1
 672 937 l 1
 649 805 l 1
 286 805 l 1
EndSplineSet
EndChar

StartChar: amacron
Encoding: 257 257 246
Width: 598
VWidth: 0
Flags: HMW
LayerCount: 2
Fore
SplineSet
447 460 m 1
 597 460 l 1
 518 0 l 1
 369 0 l 1
 447 460 l 1
42 230 m 0
 60 367 168 471 291 470 c 0
 415 469 465 355 449 230 c 0
 431 99 342 -10 219 -10 c 0
 96 -10 25 98 42 230 c 0
199 230 m 0
 190 170 220 114 281 113 c 0
 338 112 395 165 406 230 c 0
 415 290 383 345 328 347 c 0
 266 349 210 294 199 230 c 0
183 534 m 1
 206 666 l 1
 570 666 l 1
 547 534 l 1
 183 534 l 1
EndSplineSet
Substitution2: "alt a" amacron.alt
EndChar

StartChar: breve
Encoding: 728 728 247
Width: 529
VWidth: 0
Flags: HMW
LayerCount: 2
Fore
SplineSet
218 850 m 1
 314 850 l 1
 315 818 329 793 365 792 c 0
 402 791 430 819 439 850 c 1
 539 849 l 1
 522 767 459 704 360 704 c 0
 262 704 214 767 218 850 c 1
EndSplineSet
EndChar

StartChar: Abreve
Encoding: 258 258 248
Width: 713
VWidth: 0
Flags: HMW
LayerCount: 2
Fore
SplineSet
174 134 m 1
 207 263 l 1
 547 263 l 1
 535 134 l 1
 174 134 l 1
408 441 m 1
 274 216 l 1
 276 178 l 1
 162 0 l 1
 -32 0 l 1
 456 747 l 1
 688 0 l 1
 502 0 l 1
 448 172 l 1
 463 215 l 1
 408 441 l 1
331 951 m 1
 427 951 l 1
 427 919 441 893 477 892 c 0
 514 891 542 920 552 951 c 1
 652 950 l 1
 634 868 571 805 472 805 c 0
 373 805 325 868 331 951 c 1
EndSplineSet
EndChar

StartChar: abreve
Encoding: 259 259 249
Width: 598
VWidth: 0
Flags: HMW
LayerCount: 2
Fore
SplineSet
447 460 m 1
 597 460 l 1
 518 0 l 1
 369 0 l 1
 447 460 l 1
42 230 m 0
 60 367 168 471 291 470 c 0
 415 469 465 355 449 230 c 0
 431 99 342 -10 219 -10 c 0
 96 -10 25 98 42 230 c 0
199 230 m 0
 190 170 220 114 281 113 c 0
 338 112 395 165 406 230 c 0
 415 290 383 345 328 347 c 0
 266 349 210 294 199 230 c 0
212 677 m 1
 308 676 l 1
 308 644 323 619 359 618 c 0
 396 617 424 645 433 676 c 1
 533 675 l 1
 515 593 452 531 353 531 c 0
 254 531 207 594 212 677 c 1
EndSplineSet
Substitution2: "alt a" abreve.alt
EndChar

StartChar: Aogonek
Encoding: 260 260 250
Width: 713
VWidth: 0
Flags: HMW
LayerCount: 2
Fore
SplineSet
174 134 m 1
 207 263 l 1
 547 263 l 1
 535 134 l 1
 174 134 l 1
408 441 m 1
 274 216 l 1
 276 178 l 1
 162 0 l 1
 -32 0 l 1
 456 747 l 1
 688 0 l 1
 502 0 l 1
 448 172 l 1
 463 215 l 1
 408 441 l 1
624 -110 m 1
 646 -182 l 1
 623 -202 592 -220 545 -220 c 0
 483 -220 436 -182 444 -119 c 0
 455 -49 533 -8 600 25 c 1
 640 0 l 1
 596 -26 552 -56 545 -94 c 0
 543 -114 550 -128 571 -130 c 0
 590 -132 610 -120 624 -110 c 1
EndSplineSet
EndChar

StartChar: aogonek
Encoding: 261 261 251
Width: 598
VWidth: 0
Flags: HMW
LayerCount: 2
Fore
SplineSet
447 460 m 1
 597 460 l 1
 518 0 l 1
 369 0 l 1
 447 460 l 1
42 230 m 0
 60 367 168 471 291 470 c 0
 415 469 465 355 449 230 c 0
 431 99 342 -10 219 -10 c 0
 96 -10 25 98 42 230 c 0
199 230 m 0
 190 170 220 114 281 113 c 0
 338 112 395 165 406 230 c 0
 415 290 383 345 328 347 c 0
 266 349 210 294 199 230 c 0
470 -110 m 1
 492 -182 l 1
 469 -202 438 -220 391 -220 c 0
 329 -220 282 -182 290 -119 c 0
 301 -49 380 -8 447 25 c 1
 486 0 l 1
 442 -26 399 -56 392 -94 c 0
 390 -114 397 -128 418 -130 c 0
 437 -132 456 -120 470 -110 c 1
EndSplineSet
Substitution2: "alt a" aogonek.alt
EndChar

StartChar: Cacute
Encoding: 262 262 252
Width: 679
VWidth: 0
Flags: HMW
LayerCount: 2
Fore
SplineSet
247 350 m 0
 229 237 295 148 409 146 c 0
 502 145 572 190 630 238 c 1
 603 54 l 1
 541 12 473 -16 382 -16 c 0
 166 -15 34 146 64 350 c 0
 96 561 275 716 496 716 c 0
 584 716 645 690 701 645 c 1
 673 461 l 1
 631 515 573 554 488 554 c 0
 372 554 268 469 247 350 c 0
664 924 m 1
 467 777 l 1
 385 822 l 1
 556 978 l 1
 664 924 l 1
EndSplineSet
EndChar

StartChar: cacute
Encoding: 263 263 253
Width: 478
VWidth: 0
Flags: HMW
LayerCount: 2
Fore
SplineSet
194 230 m 0
 184 165 221 114 288 112 c 0
 344 111 397 140 433 178 c 1
 412 31 l 1
 373 6 325 -10 264 -10 c 0
 119 -10 20 91 40 230 c 0
 61 372 187 470 336 470 c 0
 395 470 439 454 476 430 c 1
 454 281 l 1
 430 324 386 348 337 348 c 0
 269 348 206 296 194 230 c 0
504 678 m 1
 307 531 l 1
 225 576 l 1
 395 733 l 1
 504 678 l 1
EndSplineSet
EndChar

StartChar: Ccircumflex
Encoding: 264 264 254
Width: 679
VWidth: 0
Flags: HMW
LayerCount: 2
Fore
SplineSet
247 350 m 0
 229 237 295 148 409 146 c 0
 502 145 572 190 630 238 c 1
 603 54 l 1
 541 12 473 -16 382 -16 c 0
 166 -15 34 146 64 350 c 0
 96 561 275 716 496 716 c 0
 584 716 645 690 701 645 c 1
 673 461 l 1
 631 515 573 554 488 554 c 0
 372 554 268 469 247 350 c 0
530 861 m 1
 427 777 l 1
 331 851 l 1
 544 988 l 1
 716 846 l 1
 603 776 l 1
 530 861 l 1
EndSplineSet
EndChar

StartChar: ccircumflex
Encoding: 265 265 255
Width: 478
VWidth: 0
Flags: HMW
LayerCount: 2
Fore
SplineSet
194 230 m 0
 184 165 221 114 288 112 c 0
 344 111 397 140 433 178 c 1
 412 31 l 1
 373 6 325 -10 264 -10 c 0
 119 -10 20 91 40 230 c 0
 61 372 187 470 336 470 c 0
 395 470 439 454 476 430 c 1
 454 281 l 1
 430 324 386 348 337 348 c 0
 269 348 206 296 194 230 c 0
339 615 m 1
 236 531 l 1
 140 605 l 1
 352 743 l 1
 525 600 l 1
 412 530 l 1
 339 615 l 1
EndSplineSet
EndChar

StartChar: Cdotaccent
Encoding: 266 266 256
Width: 679
VWidth: 0
Flags: HMW
LayerCount: 2
Fore
SplineSet
247 350 m 0
 229 237 295 148 409 146 c 0
 502 145 572 190 630 238 c 1
 603 54 l 1
 541 12 473 -16 382 -16 c 0
 166 -15 34 146 64 350 c 0
 96 561 275 716 496 716 c 0
 584 716 645 690 701 645 c 1
 673 461 l 1
 631 515 573 554 488 554 c 0
 372 554 268 469 247 350 c 0
414 860 m 0
 420 905 466 941 512 940 c 0
 559 939 594 903 588 857 c 0
 582 812 536 776 490 777 c 0
 443 778 408 814 414 860 c 0
EndSplineSet
EndChar

StartChar: cdotaccent
Encoding: 267 267 257
Width: 478
VWidth: 0
Flags: HMW
LayerCount: 2
Fore
SplineSet
194 230 m 0
 184 165 221 114 288 112 c 0
 344 111 397 140 433 178 c 1
 412 31 l 1
 373 6 325 -10 264 -10 c 0
 119 -10 20 91 40 230 c 0
 61 372 187 470 336 470 c 0
 395 470 439 454 476 430 c 1
 454 281 l 1
 430 324 386 348 337 348 c 0
 269 348 206 296 194 230 c 0
255 620 m 0
 261 665 307 702 353 701 c 0
 400 700 435 664 429 618 c 0
 423 573 377 536 331 537 c 0
 284 538 249 574 255 620 c 0
EndSplineSet
EndChar

StartChar: Ccaron
Encoding: 268 268 258
Width: 679
VWidth: 0
Flags: HMW
LayerCount: 2
Fore
SplineSet
247 350 m 0
 229 237 295 148 409 146 c 0
 502 145 572 190 630 238 c 1
 603 54 l 1
 541 12 473 -16 382 -16 c 0
 166 -15 34 146 64 350 c 0
 96 561 275 716 496 716 c 0
 584 716 645 690 701 645 c 1
 673 461 l 1
 631 515 573 554 488 554 c 0
 372 554 268 469 247 350 c 0
529 903 m 1
 632 988 l 1
 728 914 l 1
 515 776 l 1
 343 919 l 1
 456 989 l 1
 529 903 l 1
EndSplineSet
EndChar

StartChar: ccaron
Encoding: 269 269 259
Width: 478
VWidth: 0
Flags: HMW
LayerCount: 2
Fore
SplineSet
194 230 m 0
 184 165 221 114 288 112 c 0
 344 111 397 140 433 178 c 1
 412 31 l 1
 373 6 325 -10 264 -10 c 0
 119 -10 20 91 40 230 c 0
 61 372 187 470 336 470 c 0
 395 470 439 454 476 430 c 1
 454 281 l 1
 430 324 386 348 337 348 c 0
 269 348 206 296 194 230 c 0
339 658 m 1
 442 742 l 1
 537 668 l 1
 324 530 l 1
 151 674 l 1
 265 743 l 1
 339 658 l 1
EndSplineSet
EndChar

StartChar: Dcaron
Encoding: 270 270 260
Width: 710
VWidth: 0
Flags: HMW
LayerCount: 2
Fore
SplineSet
162 700 m 1
 337 700 l 1
 217 0 l 1
 44 0 l 1
 162 700 l 1
293 0 m 1
 152 0 l 1
 180 152 l 1
 303 152 l 1
 418 155 518 217 540 350 c 0
 560 477 493 545 380 548 c 1
 246 548 l 1
 273 700 l 1
 403 700 l 1
 619 697 745 554 714 350 c 0
 682 140 514 3 293 0 c 1
488 903 m 1
 591 988 l 1
 686 914 l 1
 474 776 l 1
 302 919 l 1
 414 989 l 1
 488 903 l 1
EndSplineSet
EndChar

StartChar: dcaron
Encoding: 271 271 261
Width: 598
VWidth: 0
Flags: HMW
LayerCount: 2
Fore
SplineSet
500 780 m 1
 652 780 l 1
 518 0 l 1
 367 0 l 1
 500 780 l 1
42 230 m 0
 60 367 168 471 291 470 c 0
 415 469 465 355 449 230 c 0
 431 99 342 -10 219 -10 c 0
 96 -10 25 98 42 230 c 0
199 230 m 0
 190 170 220 114 281 113 c 0
 338 112 396 165 407 230 c 0
 416 290 383 345 328 347 c 0
 266 349 210 294 199 230 c 0
761 779 m 1
 910 745 l 1
 745 498 l 1
 632 522 l 1
 761 779 l 1
EndSplineSet
EndChar

StartChar: Dcroat
Encoding: 272 272 262
Width: 710
VWidth: 0
Flags: HMW
LayerCount: 2
Fore
SplineSet
27 297 m 1
 45 398 l 1
 382 398 l 1
 364 297 l 1
 27 297 l 1
162 700 m 1
 337 700 l 1
 217 0 l 1
 44 0 l 1
 162 700 l 1
293 0 m 1
 152 0 l 1
 180 152 l 1
 303 152 l 1
 418 155 518 217 540 350 c 0
 560 477 493 545 380 548 c 1
 246 548 l 1
 273 700 l 1
 403 700 l 1
 619 697 745 554 714 350 c 0
 682 140 514 3 293 0 c 1
EndSplineSet
EndChar

StartChar: dcroat
Encoding: 273 273 263
Width: 598
VWidth: 0
Flags: HMW
LayerCount: 2
Fore
SplineSet
354 565 m 1
 372 665 l 1
 721 665 l 1
 703 565 l 1
 354 565 l 1
500 780 m 1
 652 780 l 1
 518 0 l 1
 367 0 l 1
 500 780 l 1
42 230 m 0
 60 367 168 471 291 470 c 0
 415 469 465 355 449 230 c 0
 431 99 342 -10 219 -10 c 0
 96 -10 25 98 42 230 c 0
199 230 m 0
 190 170 220 114 281 113 c 0
 338 112 396 165 407 230 c 0
 416 290 383 345 328 347 c 0
 266 349 210 294 199 230 c 0
EndSplineSet
EndChar

StartChar: Emacron
Encoding: 274 274 264
Width: 584
VWidth: 0
Flags: HMW
LayerCount: 2
Fore
SplineSet
153 0 m 1
 177 140 l 1
 523 140 l 1
 498 0 l 1
 153 0 l 1
249 560 m 1
 273 700 l 1
 619 700 l 1
 594 560 l 1
 249 560 l 1
204 299 m 1
 228 436 l 1
 554 436 l 1
 530 299 l 1
 204 299 l 1
162 700 m 1
 325 700 l 1
 204 0 l 1
 44 0 l 1
 162 700 l 1
221 777 m 1
 244 909 l 1
 608 909 l 1
 585 776 l 1
 221 777 l 1
EndSplineSet
EndChar

StartChar: emacron
Encoding: 275 275 265
Width: 556
VWidth: 0
Flags: HMW
LayerCount: 2
Fore
SplineSet
122 198 m 1
 135 281 l 1
 385 282 l 1
 384 329 371 367 319 368 c 0
 255 370 212 315 199 253 c 1
 192 230 l 1
 182 158 205 104 269 101 c 0
 320 99 361 125 389 158 c 1
 521 124 l 1
 462 44 382 -11 262 -10 c 0
 107 -9 22 94 42 230 c 0
 44 247 48 263 53 279 c 0
 90 393 192 470 331 470 c 0
 481 470 557 375 539 237 c 0
 538 226 535 213 532 198 c 1
 122 198 l 1
165 531 m 1
 188 662 l 1
 552 662 l 1
 528 530 l 1
 165 531 l 1
EndSplineSet
EndChar

StartChar: Ebreve
Encoding: 276 276 266
Width: 584
VWidth: 0
Flags: HMW
LayerCount: 2
Fore
SplineSet
153 0 m 1
 177 140 l 1
 523 140 l 1
 498 0 l 1
 153 0 l 1
249 560 m 1
 273 700 l 1
 619 700 l 1
 594 560 l 1
 249 560 l 1
204 299 m 1
 228 436 l 1
 554 436 l 1
 530 299 l 1
 204 299 l 1
162 700 m 1
 325 700 l 1
 204 0 l 1
 44 0 l 1
 162 700 l 1
266 923 m 1
 362 923 l 1
 362 891 377 865 413 864 c 0
 450 863 477 891 487 922 c 1
 588 922 l 1
 570 840 507 777 408 777 c 0
 309 777 260 840 266 923 c 1
EndSplineSet
EndChar

StartChar: ebreve
Encoding: 277 277 267
Width: 556
VWidth: 0
Flags: HMW
LayerCount: 2
Fore
SplineSet
122 198 m 1
 135 281 l 1
 385 282 l 1
 384 329 371 367 319 368 c 0
 255 370 212 315 199 253 c 1
 192 230 l 1
 182 158 205 104 269 101 c 0
 320 99 361 125 389 158 c 1
 521 124 l 1
 462 44 382 -11 262 -10 c 0
 107 -9 22 94 42 230 c 0
 44 247 48 263 53 279 c 0
 90 393 192 470 331 470 c 0
 481 470 557 375 539 237 c 0
 538 226 535 213 532 198 c 1
 122 198 l 1
210 677 m 1
 306 677 l 1
 306 645 321 620 357 619 c 0
 394 618 421 645 431 676 c 1
 531 676 l 1
 513 595 450 531 351 531 c 0
 252 531 204 594 210 677 c 1
EndSplineSet
EndChar

StartChar: Edotaccent
Encoding: 278 278 268
Width: 584
VWidth: 0
Flags: HMW
LayerCount: 2
Fore
SplineSet
153 0 m 1
 177 140 l 1
 523 140 l 1
 498 0 l 1
 153 0 l 1
249 560 m 1
 273 700 l 1
 619 700 l 1
 594 560 l 1
 249 560 l 1
204 299 m 1
 228 436 l 1
 554 436 l 1
 530 299 l 1
 204 299 l 1
162 700 m 1
 325 700 l 1
 204 0 l 1
 44 0 l 1
 162 700 l 1
330 860 m 0
 336 905 382 941 428 940 c 0
 475 939 510 903 504 857 c 0
 498 812 452 776 406 777 c 0
 359 778 324 814 330 860 c 0
EndSplineSet
EndChar

StartChar: edotaccent
Encoding: 279 279 269
Width: 556
VWidth: 0
Flags: HMW
LayerCount: 2
Fore
SplineSet
122 198 m 1
 135 281 l 1
 385 282 l 1
 384 329 371 367 319 368 c 0
 255 370 212 315 199 253 c 1
 192 230 l 1
 182 158 205 104 269 101 c 0
 320 99 361 125 389 158 c 1
 521 124 l 1
 462 44 382 -11 262 -10 c 0
 107 -9 22 94 42 230 c 0
 44 247 48 263 53 279 c 0
 90 393 192 470 331 470 c 0
 481 470 557 375 539 237 c 0
 538 226 535 213 532 198 c 1
 122 198 l 1
274 614 m 0
 280 659 325 695 371 694 c 0
 418 693 453 657 447 611 c 0
 441 566 395 530 349 531 c 0
 302 532 268 568 274 614 c 0
EndSplineSet
EndChar

StartChar: Eogonek
Encoding: 280 280 270
Width: 584
VWidth: 0
Flags: HMW
LayerCount: 2
Fore
SplineSet
153 0 m 1
 177 140 l 1
 523 140 l 1
 498 0 l 1
 153 0 l 1
249 560 m 1
 273 700 l 1
 619 700 l 1
 594 560 l 1
 249 560 l 1
204 299 m 1
 228 436 l 1
 554 436 l 1
 530 299 l 1
 204 299 l 1
162 700 m 1
 325 700 l 1
 204 0 l 1
 44 0 l 1
 162 700 l 1
341 -110 m 1
 363 -182 l 1
 340 -202 308 -220 261 -220 c 0
 199 -220 152 -182 160 -119 c 0
 171 -49 250 -8 317 25 c 1
 357 0 l 1
 313 -26 269 -56 262 -94 c 0
 260 -114 267 -128 288 -130 c 0
 307 -132 327 -120 341 -110 c 1
EndSplineSet
EndChar

StartChar: eogonek
Encoding: 281 281 271
Width: 556
VWidth: 0
Flags: HMW
LayerCount: 2
Fore
SplineSet
122 198 m 1
 135 281 l 1
 385 282 l 1
 384 329 371 367 319 368 c 0
 255 370 212 315 199 253 c 1
 192 230 l 1
 182 158 205 104 269 101 c 0
 320 99 361 125 389 158 c 1
 521 124 l 1
 462 44 382 -11 262 -10 c 0
 107 -9 22 94 42 230 c 0
 44 247 48 263 53 279 c 0
 90 393 192 470 331 470 c 0
 481 470 557 375 539 237 c 0
 538 226 535 213 532 198 c 1
 122 198 l 1
272 -103 m 1
 294 -173 l 1
 271 -193 239 -211 192 -211 c 0
 130 -211 84 -174 92 -111 c 0
 103 -41 181 0 248 33 c 1
 288 6 l 1
 244 -18 201 -49 194 -86 c 0
 191 -106 198 -120 219 -122 c 0
 238 -124 258 -113 272 -103 c 1
EndSplineSet
EndChar

StartChar: Ecaron
Encoding: 282 282 272
Width: 584
VWidth: 0
Flags: HMW
LayerCount: 2
Fore
SplineSet
153 0 m 1
 177 140 l 1
 523 140 l 1
 498 0 l 1
 153 0 l 1
249 560 m 1
 273 700 l 1
 619 700 l 1
 594 560 l 1
 249 560 l 1
204 299 m 1
 228 436 l 1
 554 436 l 1
 530 299 l 1
 204 299 l 1
162 700 m 1
 325 700 l 1
 204 0 l 1
 44 0 l 1
 162 700 l 1
421 903 m 1
 524 988 l 1
 619 914 l 1
 407 776 l 1
 234 919 l 1
 347 989 l 1
 421 903 l 1
EndSplineSet
EndChar

StartChar: ecaron
Encoding: 283 283 273
Width: 556
VWidth: 0
Flags: HMW
LayerCount: 2
Fore
SplineSet
122 198 m 1
 135 281 l 1
 385 282 l 1
 384 329 371 367 319 368 c 0
 255 370 212 315 199 253 c 1
 192 230 l 1
 182 158 205 104 269 101 c 0
 320 99 361 125 389 158 c 1
 521 124 l 1
 462 44 382 -11 262 -10 c 0
 107 -9 22 94 42 230 c 0
 44 247 48 263 53 279 c 0
 90 393 192 470 331 470 c 0
 481 470 557 375 539 237 c 0
 538 226 535 213 532 198 c 1
 122 198 l 1
364 658 m 1
 467 742 l 1
 562 668 l 1
 350 530 l 1
 178 674 l 1
 291 743 l 1
 364 658 l 1
EndSplineSet
EndChar

StartChar: Gcircumflex
Encoding: 284 284 274
Width: 790
VWidth: 0
Flags: HMW
LayerCount: 2
Fore
SplineSet
422 253 m 1
 446 384 l 1
 790 383 l 1
 766 168 614 -23 379 -23 c 0
 163 -23 34 145 64 350 c 0
 97 563 281 716 501 716 c 0
 635 716 728 651 786 549 c 1
 628 472 l 1
 603 528 559 567 486 567 c 0
 365 569 261 475 240 350 c 0
 221 231 276 127 400 126 c 0
 499 125 565 184 605 254 c 1
 422 253 l 1
534 861 m 1
 432 777 l 1
 336 851 l 1
 549 988 l 1
 721 846 l 1
 608 776 l 1
 534 861 l 1
EndSplineSet
EndChar

StartChar: gcircumflex
Encoding: 285 285 275
Width: 592
VWidth: 0
Flags: HMW
LayerCount: 2
Fore
SplineSet
6 -33 m 1
 149 -34 l 1
 151 -86 177 -117 233 -117 c 0
 302 -118 355 -64 368 10 c 1
 445 460 l 1
 591 460 l 1
 514 10 l 2
 489 -148 375 -239 228 -239 c 0
 76 -239 5 -159 6 -33 c 1
42 237 m 0
 60 374 169 471 291 470 c 0
 414 469 467 362 451 236 c 0
 433 105 343 3 221 3 c 0
 99 3 25 104 42 237 c 0
200 236 m 0
 191 176 223 127 283 126 c 0
 339 125 399 173 409 237 c 0
 418 298 383 345 328 347 c 0
 266 349 210 299 200 236 c 0
392 615 m 1
 289 531 l 1
 194 605 l 1
 407 743 l 1
 579 600 l 1
 465 530 l 1
 392 615 l 1
EndSplineSet
EndChar

StartChar: Gbreve
Encoding: 286 286 276
Width: 790
VWidth: 0
Flags: HMW
LayerCount: 2
Fore
SplineSet
422 253 m 1
 446 384 l 1
 790 383 l 1
 766 168 614 -23 379 -23 c 0
 163 -23 34 145 64 350 c 0
 97 563 281 716 501 716 c 0
 635 716 728 651 786 549 c 1
 628 472 l 1
 603 528 559 567 486 567 c 0
 365 569 261 475 240 350 c 0
 221 231 276 127 400 126 c 0
 499 125 565 184 605 254 c 1
 422 253 l 1
380 923 m 1
 476 923 l 1
 476 891 490 865 526 864 c 0
 563 863 591 891 601 922 c 1
 701 922 l 1
 683 840 620 777 521 777 c 0
 422 777 374 840 380 923 c 1
EndSplineSet
EndChar

StartChar: gbreve
Encoding: 287 287 277
Width: 592
VWidth: 0
Flags: HMW
LayerCount: 2
Fore
SplineSet
6 -33 m 1
 149 -34 l 1
 151 -86 177 -117 233 -117 c 0
 302 -118 355 -64 368 10 c 1
 445 460 l 1
 591 460 l 1
 514 10 l 2
 489 -148 375 -239 228 -239 c 0
 76 -239 5 -159 6 -33 c 1
42 237 m 0
 60 374 169 471 291 470 c 0
 414 469 467 362 451 236 c 0
 433 105 343 3 221 3 c 0
 99 3 25 104 42 237 c 0
200 236 m 0
 191 176 223 127 283 126 c 0
 339 125 399 173 409 237 c 0
 418 298 383 345 328 347 c 0
 266 349 210 299 200 236 c 0
238 677 m 1
 334 677 l 1
 334 645 348 620 384 619 c 0
 421 618 449 645 459 676 c 1
 559 676 l 1
 541 595 477 531 378 531 c 0
 279 531 232 594 238 677 c 1
EndSplineSet
EndChar

StartChar: Gdotaccent
Encoding: 288 288 278
Width: 790
VWidth: 0
Flags: HMW
LayerCount: 2
Fore
SplineSet
422 253 m 1
 446 384 l 1
 790 383 l 1
 766 168 614 -23 379 -23 c 0
 163 -23 34 145 64 350 c 0
 97 563 281 716 501 716 c 0
 635 716 728 651 786 549 c 1
 628 472 l 1
 603 528 559 567 486 567 c 0
 365 569 261 475 240 350 c 0
 221 231 276 127 400 126 c 0
 499 125 565 184 605 254 c 1
 422 253 l 1
443 860 m 0
 449 905 495 941 541 940 c 0
 588 939 624 903 618 857 c 0
 612 812 566 776 520 777 c 0
 473 778 437 814 443 860 c 0
EndSplineSet
EndChar

StartChar: gdotaccent
Encoding: 289 289 279
Width: 592
VWidth: 0
Flags: HMW
LayerCount: 2
Fore
SplineSet
6 -33 m 1
 149 -34 l 1
 151 -86 177 -117 233 -117 c 0
 302 -118 355 -64 368 10 c 1
 445 460 l 1
 591 460 l 1
 514 10 l 2
 489 -148 375 -239 228 -239 c 0
 76 -239 5 -159 6 -33 c 1
42 237 m 0
 60 374 169 471 291 470 c 0
 414 469 467 362 451 236 c 0
 433 105 343 3 221 3 c 0
 99 3 25 104 42 237 c 0
200 236 m 0
 191 176 223 127 283 126 c 0
 339 125 399 173 409 237 c 0
 418 298 383 345 328 347 c 0
 266 349 210 299 200 236 c 0
292 629 m 0
 298 674 344 710 390 709 c 0
 437 708 472 673 466 627 c 0
 460 582 414 545 368 546 c 0
 321 547 286 583 292 629 c 0
EndSplineSet
EndChar

StartChar: uni0122
Encoding: 290 290 280
Width: 790
VWidth: 0
Flags: HMW
LayerCount: 2
Fore
SplineSet
422 253 m 1
 446 384 l 1
 790 383 l 1
 766 168 614 -23 379 -23 c 0
 163 -23 34 145 64 350 c 0
 97 563 281 716 501 716 c 0
 635 716 728 651 786 549 c 1
 628 472 l 1
 603 528 559 567 486 567 c 0
 365 569 261 475 240 350 c 0
 221 231 276 127 400 126 c 0
 499 125 565 184 605 254 c 1
 422 253 l 1
299 -84 m 1
 447 -117 l 1
 283 -364 l 1
 170 -340 l 1
 299 -84 l 1
EndSplineSet
EndChar

StartChar: Hcircumflex
Encoding: 292 292 281
Width: 763
VWidth: 0
Flags: HMW
LayerCount: 2
Fore
SplineSet
138 293 m 1
 165 445 l 1
 683 445 l 1
 656 293 l 1
 138 293 l 1
618 700 m 1
 788 700 l 1
 667 0 l 1
 500 0 l 1
 618 700 l 1
162 700 m 1
 331 700 l 1
 211 0 l 1
 44 0 l 1
 162 700 l 1
506 861 m 1
 403 777 l 1
 308 851 l 1
 520 988 l 1
 692 846 l 1
 580 776 l 1
 506 861 l 1
EndSplineSet
EndChar

StartChar: hcircumflex
Encoding: 293 293 282
Width: 551
VWidth: 0
Flags: HMW
LayerCount: 2
Fore
SplineSet
314 780 m 1
 180 0 l 1
 28 0 l 1
 162 780 l 1
 314 780 l 1
368 280 m 1
 372 323 368 360 321 363 c 0
 273 366 239 325 228 281 c 1
 197 281 l 1
 216 383 277 477 391 477 c 0
 502 477 532 403 520 303 c 1
 469 0 l 1
 318 0 l 1
 368 280 l 1
361 924 m 1
 258 840 l 1
 163 915 l 1
 375 1052 l 1
 548 909 l 1
 435 840 l 1
 361 924 l 1
EndSplineSet
EndChar

StartChar: Itilde
Encoding: 296 296 283
Width: 311
VWidth: 0
Flags: HMW
LayerCount: 2
Fore
SplineSet
162 700 m 1
 334 700 l 1
 214 0 l 1
 44 0 l 1
 162 700 l 1
81 845 m 1
 102 891 147 938 209 936 c 0
 264 935 283 884 333 886 c 0
 362 887 386 912 408 938 c 1
 468 862 l 1
 442 824 386 776 326 778 c 0
 277 780 246 833 200 830 c 0
 167 828 152 798 144 780 c 1
 81 845 l 1
EndSplineSet
EndChar

StartChar: itilde
Encoding: 297 297 284
Width: 267
VWidth: 0
Flags: HMW
LayerCount: 2
Fore
SplineSet
112 460 m 1
 259 460 l 1
 179 0 l 1
 34 0 l 1
 112 460 l 1
17 599 m 1
 38 645 83 693 145 691 c 0
 200 690 219 638 269 640 c 0
 298 641 322 667 344 693 c 1
 404 616 l 1
 378 578 322 530 262 532 c 0
 213 534 182 587 136 584 c 0
 103 582 88 552 80 534 c 1
 17 599 l 1
EndSplineSet
EndChar

StartChar: Imacron
Encoding: 298 298 285
Width: 311
VWidth: 0
Flags: HMW
LayerCount: 2
Fore
SplineSet
162 700 m 1
 334 700 l 1
 214 0 l 1
 44 0 l 1
 162 700 l 1
79 777 m 1
 103 909 l 1
 466 909 l 1
 443 776 l 1
 79 777 l 1
EndSplineSet
EndChar

StartChar: imacron
Encoding: 299 299 286
Width: 267
VWidth: 0
Flags: HMW
LayerCount: 2
Fore
SplineSet
112 460 m 1
 259 460 l 1
 179 0 l 1
 34 0 l 1
 112 460 l 1
16 531 m 1
 39 662 l 1
 402 662 l 1
 379 530 l 1
 16 531 l 1
EndSplineSet
EndChar

StartChar: Ibreve
Encoding: 300 300 287
Width: 311
VWidth: 0
Flags: HMW
LayerCount: 2
Fore
SplineSet
162 700 m 1
 334 700 l 1
 214 0 l 1
 44 0 l 1
 162 700 l 1
125 923 m 1
 221 923 l 1
 221 891 236 865 272 864 c 0
 309 863 336 891 346 922 c 1
 445 922 l 1
 427 841 365 777 266 777 c 0
 167 777 119 840 125 923 c 1
EndSplineSet
EndChar

StartChar: ibreve
Encoding: 301 301 288
Width: 267
VWidth: 0
Flags: HMW
LayerCount: 2
Fore
SplineSet
112 460 m 1
 259 460 l 1
 179 0 l 1
 34 0 l 1
 112 460 l 1
61 677 m 1
 156 677 l 1
 156 645 171 620 207 619 c 0
 244 618 272 645 282 676 c 1
 381 676 l 1
 363 595 301 531 202 531 c 0
 103 531 55 594 61 677 c 1
EndSplineSet
EndChar

StartChar: Iogonek
Encoding: 302 302 289
Width: 311
VWidth: 0
Flags: HMW
LayerCount: 2
Fore
SplineSet
162 700 m 1
 334 700 l 1
 214 0 l 1
 44 0 l 1
 162 700 l 1
172 -109 m 1
 195 -179 l 1
 172 -199 140 -218 93 -218 c 0
 31 -218 -16 -180 -8 -117 c 0
 2 -47 81 -6 148 27 c 1
 188 0 l 1
 143 -25 100 -54 93 -92 c 0
 90 -112 98 -127 119 -129 c 0
 138 -131 158 -119 172 -109 c 1
EndSplineSet
EndChar

StartChar: iogonek
Encoding: 303 303 290
Width: 267
VWidth: 0
Flags: HMW
LayerCount: 2
Fore
SplineSet
128 634 m 0
 134 679 179 715 225 714 c 0
 272 713 308 677 302 631 c 0
 296 586 251 550 205 551 c 0
 158 552 122 588 128 634 c 0
112 460 m 1
 259 460 l 1
 179 0 l 1
 34 0 l 1
 112 460 l 1
139 -110 m 1
 161 -182 l 1
 138 -202 106 -220 59 -220 c 0
 -3 -220 -50 -182 -42 -119 c 0
 -31 -49 48 -8 115 25 c 1
 155 0 l 1
 111 -26 67 -56 60 -94 c 0
 58 -114 64 -128 85 -130 c 0
 104 -132 125 -120 139 -110 c 1
EndSplineSet
EndChar

StartChar: Idotaccent
Encoding: 304 304 291
Width: 311
VWidth: 0
Flags: HMW
LayerCount: 2
Fore
SplineSet
162 700 m 1
 334 700 l 1
 214 0 l 1
 44 0 l 1
 162 700 l 1
188 860 m 0
 194 905 240 941 286 940 c 0
 333 939 368 903 362 857 c 0
 356 812 310 776 264 777 c 0
 217 778 182 814 188 860 c 0
EndSplineSet
EndChar

StartChar: uni0136
Encoding: 310 310 292
Width: 680
VWidth: 0
Flags: HMW
LayerCount: 2
Fore
SplineSet
162 700 m 1
 338 700 l 1
 217 0 l 1
 44 0 l 1
 162 700 l 1
561 700 m 1
 765 700 l 1
 428 368 l 1
 653 0 l 1
 456 0 l 1
 231 371 l 1
 561 700 l 1
281 -61 m 1
 429 -95 l 1
 265 -342 l 1
 151 -318 l 1
 281 -61 l 1
EndSplineSet
EndChar

StartChar: uni0137
Encoding: 311 311 293
Width: 561
VWidth: 0
Flags: HMW
LayerCount: 2
Fore
SplineSet
160 780 m 1
 306 780 l 1
 172 0 l 1
 27 0 l 1
 160 780 l 1
407 460 m 1
 593 460 l 1
 364 267 l 1
 527 0 l 1
 357 0 l 1
 189 274 l 1
 407 460 l 1
209 -61 m 1
 358 -95 l 1
 193 -342 l 1
 80 -318 l 1
 209 -61 l 1
EndSplineSet
EndChar

StartChar: Lacute
Encoding: 313 313 294
Width: 513
VWidth: 0
Flags: HMW
LayerCount: 2
Fore
SplineSet
163 700 m 1
 331 700 l 1
 236 147 l 1
 509 147 l 1
 484 0 l 1
 43 0 l 1
 163 700 l 1
580 924 m 1
 383 777 l 1
 301 822 l 1
 471 978 l 1
 580 924 l 1
EndSplineSet
EndChar

StartChar: lacute
Encoding: 314 314 295
Width: 262
VWidth: 0
Flags: HMW
LayerCount: 2
Fore
SplineSet
162 780 m 1
 314 780 l 1
 180 0 l 1
 29 0 l 1
 162 780 l 1
432 987 m 1
 235 841 l 1
 153 885 l 1
 323 1042 l 1
 432 987 l 1
EndSplineSet
EndChar

StartChar: uni013B
Encoding: 315 315 296
Width: 513
VWidth: 0
Flags: HMW
LayerCount: 2
Fore
SplineSet
163 700 m 1
 331 700 l 1
 236 147 l 1
 509 147 l 1
 484 0 l 1
 43 0 l 1
 163 700 l 1
220 -61 m 1
 367 -95 l 1
 203 -342 l 1
 90 -318 l 1
 220 -61 l 1
EndSplineSet
EndChar

StartChar: uni013C
Encoding: 316 316 297
Width: 262
VWidth: 0
Flags: HMW
LayerCount: 2
Fore
SplineSet
162 780 m 1
 314 780 l 1
 180 0 l 1
 29 0 l 1
 162 780 l 1
60 -61 m 1
 208 -95 l 1
 43 -342 l 1
 -69 -318 l 1
 60 -61 l 1
EndSplineSet
EndChar

StartChar: Lcaron
Encoding: 317 317 298
Width: 513
VWidth: 0
Flags: HMW
LayerCount: 2
Fore
SplineSet
163 700 m 1
 331 700 l 1
 236 147 l 1
 509 147 l 1
 484 0 l 1
 43 0 l 1
 163 700 l 1
494 715 m 1
 642 682 l 1
 478 435 l 1
 365 459 l 1
 494 715 l 1
EndSplineSet
EndChar

StartChar: lcaron
Encoding: 318 318 299
Width: 262
VWidth: 0
Flags: HMW
LayerCount: 2
Fore
SplineSet
162 780 m 1
 314 780 l 1
 180 0 l 1
 29 0 l 1
 162 780 l 1
443 779 m 1
 592 745 l 1
 427 498 l 1
 314 522 l 1
 443 779 l 1
EndSplineSet
EndChar

StartChar: Ldot
Encoding: 319 319 300
Width: 513
VWidth: 0
Flags: HMW
LayerCount: 2
Fore
SplineSet
163 700 m 1
 331 700 l 1
 236 147 l 1
 509 147 l 1
 484 0 l 1
 43 0 l 1
 163 700 l 1
360 432 m 0
 366 481 414 524 466 523 c 0
 519 522 553 479 547 430 c 0
 541 381 493 337 441 338 c 0
 388 339 354 383 360 432 c 0
EndSplineSet
EndChar

StartChar: ldot
Encoding: 320 320 301
Width: 463
VWidth: 0
Flags: HMW
LayerCount: 2
Fore
SplineSet
162 780 m 1
 314 780 l 1
 180 0 l 1
 29 0 l 1
 162 780 l 1
287 410 m 0
 293 459 341 502 393 501 c 0
 446 500 479 457 473 408 c 0
 467 359 420 315 368 316 c 0
 315 317 281 361 287 410 c 0
EndSplineSet
EndChar

StartChar: eth
Encoding: 240 240 302
Width: 649
VWidth: 0
Flags: HMW
LayerCount: 2
Fore
SplineSet
454 246 m 0
 464 307 431 363 365 364 c 0
 298 365 238 312 227 246 c 0
 217 184 250 131 316 130 c 0
 383 129 443 180 454 246 c 0
417 697 m 1
 570 442 l 2
 606 382 629 318 619 246 c 0
 596 85 458 -16 301 -16 c 0
 147 -16 40 89 62 247 c 0
 80 376 193 473 308 474 c 0
 356 474 385 462 420 428 c 1
 389 444 l 1
 212 697 l 1
 417 697 l 1
195 520 m 1
 206 598 l 1
 635 598 l 1
 622 520 l 1
 195 520 l 1
EndSplineSet
EndChar

StartChar: racute
Encoding: 341 341 303
Width: 399
VWidth: 0
Flags: HMW
LayerCount: 2
Fore
SplineSet
256 460 m 1
 177 0 l 1
 28 0 l 1
 108 460 l 1
 256 460 l 1
360 303 m 1
 345 317 331 328 308 328 c 0
 258 329 226 280 215 227 c 1
 188 281 l 1
 205 376 275 473 365 471 c 0
 398 471 424 454 443 431 c 1
 360 303 l 1
473 678 m 1
 276 532 l 1
 195 577 l 1
 365 733 l 1
 473 678 l 1
EndSplineSet
EndChar

StartChar: rcaron
Encoding: 345 345 304
Width: 399
VWidth: 0
Flags: HMW
LayerCount: 2
Fore
SplineSet
256 460 m 1
 177 0 l 1
 28 0 l 1
 108 460 l 1
 256 460 l 1
360 303 m 1
 345 317 331 328 308 328 c 0
 258 329 226 280 215 227 c 1
 187 281 l 1
 204 376 275 473 365 471 c 0
 398 471 424 454 443 431 c 1
 360 303 l 1
308 659 m 1
 411 743 l 1
 506 668 l 1
 294 531 l 1
 121 674 l 1
 235 743 l 1
 308 659 l 1
EndSplineSet
EndChar

StartChar: Rcaron
Encoding: 344 344 305
Width: 628
VWidth: 0
Flags: HMW
LayerCount: 2
Fore
SplineSet
270 316 m 1
 440 316 l 1
 597 0 l 1
 406 0 l 1
 270 316 l 1
162 700 m 1
 331 700 l 1
 211 0 l 1
 44 0 l 1
 162 700 l 1
242 555 m 1
 267 700 l 1
 408 700 l 1
 565 698 662 609 640 471 c 0
 618 331 501 244 339 242 c 1
 188 242 l 1
 211 374 l 1
 340 374 l 1
 403 376 454 408 465 465 c 0
 475 520 440 553 380 555 c 1
 242 555 l 1
428 903 m 1
 531 988 l 1
 626 914 l 1
 414 776 l 1
 241 919 l 1
 354 989 l 1
 428 903 l 1
EndSplineSet
EndChar

StartChar: uni0213
Encoding: 531 531 306
Width: 399
VWidth: 0
Flags: HMW
LayerCount: 2
Fore
SplineSet
256 460 m 1
 177 0 l 1
 28 0 l 1
 108 460 l 1
 256 460 l 1
360 303 m 1
 345 317 331 328 308 328 c 0
 258 329 226 280 215 227 c 1
 187 281 l 1
 204 376 275 473 365 471 c 0
 398 471 424 454 443 431 c 1
 360 303 l 1
130 530 m 1
 225 531 l 1
 235 562 261 591 298 590 c 0
 336 589 352 565 353 531 c 1
 447 531 l 1
 457 611 419 676 320 677 c 0
 218 678 153 611 130 530 c 1
EndSplineSet
EndChar

StartChar: uni0212
Encoding: 530 530 307
Width: 628
VWidth: 0
Flags: HMW
LayerCount: 2
Fore
SplineSet
270 316 m 1
 440 316 l 1
 597 0 l 1
 406 0 l 1
 270 316 l 1
162 700 m 1
 331 700 l 1
 211 0 l 1
 44 0 l 1
 162 700 l 1
242 555 m 1
 267 700 l 1
 408 700 l 1
 565 698 662 609 640 471 c 0
 618 331 501 244 339 242 c 1
 188 242 l 1
 211 374 l 1
 340 374 l 1
 403 376 454 408 465 465 c 0
 475 520 440 553 380 555 c 1
 242 555 l 1
263 776 m 1
 358 777 l 1
 368 808 394 836 431 835 c 0
 469 834 485 810 486 776 c 1
 580 776 l 1
 590 856 551 921 452 922 c 0
 350 923 286 857 263 776 c 1
EndSplineSet
EndChar

StartChar: OE
Encoding: 338 338 308
Width: 955
VWidth: 0
Flags: HMW
LayerCount: 2
Fore
SplineSet
568 299 m 1
 592 436 l 1
 952 436 l 1
 928 299 l 1
 568 299 l 1
555 670 m 1
 718 670 l 1
 607 30 l 1
 445 30 l 1
 555 670 l 1
919 140 m 1
 896 0 l 1
 357 0 l 1
 158 4 36 156 64 350 c 0
 95 551 261 697 465 700 c 1
 1016 700 l 1
 991 560 l 1
 625 560 l 1
 606 550 l 1
 481 550 l 1
 349 547 260 475 238 350 c 0
 218 230 274 153 403 150 c 1
 526 150 l 1
 548 140 l 1
 919 140 l 1
EndSplineSet
EndChar

StartChar: oe
Encoding: 339 339 309
Width: 873
VWidth: 0
Flags: HMW
LayerCount: 2
Fore
SplineSet
699 250 m 2
 706 308 698 364 638 367 c 0
 579 370 531 322 519 260 c 1
 511 230 l 1
 501 162 518 100 586 98 c 0
 638 97 674 126 705 159 c 1
 836 124 l 1
 785 51 698 -10 599 -10 c 0
 470 -9 412 107 428 230 c 0
 430 247 435 263 440 279 c 0
 474 386 568 471 686 470 c 0
 806 469 868 358 854 234 c 0
 853 224 848 208 846 198 c 1
 696 231 l 1
 699 250 l 2
474 198 m 1
 487 281 l 1
 841 281 l 1
 846 197 l 1
 474 198 l 1
45 230 m 0
 64 366 173 470 303 470 c 0
 433 470 482 357 466 230 c 0
 447 97 361 -10 232 -10 c 0
 102 -10 27 99 45 230 c 0
193 230 m 0
 184 168 211 117 272 116 c 0
 332 115 381 165 391 230 c 0
 399 290 378 342 319 344 c 0
 257 346 204 295 193 230 c 0
EndSplineSet
EndChar

StartChar: a.alt
Encoding: 65536 -1 310
Width: 527
VWidth: 0
Flags: HMW
LayerCount: 2
Fore
SplineSet
168 137 m 0
 164 106 189 91 220 90 c 0
 279 88 324 126 339 186 c 1
 346 129 l 1
 327 44 255 -10 161 -10 c 0
 70 -10 5 43 17 131 c 0
 32 225 124 279 232 279 c 0
 293 279 349 257 379 229 c 1
 369 159 l 1
 338 183 306 196 261 196 c 0
 215 196 173 175 168 137 c 0
143 318 m 1
 107 421 l 1
 167 447 239 473 317 473 c 0
 424 473 520 424 506 324 c 1
 451 0 l 1
 306 0 l 1
 358 293 l 1
 363 330 339 354 294 356 c 0
 235 359 177 334 143 318 c 1
EndSplineSet
EndChar

StartChar: Jcircumflex
Encoding: 308 308 312
Width: 320
VWidth: 0
Flags: HMW
LayerCount: 2
Fore
SplineSet
-112 -64 m 1
 -93 -81 -67 -97 -39 -96 c 0
 -2 -95 32 -63 40 -15 c 1
 163 700 l 1
 345 700 l 1
 217 -54 l 2
 195 -180 87 -240 -38 -239 c 0
 -109 -239 -173 -212 -219 -181 c 1
 -112 -64 l 1
284 861 m 1
 182 777 l 1
 86 851 l 1
 298 988 l 1
 471 846 l 1
 358 776 l 1
 284 861 l 1
EndSplineSet
EndChar

StartChar: jcircumflex
Encoding: 309 309 313
Width: 263
VWidth: 0
Flags: HMW
LayerCount: 2
Fore
SplineSet
-76 -77 m 1
 -65 -91 -53 -103 -36 -103 c 0
 -3 -103 18 -71 24 -34 c 1
 109 460 l 1
 255 460 l 1
 164 -73 l 2
 147 -170 78 -240 -31 -239 c 0
 -89 -239 -125 -213 -152 -187 c 1
 -76 -77 l 1
212 615 m 1
 109 531 l 1
 13 605 l 1
 226 743 l 1
 398 600 l 1
 285 530 l 1
 212 615 l 1
EndSplineSet
EndChar

StartChar: Nacute
Encoding: 323 323 314
Width: 769
VWidth: 0
Flags: HMW
LayerCount: 2
Fore
SplineSet
631 700 m 1
 793 700 l 1
 668 -34 l 1
 273 393 l 1
 205 0 l 1
 43 0 l 1
 168 734 l 1
 563 307 l 1
 631 700 l 1
661 909 m 1
 463 762 l 1
 381 807 l 1
 552 963 l 1
 661 909 l 1
EndSplineSet
EndChar

StartChar: nacute
Encoding: 324 324 315
Width: 557
VWidth: 0
Flags: HMW
LayerCount: 2
Fore
SplineSet
259 460 m 1
 180 0 l 1
 28 0 l 1
 108 460 l 1
 259 460 l 1
368 280 m 1
 372 323 368 360 321 363 c 0
 273 366 239 325 228 281 c 1
 199 275 l 1
 217 377 276 470 390 470 c 0
 500 470 538 397 526 296 c 1
 475 0 l 1
 318 0 l 1
 368 280 l 1
529 678 m 1
 332 531 l 1
 251 576 l 1
 421 733 l 1
 529 678 l 1
EndSplineSet
EndChar

StartChar: uni0145
Encoding: 325 325 316
Width: 769
VWidth: 0
Flags: HMW
LayerCount: 2
Fore
SplineSet
313 -55 m 1
 461 -88 l 1
 297 -335 l 1
 184 -311 l 1
 313 -55 l 1
631 700 m 1
 793 700 l 1
 668 -34 l 1
 273 393 l 1
 205 0 l 1
 43 0 l 1
 168 734 l 1
 563 307 l 1
 631 700 l 1
EndSplineSet
EndChar

StartChar: uni0146
Encoding: 326 326 317
Width: 557
VWidth: 0
Flags: HMW
LayerCount: 2
Fore
SplineSet
259 460 m 1
 180 0 l 1
 28 0 l 1
 108 460 l 1
 259 460 l 1
368 280 m 1
 372 323 368 360 321 363 c 0
 273 366 239 325 228 281 c 1
 196 275 l 1
 214 377 276 470 390 470 c 0
 500 470 538 397 526 296 c 1
 475 0 l 1
 318 0 l 1
 368 280 l 1
208 -61 m 1
 356 -95 l 1
 192 -342 l 1
 78 -318 l 1
 208 -61 l 1
EndSplineSet
EndChar

StartChar: Ncaron
Encoding: 327 327 318
Width: 769
VWidth: 0
Flags: HMW
LayerCount: 2
Fore
SplineSet
487 904 m 1
 589 988 l 1
 685 913 l 1
 473 776 l 1
 301 919 l 1
 413 988 l 1
 487 904 l 1
631 700 m 1
 793 700 l 1
 668 -34 l 1
 273 393 l 1
 205 0 l 1
 43 0 l 1
 168 734 l 1
 563 307 l 1
 631 700 l 1
EndSplineSet
EndChar

StartChar: ncaron
Encoding: 328 328 319
Width: 557
VWidth: 0
Flags: HMW
LayerCount: 2
Fore
SplineSet
259 460 m 1
 180 0 l 1
 28 0 l 1
 108 460 l 1
 259 460 l 1
368 280 m 1
 372 323 368 360 321 363 c 0
 273 366 239 325 228 281 c 1
 196 275 l 1
 214 377 276 470 390 470 c 0
 500 470 538 397 526 296 c 1
 475 0 l 1
 318 0 l 1
 368 280 l 1
360 658 m 1
 463 742 l 1
 558 668 l 1
 346 530 l 1
 174 674 l 1
 286 743 l 1
 360 658 l 1
EndSplineSet
EndChar

StartChar: Omacron
Encoding: 332 332 320
Width: 796
VWidth: 0
Flags: HMW
LayerCount: 2
Fore
SplineSet
241 350 m 0
 224 243 272 142 390 141 c 0
 509 140 601 235 621 350 c 0
 638 458 592 558 472 559 c 0
 353 560 260 465 241 350 c 0
64 350 m 0
 95 558 275 716 489 716 c 0
 700 716 828 551 799 350 c 0
 768 141 591 -23 373 -23 c 0
 159 -23 35 149 64 350 c 0
322 777 m 1
 345 909 l 1
 709 909 l 1
 686 776 l 1
 322 777 l 1
EndSplineSet
EndChar

StartChar: omacron
Encoding: 333 333 321
Width: 571
VWidth: 0
Flags: HMW
LayerCount: 2
Fore
SplineSet
42 230 m 0
 62 371 188 470 335 470 c 0
 479 470 576 368 556 230 c 0
 536 89 408 -10 262 -10 c 0
 118 -10 22 92 42 230 c 0
196 230 m 0
 187 171 215 117 275 116 c 0
 336 115 391 167 402 230 c 0
 411 289 382 343 322 344 c 0
 261 345 207 293 196 230 c 0
169 531 m 1
 191 662 l 1
 555 662 l 1
 532 530 l 1
 169 531 l 1
EndSplineSet
EndChar

StartChar: Obreve
Encoding: 334 334 322
Width: 796
VWidth: 0
Flags: HMW
LayerCount: 2
Fore
SplineSet
241 350 m 0
 224 243 272 142 390 141 c 0
 509 140 601 235 621 350 c 0
 638 458 592 558 472 559 c 0
 353 560 260 465 241 350 c 0
64 350 m 0
 95 558 275 716 489 716 c 0
 700 716 828 551 799 350 c 0
 768 141 591 -23 373 -23 c 0
 159 -23 35 149 64 350 c 0
368 923 m 1
 464 923 l 1
 464 891 478 865 514 864 c 0
 551 863 579 891 589 922 c 1
 689 922 l 1
 671 841 607 777 508 777 c 0
 409 777 362 840 368 923 c 1
EndSplineSet
EndChar

StartChar: obreve
Encoding: 335 335 323
Width: 571
VWidth: 0
Flags: HMW
LayerCount: 2
Fore
SplineSet
42 230 m 0
 62 371 188 470 335 470 c 0
 479 470 576 368 556 230 c 0
 536 89 408 -10 262 -10 c 0
 118 -10 22 92 42 230 c 0
196 230 m 0
 187 171 215 117 275 116 c 0
 336 115 391 167 402 230 c 0
 411 289 382 343 322 344 c 0
 261 345 207 293 196 230 c 0
214 677 m 1
 310 677 l 1
 310 645 324 620 360 619 c 0
 397 618 425 645 435 676 c 1
 534 676 l 1
 516 595 453 531 354 531 c 0
 255 531 208 594 214 677 c 1
EndSplineSet
EndChar

StartChar: Racute
Encoding: 340 340 324
Width: 628
VWidth: 0
Flags: HMW
LayerCount: 2
Fore
SplineSet
270 316 m 1
 440 316 l 1
 597 0 l 1
 406 0 l 1
 270 316 l 1
162 700 m 1
 331 700 l 1
 211 0 l 1
 44 0 l 1
 162 700 l 1
242 555 m 1
 267 700 l 1
 408 700 l 1
 565 698 662 609 640 471 c 0
 618 331 501 244 339 242 c 1
 188 242 l 1
 211 374 l 1
 340 374 l 1
 403 376 454 408 465 465 c 0
 475 520 440 553 380 555 c 1
 242 555 l 1
588 924 m 1
 391 777 l 1
 309 822 l 1
 479 978 l 1
 588 924 l 1
EndSplineSet
EndChar

StartChar: uni0156
Encoding: 342 342 325
Width: 628
VWidth: 0
Flags: HMW
LayerCount: 2
Fore
SplineSet
270 316 m 1
 440 316 l 1
 597 0 l 1
 406 0 l 1
 270 316 l 1
162 700 m 1
 331 700 l 1
 211 0 l 1
 44 0 l 1
 162 700 l 1
242 555 m 1
 267 700 l 1
 408 700 l 1
 565 698 662 609 640 471 c 0
 618 331 501 244 339 242 c 1
 188 242 l 1
 211 374 l 1
 340 374 l 1
 403 376 454 408 465 465 c 0
 475 520 440 553 380 555 c 1
 242 555 l 1
277 -61 m 1
 425 -95 l 1
 261 -342 l 1
 148 -318 l 1
 277 -61 l 1
EndSplineSet
EndChar

StartChar: uni0157
Encoding: 343 343 326
Width: 399
VWidth: 0
Flags: HMW
LayerCount: 2
Fore
SplineSet
256 460 m 1
 177 0 l 1
 28 0 l 1
 108 460 l 1
 256 460 l 1
360 303 m 1
 345 317 331 328 308 328 c 0
 258 329 226 280 215 227 c 1
 187 281 l 1
 204 376 275 473 365 471 c 0
 398 471 424 454 443 431 c 1
 360 303 l 1
59 -61 m 1
 206 -95 l 1
 43 -342 l 1
 -70 -318 l 1
 59 -61 l 1
EndSplineSet
EndChar

StartChar: Scedilla
Encoding: 350 350 327
Width: 607
VWidth: 0
Flags: HMW
LayerCount: 2
Fore
SplineSet
162 251 m 1
 194 179 230 126 304 126 c 0
 353 126 392 150 401 194 c 0
 413 253 345 275 284 301 c 0
 205 336 117 398 132 518 c 0
 151 639 265 716 402 716 c 0
 530 716 603 650 631 562 c 1
 496 489 l 1
 473 536 442 571 390 571 c 0
 347 571 310 547 303 512 c 0
 291 460 378 436 437 413 c 0
 531 375 592 304 578 196 c 0
 558 56 434 -23 284 -23 c 0
 160 -23 65 54 33 168 c 1
 162 251 l 1
262 61 m 1
 376 56 l 1
 267 -65 l 1
 277 -62 288 -62 300 -62 c 0
 346 -65 385 -104 378 -161 c 0
 368 -230 298 -267 235 -268 c 0
 182 -269 140 -256 96 -228 c 1
 149 -161 l 1
 172 -177 200 -186 222 -186 c 0
 249 -186 282 -172 284 -149 c 0
 286 -125 256 -118 233 -118 c 0
 214 -117 179 -123 147 -133 c 1
 262 61 l 1
EndSplineSet
EndChar

StartChar: scedilla
Encoding: 351 351 328
Width: 442
VWidth: 0
Flags: HMW
LayerCount: 2
Fore
SplineSet
78 175 m 1
 130 124 175 92 215 94 c 0
 238 94 264 108 267 130 c 0
 273 167 225 180 187 195 c 0
 124 220 69 259 80 339 c 0
 93 425 176 470 267 470 c 0
 341 470 402 441 453 401 c 1
 386 304 l 1
 355 337 314 365 274 365 c 0
 248 365 222 355 218 335 c 0
 210 298 273 287 313 271 c 0
 375 246 426 205 417 130 c 0
 405 30 326 -19 226 -19 c 0
 134 -19 63 21 3 76 c 1
 78 175 l 1
199 63 m 1
 313 60 l 1
 204 -62 l 1
 214 -59 224 -58 236 -58 c 0
 282 -61 321 -100 314 -157 c 0
 305 -226 234 -263 171 -264 c 0
 119 -265 76 -252 32 -224 c 1
 85 -157 l 1
 108 -173 135 -182 157 -182 c 0
 184 -182 218 -169 220 -146 c 0
 222 -122 192 -114 169 -114 c 0
 150 -113 116 -120 84 -130 c 1
 199 63 l 1
EndSplineSet
EndChar

StartChar: Zcaron
Encoding: 381 381 329
Width: 602
VWidth: 0
Flags: HMW
LayerCount: 2
Fore
SplineSet
120 547 m 1
 147 700 l 1
 685 700 l 1
 271 147 l 1
 555 147 l 1
 528 0 l 1
 -22 0 l 1
 388 546 l 1
 120 547 l 1
445 903 m 1
 548 988 l 1
 644 914 l 1
 432 776 l 1
 259 919 l 1
 372 989 l 1
 445 903 l 1
EndSplineSet
EndChar

StartChar: zcaron
Encoding: 382 382 330
Width: 500
VWidth: 0
Flags: HMW
LayerCount: 2
Fore
SplineSet
356 658 m 1
 459 742 l 1
 554 667 l 1
 342 530 l 1
 169 673 l 1
 283 742 l 1
 356 658 l 1
273 321 m 1
 82 322 l 1
 106 460 l 1
 549 460 l 1
 270 139 l 1
 460 139 l 1
 436 0 l 1
 -17 0 l 1
 273 321 l 1
EndSplineSet
EndChar

StartChar: Ydieresis
Encoding: 376 376 331
Width: 641
VWidth: 0
Flags: HMW
LayerCount: 2
Fore
SplineSet
219 870 m 0
 225 915 270 952 316 951 c 0
 363 950 399 914 393 868 c 0
 387 823 340 787 294 788 c 0
 247 789 213 824 219 870 c 0
493 870 m 0
 499 915 544 952 590 951 c 0
 637 950 672 914 666 868 c 0
 660 823 614 787 568 788 c 0
 521 789 487 824 493 870 c 0
542 700 m 1
 739 700 l 1
 428 281 l 1
 380 0 l 1
 209 0 l 1
 259 288 l 1
 92 700 l 1
 281 700 l 1
 367 441 l 1
 542 700 l 1
EndSplineSet
EndChar

StartChar: Scaron
Encoding: 352 352 332
Width: 607
VWidth: 0
Flags: HMW
LayerCount: 2
Fore
SplineSet
162 251 m 1
 194 179 230 126 304 126 c 0
 353 126 392 150 401 194 c 0
 413 253 345 275 284 301 c 0
 206 336 118 401 133 519 c 0
 152 640 268 716 402 716 c 0
 529 716 606 648 631 562 c 1
 496 489 l 1
 473 536 446 570 394 571 c 0
 351 571 310 548 303 512 c 0
 291 460 378 436 437 413 c 0
 531 375 592 304 578 196 c 0
 558 56 436 -23 284 -23 c 0
 160 -23 65 54 33 168 c 1
 162 251 l 1
436 903 m 1
 538 988 l 1
 634 914 l 1
 421 776 l 1
 249 919 l 1
 362 989 l 1
 436 903 l 1
EndSplineSet
EndChar

StartChar: scaron
Encoding: 353 353 333
Width: 442
VWidth: 0
Flags: HMW
LayerCount: 2
Fore
SplineSet
80 174 m 1
 128 125 171 98 214 98 c 0
 238 98 263 108 267 130 c 0
 273 164 200 178 162 196 c 0
 104 224 60 266 69 337 c 0
 83 425 174 470 267 470 c 0
 341 470 405 441 453 401 c 1
 386 303 l 1
 353 336 308 359 267 359 c 0
 242 359 215 351 212 330 c 0
 207 300 274 285 313 269 c 0
 375 244 426 203 417 130 c 0
 405 30 326 -19 223 -19 c 0
 131 -19 56 20 3 76 c 1
 80 174 l 1
298 645 m 1
 401 730 l 1
 496 655 l 1
 283 518 l 1
 111 661 l 1
 224 730 l 1
 298 645 l 1
EndSplineSet
EndChar

StartChar: Lslash
Encoding: 321 321 334
Width: 518
VWidth: 0
Flags: HMW
LayerCount: 2
Fore
SplineSet
33 308 m 1
 6 386 l 1
 400 629 l 1
 428 553 l 1
 33 308 l 1
163 700 m 1
 331 700 l 1
 236 147 l 1
 509 147 l 1
 484 0 l 1
 43 0 l 1
 163 700 l 1
EndSplineSet
EndChar

StartChar: lslash
Encoding: 322 322 335
Width: 262
VWidth: 0
Flags: HMW
LayerCount: 2
Fore
SplineSet
21 308 m 1
 -7 386 l 1
 352 603 l 1
 379 526 l 1
 21 308 l 1
162 780 m 1
 314 780 l 1
 180 0 l 1
 29 0 l 1
 162 780 l 1
EndSplineSet
EndChar

StartChar: uni0218
Encoding: 536 536 336
Width: 607
VWidth: 0
Flags: HMW
LayerCount: 2
Fore
SplineSet
162 251 m 1
 194 179 230 126 304 126 c 0
 353 126 392 150 401 194 c 0
 413 253 345 275 284 301 c 0
 206 336 118 401 133 519 c 0
 152 640 268 716 402 716 c 0
 529 716 606 648 631 562 c 1
 496 489 l 1
 473 536 446 570 394 571 c 0
 351 571 310 548 303 512 c 0
 291 460 378 436 437 413 c 0
 531 375 592 304 578 196 c 0
 558 56 436 -23 284 -23 c 0
 160 -23 65 54 33 168 c 1
 162 251 l 1
211 -71 m 1
 361 -105 l 1
 195 -352 l 1
 82 -328 l 1
 211 -71 l 1
EndSplineSet
EndChar

StartChar: uni0219
Encoding: 537 537 337
Width: 442
VWidth: 0
Flags: HMW
LayerCount: 2
Fore
SplineSet
80 174 m 1
 128 125 171 98 214 98 c 0
 238 98 263 108 267 130 c 0
 273 164 200 178 162 196 c 0
 104 224 60 266 69 337 c 0
 83 425 174 470 267 470 c 0
 341 470 405 441 453 401 c 1
 386 303 l 1
 353 336 308 359 267 359 c 0
 242 359 215 351 212 330 c 0
 207 300 274 285 313 269 c 0
 375 244 426 203 417 130 c 0
 405 30 326 -19 223 -19 c 0
 131 -19 56 20 3 76 c 1
 80 174 l 1
151 -68 m 1
 299 -102 l 1
 135 -349 l 1
 22 -324 l 1
 151 -68 l 1
EndSplineSet
EndChar

StartChar: pi
Encoding: 960 960 338
Width: 585
VWidth: 0
Flags: HMW
LayerCount: 2
Fore
SplineSet
132 430 m 1
 275 430 l 1
 200 0 l 1
 59 0 l 1
 132 430 l 1
80 460 m 1
 600 460 l 1
 578 334 l 1
 57 334 l 1
 80 460 l 1
376 430 m 1
 517 430 l 1
 472 178 l 1
 466 125 479 117 513 109 c 1
 495 -8 l 1
 385 -7 308 5 323 121 c 1
 376 430 l 1
EndSplineSet
EndChar

StartChar: trademark
Encoding: 8482 8482 339
Width: 724
VWidth: 0
Flags: HMW
LayerCount: 2
Fore
SplineSet
107 623 m 1
 120 700 l 1
 392 700 l 1
 379 623 l 1
 286 623 l 1
 238 350 l 1
 153 350 l 1
 200 623 l 1
 107 623 l 1
659 596 m 1
 744 724 l 1
 733 350 l 1
 645 350 l 1
 659 596 l 1
449 718 m 1
 490 588 l 1
 421 350 l 1
 330 351 l 1
 449 718 l 1
746 725 m 1
 721 598 l 1
 540 381 l 1
 430 607 l 1
 449 717 l 1
 556 506 l 1
 746 725 l 1
EndSplineSet
EndChar

StartChar: uni2219
Encoding: 8729 8729 340
Width: 312
VWidth: 0
Flags: HMW
LayerCount: 2
Fore
SplineSet
112 444 m 0
 118 493 166 537 218 536 c 0
 271 535 304 491 298 442 c 0
 292 393 245 350 193 351 c 0
 140 352 106 395 112 444 c 0
EndSplineSet
EndChar

StartChar: agrave.alt
Encoding: 65537 -1 341
Width: 527
VWidth: 0
Flags: HMW
LayerCount: 2
Fore
SplineSet
168 137 m 0
 164 106 187 91 220 90 c 0
 279 88 324 126 339 186 c 1
 346 129 l 1
 327 44 255 -10 161 -10 c 0
 70 -10 4 43 16 129 c 0
 30 225 126 279 232 279 c 0
 293 279 349 257 379 229 c 1
 369 159 l 1
 338 183 306 197 261 196 c 0
 217 195 174 175 168 137 c 0
143 318 m 1
 107 421 l 1
 167 447 239 473 317 473 c 0
 424 473 519 424 506 324 c 1
 451 0 l 1
 306 0 l 1
 358 293 l 1
 361 331 339 354 294 356 c 0
 235 359 177 334 143 318 c 1
191 685 m 1
 309 736 l 1
 430 573 l 1
 343 533 l 1
 191 685 l 1
EndSplineSet
EndChar

StartChar: aacute.alt
Encoding: 65538 -1 342
Width: 527
VWidth: 0
Flags: HMW
LayerCount: 2
Fore
SplineSet
168 137 m 0
 164 106 187 91 220 90 c 0
 279 88 324 126 339 186 c 1
 346 129 l 1
 327 44 255 -10 161 -10 c 0
 70 -10 4 43 16 129 c 0
 30 225 126 279 232 279 c 0
 293 279 349 257 379 229 c 1
 369 159 l 1
 338 183 306 197 261 196 c 0
 217 195 174 175 168 137 c 0
143 318 m 1
 107 421 l 1
 167 447 239 473 317 473 c 0
 424 473 519 424 506 324 c 1
 451 0 l 1
 306 0 l 1
 358 293 l 1
 361 331 339 354 294 356 c 0
 235 359 177 334 143 318 c 1
526 680 m 1
 329 534 l 1
 248 579 l 1
 418 735 l 1
 526 680 l 1
EndSplineSet
EndChar

StartChar: acircumflex.alt
Encoding: 65539 -1 343
Width: 527
VWidth: 0
Flags: HMW
LayerCount: 2
Fore
SplineSet
168 137 m 0
 164 106 187 91 220 90 c 0
 279 88 324 126 339 186 c 1
 346 129 l 1
 327 44 255 -10 161 -10 c 0
 70 -10 4 43 16 129 c 0
 30 225 126 279 232 279 c 0
 293 279 349 257 379 229 c 1
 369 159 l 1
 338 183 306 197 261 196 c 0
 217 195 174 175 168 137 c 0
143 318 m 1
 107 421 l 1
 167 447 239 473 317 473 c 0
 424 473 519 424 506 324 c 1
 451 0 l 1
 306 0 l 1
 358 293 l 1
 361 331 339 354 294 356 c 0
 235 359 177 334 143 318 c 1
350 618 m 1
 247 534 l 1
 152 608 l 1
 365 745 l 1
 537 602 l 1
 424 533 l 1
 350 618 l 1
EndSplineSet
EndChar

StartChar: atilde.alt
Encoding: 65540 -1 344
Width: 527
VWidth: 0
Flags: HMW
LayerCount: 2
Fore
SplineSet
168 137 m 0
 164 106 187 91 220 90 c 0
 279 88 324 126 339 186 c 1
 346 129 l 1
 327 44 255 -10 161 -10 c 0
 70 -10 4 43 16 129 c 0
 30 225 126 279 232 279 c 0
 293 279 349 257 379 229 c 1
 369 159 l 1
 338 183 306 197 261 196 c 0
 217 195 174 175 168 137 c 0
143 318 m 1
 107 421 l 1
 167 447 239 473 317 473 c 0
 424 473 519 424 506 324 c 1
 451 0 l 1
 306 0 l 1
 358 293 l 1
 361 331 339 354 294 356 c 0
 235 359 177 334 143 318 c 1
152 601 m 1
 173 647 218 695 280 693 c 0
 335 692 355 641 405 643 c 0
 434 644 456 669 478 695 c 1
 539 619 l 1
 513 581 458 533 398 535 c 0
 349 537 317 590 271 587 c 0
 238 585 223 555 215 537 c 1
 152 601 l 1
EndSplineSet
EndChar

StartChar: adieresis.alt
Encoding: 65541 -1 345
Width: 527
VWidth: 0
Flags: HMW
LayerCount: 2
Fore
SplineSet
168 137 m 0
 164 106 187 91 220 90 c 0
 279 88 324 126 339 186 c 1
 346 129 l 1
 327 44 255 -10 161 -10 c 0
 70 -10 4 43 16 129 c 0
 30 225 126 279 232 279 c 0
 293 279 349 257 379 229 c 1
 369 159 l 1
 338 183 306 197 261 196 c 0
 217 195 174 175 168 137 c 0
143 318 m 1
 107 421 l 1
 167 447 239 473 317 473 c 0
 424 473 519 424 506 324 c 1
 451 0 l 1
 306 0 l 1
 358 293 l 1
 361 331 339 354 294 356 c 0
 235 359 177 334 143 318 c 1
378 617 m 0
 384 662 430 698 476 697 c 0
 523 696 558 660 552 614 c 0
 546 569 500 533 454 534 c 0
 407 535 372 571 378 617 c 0
141 617 m 0
 147 662 192 698 238 697 c 0
 285 696 320 660 314 614 c 0
 308 569 263 533 217 534 c 0
 170 535 135 571 141 617 c 0
EndSplineSet
EndChar

StartChar: aring.alt
Encoding: 65542 -1 346
Width: 527
VWidth: 0
Flags: HMW
LayerCount: 2
Fore
SplineSet
168 137 m 0
 164 106 187 91 220 90 c 0
 279 88 324 126 339 186 c 1
 346 129 l 1
 327 44 255 -10 161 -10 c 0
 70 -10 4 43 16 129 c 0
 30 225 126 279 232 279 c 0
 293 279 349 257 379 229 c 1
 369 159 l 1
 338 183 306 197 261 196 c 0
 217 195 174 175 168 137 c 0
143 318 m 1
 107 421 l 1
 167 447 239 473 317 473 c 0
 424 473 519 424 506 324 c 1
 451 0 l 1
 306 0 l 1
 358 293 l 1
 361 331 339 354 294 356 c 0
 235 359 177 334 143 318 c 1
229 650 m 0
 238 715 300 764 367 764 c 0
 434 764 484 714 475 648 c 0
 466 582 403 534 336 534 c 0
 269 534 220 585 229 650 c 0
307 648 m 0
 304 625 318 603 341 602 c 0
 365 600 394 625 397 650 c 0
 400 673 385 695 362 696 c 0
 338 698 310 673 307 648 c 0
EndSplineSet
EndChar

StartChar: amacron.alt
Encoding: 65543 -1 347
Width: 527
VWidth: 0
Flags: HMW
LayerCount: 2
Fore
SplineSet
168 137 m 0
 164 106 187 91 220 90 c 0
 279 88 324 126 339 186 c 1
 346 129 l 1
 327 44 255 -10 161 -10 c 0
 70 -10 4 43 16 129 c 0
 30 225 126 279 232 279 c 0
 293 279 349 257 379 229 c 1
 369 159 l 1
 338 183 306 197 261 196 c 0
 217 195 174 175 168 137 c 0
143 318 m 1
 107 421 l 1
 167 447 239 473 317 473 c 0
 424 473 519 424 506 324 c 1
 451 0 l 1
 306 0 l 1
 358 293 l 1
 361 331 339 354 294 356 c 0
 235 359 177 334 143 318 c 1
151 541 m 1
 174 672 l 1
 539 672 l 1
 516 540 l 1
 151 541 l 1
EndSplineSet
EndChar

StartChar: abreve.alt
Encoding: 65544 -1 348
Width: 527
VWidth: 0
Flags: HMW
LayerCount: 2
Fore
SplineSet
168 137 m 0
 164 106 187 91 220 90 c 0
 279 88 324 126 339 186 c 1
 346 129 l 1
 327 44 255 -10 161 -10 c 0
 70 -10 4 43 16 129 c 0
 30 225 126 279 232 279 c 0
 293 279 349 257 379 229 c 1
 369 159 l 1
 338 183 306 197 261 196 c 0
 217 195 174 175 168 137 c 0
143 318 m 1
 107 421 l 1
 167 447 239 473 317 473 c 0
 424 473 519 424 506 324 c 1
 451 0 l 1
 306 0 l 1
 358 293 l 1
 361 331 339 354 294 356 c 0
 235 359 177 334 143 318 c 1
196 680 m 1
 292 679 l 1
 292 647 306 622 342 621 c 0
 379 620 407 648 417 679 c 1
 517 678 l 1
 499 597 436 534 337 534 c 0
 238 534 190 597 196 680 c 1
EndSplineSet
EndChar

StartChar: aogonek.alt
Encoding: 65545 -1 349
Width: 527
VWidth: 0
Flags: HMW
LayerCount: 2
Fore
SplineSet
168 137 m 0
 164 106 189 91 220 90 c 0
 279 88 324 126 339 186 c 1
 346 129 l 1
 327 44 255 -10 161 -10 c 0
 70 -10 5 43 17 131 c 0
 32 225 124 279 232 279 c 0
 293 279 349 257 379 229 c 1
 369 159 l 1
 338 183 306 197 261 196 c 0
 217 195 174 175 168 137 c 0
143 318 m 1
 107 421 l 1
 167 447 239 473 317 473 c 0
 424 473 519 424 506 324 c 1
 451 0 l 1
 306 0 l 1
 358 293 l 1
 361 331 339 354 294 356 c 0
 235 359 177 334 143 318 c 1
404 -110 m 1
 426 -182 l 1
 403 -202 372 -220 325 -220 c 0
 263 -220 215 -182 223 -119 c 0
 234 -49 313 -8 380 25 c 1
 420 0 l 1
 376 -26 332 -56 325 -94 c 0
 323 -114 330 -128 351 -130 c 0
 370 -132 390 -120 404 -110 c 1
EndSplineSet
EndChar

StartChar: dagger
Encoding: 8224 8224 350
Width: 614
VWidth: 0
Flags: HMW
LayerCount: 2
Fore
SplineSet
153 540 m 1
 595 540 l 1
 575 414 l 1
 132 414 l 1
 153 540 l 1
327 700 m 1
 469 700 l 1
 338 -150 l 1
 196 -150 l 1
 327 700 l 1
EndSplineSet
EndChar

StartChar: daggerdbl
Encoding: 8225 8225 351
Width: 614
VWidth: 0
Flags: HMW
LayerCount: 2
Fore
SplineSet
94 158 m 1
 536 158 l 1
 516 32 l 1
 73 32 l 1
 94 158 l 1
153 540 m 1
 595 540 l 1
 575 414 l 1
 132 414 l 1
 153 540 l 1
327 700 m 1
 469 700 l 1
 338 -150 l 1
 196 -150 l 1
 327 700 l 1
EndSplineSet
EndChar

StartChar: ellipsis
Encoding: 8230 8230 352
Width: 897
VWidth: 0
Flags: HMW
LayerCount: 2
Fore
SplineSet
48 70 m 0
 54 119 102 162 154 161 c 0
 207 160 240 117 234 68 c 0
 228 19 181 -25 129 -24 c 0
 76 -23 42 21 48 70 c 0
339 70 m 0
 345 119 393 162 445 161 c 0
 498 160 531 117 525 68 c 0
 519 19 472 -25 420 -24 c 0
 367 -23 333 21 339 70 c 0
630 70 m 0
 636 119 684 162 736 161 c 0
 789 160 822 117 816 68 c 0
 810 19 763 -25 711 -24 c 0
 658 -23 624 21 630 70 c 0
EndSplineSet
EndChar

StartChar: uniFF10
Encoding: 65296 65296 353
Width: 610
VWidth: 0
Flags: HMW
LayerCount: 2
Fore
SplineSet
215 350 m 0
 205 256 208 136 297 134 c 0
 387 132 446 244 461 350 c 0
 471 444 468 564 379 566 c 0
 289 568 230 456 215 350 c 0
54 350 m 0
 82 549 209 713 395 713 c 0
 586 713 646 538 622 350 c 0
 594 150 470 -13 281 -13 c 0
 94 -13 30 162 54 350 c 0
EndSplineSet
EndChar

StartChar: uniFF11
Encoding: 65297 65297 354
Width: 610
VWidth: 0
Flags: HMW
LayerCount: 2
Fore
SplineSet
161 495 m 1
 188 646 l 1
 530 714 l 1
 408 0 l 1
 246 0 l 1
 338 538 l 1
 161 495 l 1
EndSplineSet
EndChar

StartChar: uniFF12
Encoding: 65298 65298 355
Width: 610
VWidth: 0
Flags: HMW
LayerCount: 2
Fore
SplineSet
-18 0 m 1
 339 323 l 2
 393 374 446 418 457 480 c 0
 464 523 443 565 387 567 c 0
 319 569 272 506 258 441 c 1
 94 442 l 1
 121 590 234 715 408 714 c 0
 558 714 650 606 630 487 c 0
 618 410 567 351 504 301 c 2
 322 157 l 1
 591 156 l 1
 564 0 l 1
 -18 0 l 1
EndSplineSet
EndChar

StartChar: uniFF13
Encoding: 65299 65299 356
Width: 610
VWidth: 0
Flags: HMW
LayerCount: 2
Fore
SplineSet
296 339 m 1
 308 415 l 1
 374 419 441 451 450 508 c 0
 455 546 436 576 390 577 c 0
 337 578 299 538 286 494 c 1
 130 495 l 1
 155 619 259 713 403 713 c 0
 538 713 636 633 617 518 c 0
 595 385 444 341 296 339 c 1
282 -16 m 0
 126 -16 40 93 53 223 c 1
 216 222 l 1
 212 161 242 122 302 121 c 0
 358 120 408 152 417 208 c 0
 431 274 369 303 290 306 c 1
 302 392 l 1
 454 390 603 340 580 191 c 0
 560 62 435 -16 282 -16 c 0
EndSplineSet
EndChar

StartChar: uniFF14
Encoding: 65300 65300 357
Width: 610
VWidth: 0
Flags: HMW
LayerCount: 2
Fore
SplineSet
1 124 m 1
 157 246 l 1
 426 247 l 1
 447 269 l 1
 614 269 l 1
 588 124 l 1
 1 124 l 1
172 175 m 1
 -2 121 l 1
 465 699 l 1
 592 700 l 1
 472 0 l 1
 298 0 l 1
 325 160 l 1
 346 171 l 1
 392 445 l 1
 172 175 l 1
EndSplineSet
EndChar

StartChar: uniFF15
Encoding: 65301 65301 358
Width: 610
VWidth: 0
Flags: HMW
LayerCount: 2
Fore
SplineSet
587 223 m 0
 565 68 416 -13 275 -13 c 0
 162 -13 79 26 13 78 c 1
 97 217 l 1
 143 173 199 143 255 143 c 0
 330 143 396 176 407 243 c 0
 417 308 359 338 297 339 c 0
 234 341 163 326 94 297 c 1
 220 380 l 1
 276 428 340 453 413 452 c 0
 531 451 603 349 587 223 c 0
358 552 m 1
 270 378 l 1
 88 292 l 1
 256 700 l 1
 654 700 l 1
 629 552 l 1
 358 552 l 1
EndSplineSet
EndChar

StartChar: uniFF16
Encoding: 65302 65302 359
Width: 610
VWidth: 0
Flags: HMW
LayerCount: 2
Fore
SplineSet
207 246 m 0
 197 184 230 131 296 130 c 0
 363 129 422 180 433 246 c 0
 443 307 411 363 345 364 c 0
 278 365 218 312 207 246 c 0
392 696 m 1
 609 696 l 1
 345 446 l 1
 305 432 l 1
 342 462 374 473 421 473 c 0
 535 472 615 369 599 246 c 0
 576 84 437 -16 280 -16 c 0
 126 -16 20 88 42 246 c 0
 54 322 100 386 152 442 c 2
 392 696 l 1
EndSplineSet
EndChar

StartChar: uniFF17
Encoding: 65303 65303 360
Width: 610
VWidth: 0
Flags: HMW
LayerCount: 2
Fore
SplineSet
101 541 m 1
 128 700 l 1
 689 700 l 1
 240 0 l 1
 55 0 l 1
 412 540 l 1
 101 541 l 1
EndSplineSet
EndChar

StartChar: uniFF18
Encoding: 65304 65304 361
Width: 610
VWidth: 0
Flags: HMW
LayerCount: 2
Fore
SplineSet
150 532 m 0
 168 650 286 716 409 716 c 0
 527 716 631 647 614 530 c 0
 597 408 471 342 355 342 c 0
 243 342 133 410 150 532 c 0
304 514 m 0
 298 474 319 437 362 436 c 0
 406 434 447 473 454 515 c 0
 460 556 439 593 396 594 c 0
 352 595 311 556 304 514 c 0
68 190 m 0
 87 328 232 396 354 396 c 0
 471 396 599 328 580 190 c 0
 561 62 426 -16 293 -16 c 0
 166 -16 49 63 68 190 c 0
238 215 m 0
 230 164 258 124 309 123 c 0
 361 122 409 163 418 217 c 0
 425 262 396 305 347 306 c 0
 296 307 247 263 238 215 c 0
EndSplineSet
EndChar

StartChar: uniFF19
Encoding: 65305 65305 362
Width: 610
VWidth: 0
Flags: HMW
LayerCount: 2
Fore
SplineSet
469 454 m 0
 479 516 446 569 380 570 c 0
 313 571 254 520 243 454 c 0
 233 393 266 337 332 336 c 0
 399 335 458 388 469 454 c 0
285 3 m 1
 67 3 l 1
 331 254 l 1
 371 268 l 1
 334 238 302 227 255 227 c 0
 141 228 62 331 78 454 c 0
 101 616 239 716 396 716 c 0
 550 716 656 612 634 454 c 0
 622 378 576 314 524 258 c 2
 285 3 l 1
EndSplineSet
EndChar

StartChar: caron
Encoding: 711 711 363
Width: 465
VWidth: 0
Flags: HMW
LayerCount: 2
Fore
SplineSet
318 678 m 1
 421 762 l 1
 516 688 l 1
 303 550 l 1
 131 693 l 1
 244 763 l 1
 318 678 l 1
EndSplineSet
EndChar

StartChar: napostrophe
Encoding: 329 329 364
Width: 725
VWidth: 0
Flags: HMW
LayerCount: 2
Fore
SplineSet
427 460 m 1
 348 0 l 1
 197 0 l 1
 276 460 l 1
 427 460 l 1
536 280 m 1
 540 323 536 360 489 363 c 0
 441 366 407 325 396 281 c 1
 365 275 l 1
 383 377 444 470 558 470 c 0
 668 470 706 397 694 296 c 1
 643 0 l 1
 486 0 l 1
 536 280 l 1
198 700 m 1
 357 700 l 1
 213 445 l 1
 102 445 l 1
 198 700 l 1
EndSplineSet
EndChar

StartChar: IJ
Encoding: 306 306 365
Width: 607
VWidth: 0
Flags: HMW
LayerCount: 2
Fore
SplineSet
174 -64 m 1
 193 -81 218 -97 246 -96 c 0
 283 -95 317 -63 325 -15 c 1
 449 700 l 1
 630 700 l 1
 502 -54 l 2
 480 -180 373 -240 248 -239 c 0
 177 -239 113 -212 67 -181 c 1
 174 -64 l 1
162 700 m 1
 334 700 l 1
 214 0 l 1
 44 0 l 1
 162 700 l 1
EndSplineSet
EndChar

StartChar: ij
Encoding: 307 307 366
Width: 528
VWidth: 0
Flags: HMW
LayerCount: 2
Fore
SplineSet
389 634 m 0
 395 679 441 715 487 714 c 0
 534 713 569 677 563 631 c 0
 557 586 511 550 465 551 c 0
 418 552 383 588 389 634 c 0
188 -77 m 1
 199 -85 215 -103 229 -103 c 0
 261 -105 283 -70 289 -34 c 1
 374 460 l 1
 519 460 l 1
 429 -73 l 2
 412 -170 342 -240 233 -239 c 0
 175 -239 141 -213 113 -187 c 1
 188 -77 l 1
128 634 m 0
 134 679 179 715 225 714 c 0
 272 713 308 677 302 631 c 0
 296 586 251 550 205 551 c 0
 158 552 122 588 128 634 c 0
112 460 m 1
 259 460 l 1
 179 0 l 1
 34 0 l 1
 112 460 l 1
EndSplineSet
EndChar

StartChar: uni0237
Encoding: 567 567 367
Width: 263
VWidth: 0
Flags: HMW
LayerCount: 2
Fore
SplineSet
-76 -77 m 1
 -65 -91 -53 -103 -36 -103 c 0
 -3 -103 18 -71 24 -34 c 1
 109 460 l 1
 255 460 l 1
 164 -73 l 2
 147 -170 78 -240 -31 -239 c 0
 -89 -239 -125 -213 -152 -187 c 1
 -76 -77 l 1
EndSplineSet
EndChar

StartChar: Sacute
Encoding: 346 346 368
Width: 607
VWidth: 0
Flags: HMW
LayerCount: 2
Fore
SplineSet
162 251 m 1
 194 179 230 126 304 126 c 0
 353 126 392 150 401 194 c 0
 413 253 345 275 284 301 c 0
 206 336 118 401 133 519 c 0
 152 640 268 716 402 716 c 0
 529 716 606 648 631 562 c 1
 496 489 l 1
 473 536 446 570 394 571 c 0
 351 571 310 548 303 512 c 0
 291 460 378 436 437 413 c 0
 531 375 592 304 578 196 c 0
 558 56 436 -23 284 -23 c 0
 160 -23 65 54 33 168 c 1
 162 251 l 1
619 924 m 1
 422 777 l 1
 340 822 l 1
 510 978 l 1
 619 924 l 1
EndSplineSet
EndChar

StartChar: sacute
Encoding: 347 347 369
Width: 442
VWidth: 0
Flags: HMW
LayerCount: 2
Fore
SplineSet
80 174 m 1
 128 125 171 98 214 98 c 0
 238 98 263 108 267 130 c 0
 273 164 200 178 162 196 c 0
 104 224 60 266 69 337 c 0
 83 425 174 470 267 470 c 0
 341 470 405 441 453 401 c 1
 386 303 l 1
 353 336 308 359 267 359 c 0
 242 359 215 351 212 330 c 0
 207 300 274 285 313 269 c 0
 375 244 426 203 417 130 c 0
 405 30 326 -19 223 -19 c 0
 131 -19 56 20 3 76 c 1
 80 174 l 1
483 678 m 1
 286 531 l 1
 204 576 l 1
 375 733 l 1
 483 678 l 1
EndSplineSet
EndChar

StartChar: Scircumflex
Encoding: 348 348 370
Width: 607
VWidth: 0
Flags: HMW
LayerCount: 2
Fore
SplineSet
162 251 m 1
 194 179 230 126 304 126 c 0
 353 126 392 150 401 194 c 0
 413 253 345 275 284 301 c 0
 206 336 118 401 133 519 c 0
 152 640 268 716 402 716 c 0
 529 716 606 648 631 562 c 1
 496 489 l 1
 473 536 446 570 394 571 c 0
 351 571 310 548 303 512 c 0
 291 460 378 436 437 413 c 0
 531 375 592 304 578 196 c 0
 558 56 436 -23 284 -23 c 0
 160 -23 65 54 33 168 c 1
 162 251 l 1
436 861 m 1
 333 777 l 1
 238 851 l 1
 450 988 l 1
 622 846 l 1
 510 776 l 1
 436 861 l 1
EndSplineSet
EndChar

StartChar: scircumflex
Encoding: 349 349 371
Width: 442
VWidth: 0
Flags: HMW
LayerCount: 2
Fore
SplineSet
80 174 m 1
 128 125 171 98 214 98 c 0
 238 98 263 108 267 130 c 0
 273 164 200 178 162 196 c 0
 104 224 60 266 69 337 c 0
 83 425 174 470 267 470 c 0
 341 470 405 441 453 401 c 1
 386 303 l 1
 353 336 308 359 267 359 c 0
 242 359 215 351 212 330 c 0
 207 300 274 285 313 269 c 0
 375 244 426 203 417 130 c 0
 405 30 326 -19 223 -19 c 0
 131 -19 56 20 3 76 c 1
 80 174 l 1
312 615 m 1
 210 531 l 1
 114 605 l 1
 326 743 l 1
 499 600 l 1
 386 530 l 1
 312 615 l 1
EndSplineSet
EndChar

StartChar: uni1E9E
Encoding: 7838 7838 372
Width: 866
VWidth: 0
Flags: HMW
LayerCount: 2
Fore
SplineSet
519 -16 m 0
 355 -16 290 103 303 223 c 1
 448 222 l 1
 444 167 470 123 533 121 c 0
 594 120 639 153 648 208 c 0
 661 280 595 303 521 306 c 1
 532 380 l 1
 680 378 834 330 811 184 c 0
 792 60 661 -16 519 -16 c 0
529 346 m 1
 539 416 l 1
 606 419 663 445 673 502 c 0
 683 557 621 579 548 579 c 0
 412 579 300 488 275 335 c 1
 217 0 l 1
 49 0 l 1
 110 361 l 2
 147 573 325 710 554 710 c 0
 714 710 870 654 848 521 c 0
 827 395 682 348 529 346 c 1
EndSplineSet
EndChar

StartChar: Zacute
Encoding: 377 377 373
Width: 602
VWidth: 0
Flags: HW
LayerCount: 2
Fore
SplineSet
120 547 m 1
 147 700 l 1
 685 700 l 1
 271 147 l 1
 555 147 l 1
 528 0 l 1
 -22 0 l 1
 388 546 l 1
 120 547 l 1
622 924 m 1
 425 777 l 1
 343 822 l 1
 513 978 l 1
 622 924 l 1
EndSplineSet
EndChar

StartChar: zacute
Encoding: 378 378 374
Width: 507
VWidth: 0
Flags: HW
LayerCount: 2
Fore
SplineSet
272 321 m 1
 82 322 l 1
 106 460 l 1
 549 460 l 1
 271 139 l 1
 460 138 l 1
 436 0 l 1
 -17 0 l 1
 272 321 l 1
533 685 m 1
 336 538 l 1
 255 584 l 1
 425 740 l 1
 533 685 l 1
EndSplineSet
EndChar

StartChar: Zdotaccent
Encoding: 379 379 375
Width: 602
VWidth: 0
Flags: HW
LayerCount: 2
Fore
SplineSet
120 547 m 1
 147 700 l 1
 685 700 l 1
 271 147 l 1
 555 147 l 1
 528 0 l 1
 -22 0 l 1
 388 546 l 1
 120 547 l 1
355 860 m 0
 361 905 407 941 453 940 c 0
 500 939 535 903 529 857 c 0
 523 812 477 776 431 777 c 0
 384 778 349 814 355 860 c 0
EndSplineSet
EndChar

StartChar: zdotaccent
Encoding: 380 380 376
Width: 507
VWidth: 0
Flags: HW
LayerCount: 2
Fore
SplineSet
272 321 m 1
 82 322 l 1
 106 460 l 1
 549 460 l 1
 271 139 l 1
 460 138 l 1
 436 0 l 1
 -17 0 l 1
 272 321 l 1
267 625 m 0
 273 670 319 707 365 706 c 0
 412 705 447 669 441 623 c 0
 435 578 390 541 344 542 c 0
 297 543 261 579 267 625 c 0
EndSplineSet
EndChar

StartChar: Tcaron
Encoding: 356 356 377
Width: 545
VWidth: 0
Flags: HW
LayerCount: 2
Fore
SplineSet
68 547 m 1
 95 700 l 1
 637 700 l 1
 611 547 l 1
 424 547 l 1
 330 0 l 1
 162 0 l 1
 256 547 l 1
 68 547 l 1
396 903 m 1
 499 988 l 1
 594 914 l 1
 382 776 l 1
 211 919 l 1
 323 989 l 1
 396 903 l 1
EndSplineSet
EndChar

StartChar: tcaron
Encoding: 357 357 378
Width: 471
VWidth: 0
Flags: HW
LayerCount: 2
Fore
SplineSet
56 460 m 1
 358 460 l 1
 336 334 l 1
 33 334 l 1
 56 460 l 1
161 620 m 1
 306 620 l 1
 199 0 l 1
 55 0 l 1
 161 620 l 1
475 785 m 1
 623 751 l 1
 459 504 l 1
 345 529 l 1
 475 785 l 1
EndSplineSet
EndChar

StartChar: Uring
Encoding: 366 366 379
Width: 680
VWidth: 0
Flags: HW
LayerCount: 2
Fore
SplineSet
158 700 m 1
 326 700 l 1
 246 243 l 2
 238 181 258 125 330 124 c 0
 403 123 448 177 461 243 c 1
 541 700 l 1
 709 700 l 1
 629 230 l 2
 602 67 474 -29 314 -29 c 0
 159 -29 57 68 78 230 c 1
 158 700 l 1
343 893 m 0
 352 958 414 1007 481 1007 c 0
 548 1007 598 957 589 891 c 0
 580 825 517 777 450 777 c 0
 383 777 334 828 343 893 c 0
420 891 m 0
 417 868 432 846 455 845 c 0
 479 843 508 868 511 893 c 0
 514 916 499 939 476 940 c 0
 452 942 423 916 420 891 c 0
EndSplineSet
EndChar

StartChar: uring
Encoding: 367 367 380
Width: 557
VWidth: 0
Flags: HW
LayerCount: 2
Fore
SplineSet
324 0 m 1
 403 460 l 1
 554 460 l 1
 475 0 l 1
 324 0 l 1
215 180 m 1
 211 137 215 100 262 97 c 0
 310 94 344 135 355 179 c 1
 383 185 l 1
 365 83 307 -10 193 -10 c 0
 83 -10 45 63 57 164 c 1
 108 460 l 1
 265 460 l 1
 215 180 l 1
239 648 m 0
 248 713 311 762 378 762 c 0
 445 762 494 712 485 646 c 0
 476 580 413 531 346 531 c 0
 279 531 230 583 239 648 c 0
317 646 m 0
 314 623 328 601 351 600 c 0
 375 598 405 622 408 647 c 0
 411 670 396 693 373 694 c 0
 349 696 320 671 317 646 c 0
EndSplineSet
EndChar

StartChar: Utilde
Encoding: 360 360 381
Width: 680
VWidth: 0
Flags: HW
LayerCount: 2
Fore
SplineSet
110 700 m 1
 280 700 l 1
 199 243 l 2
 191 182 210 125 281 124 c 0
 354 122 400 177 413 243 c 1
 492 700 l 1
 662 700 l 1
 582 230 l 2
 556 67 429 -29 269 -29 c 0
 114 -29 9 68 30 230 c 1
 110 700 l 1
218 845 m 1
 218 893 296 938 345 937 c 0
 400 936 418 884 468 886 c 0
 497 887 521 912 542 938 c 1
 606 861 l 1
 581 823 525 776 466 778 c 0
 417 780 386 833 340 830 c 0
 307 828 292 798 283 780 c 1
 218 845 l 1
EndSplineSet
EndChar

StartChar: utilde
Encoding: 361 361 382
Width: 557
VWidth: 0
Flags: HW
LayerCount: 2
Fore
SplineSet
276 0 m 1
 355 460 l 1
 508 460 l 1
 428 0 l 1
 276 0 l 1
168 180 m 1
 163 138 167 100 213 97 c 0
 261 94 296 135 307 179 c 1
 335 185 l 1
 318 83 260 -9 147 -10 c 0
 37 -11 -2 62 10 164 c 1
 60 460 l 1
 218 460 l 1
 168 180 l 1
114 599 m 1
 134 645 180 692 241 691 c 0
 296 690 315 638 365 640 c 0
 394 641 418 667 439 693 c 1
 502 615 l 1
 477 577 422 530 363 532 c 0
 314 534 282 587 236 584 c 0
 203 582 189 552 180 534 c 1
 114 599 l 1
EndSplineSet
EndChar

StartChar: Umacron
Encoding: 362 362 383
Width: 680
VWidth: 0
Flags: HW
LayerCount: 2
Fore
SplineSet
110 700 m 1
 280 700 l 1
 199 243 l 2
 191 182 210 125 281 124 c 0
 354 122 400 177 413 243 c 1
 492 700 l 1
 662 700 l 1
 582 230 l 2
 556 67 429 -29 269 -29 c 0
 114 -29 9 68 30 230 c 1
 110 700 l 1
216 777 m 1
 239 908 l 1
 604 908 l 1
 581 777 l 1
 216 777 l 1
EndSplineSet
EndChar

StartChar: umacron
Encoding: 363 363 384
Width: 557
VWidth: 0
Flags: HW
LayerCount: 2
Fore
SplineSet
276 0 m 1
 355 460 l 1
 508 460 l 1
 428 0 l 1
 276 0 l 1
168 180 m 1
 163 138 167 100 213 97 c 0
 261 94 296 135 307 179 c 1
 335 185 l 1
 318 83 260 -9 147 -10 c 0
 37 -11 -2 62 10 164 c 1
 60 460 l 1
 218 460 l 1
 168 180 l 1
113 531 m 1
 136 662 l 1
 501 662 l 1
 478 531 l 1
 113 531 l 1
EndSplineSet
EndChar

StartChar: Ubreve
Encoding: 364 364 385
Width: 680
VWidth: 0
Flags: HW
LayerCount: 2
Fore
SplineSet
110 700 m 1
 280 700 l 1
 199 243 l 2
 191 182 210 125 281 124 c 0
 354 122 400 177 413 243 c 1
 492 700 l 1
 662 700 l 1
 582 230 l 2
 556 67 429 -29 269 -29 c 0
 114 -29 9 68 30 230 c 1
 110 700 l 1
261 923 m 1
 357 922 l 1
 357 891 370 865 406 864 c 0
 443 863 471 891 481 922 c 1
 583 921 l 1
 566 839 504 777 405 777 c 0
 306 777 256 839 261 923 c 1
EndSplineSet
EndChar

StartChar: ubreve
Encoding: 365 365 386
Width: 557
VWidth: 0
Flags: HW
LayerCount: 2
Fore
SplineSet
276 0 m 1
 355 460 l 1
 508 460 l 1
 428 0 l 1
 276 0 l 1
168 180 m 1
 163 138 167 100 213 97 c 0
 261 94 296 135 307 179 c 1
 335 185 l 1
 318 83 260 -9 147 -10 c 0
 37 -11 -2 62 10 164 c 1
 60 460 l 1
 218 460 l 1
 168 180 l 1
158 677 m 1
 254 676 l 1
 254 645 267 620 303 619 c 0
 340 618 368 645 378 676 c 1
 479 675 l 1
 462 593 401 531 302 531 c 0
 203 531 153 593 158 677 c 1
EndSplineSet
EndChar

StartChar: Wcircumflex
Encoding: 372 372 387
Width: 1034
VWidth: 0
Flags: HW
LayerCount: 2
Fore
SplineSet
731 290 m 1
 923 700 l 1
 1126 700 l 1
 710 -44 l 1
 560 376 l 1
 271 -45 l 1
 96 700 l 1
 292 700 l 1
 350 291 l 1
 613 738 l 1
 731 290 l 1
643 882 m 1
 540 798 l 1
 444 872 l 1
 656 1009 l 1
 829 867 l 1
 716 797 l 1
 643 882 l 1
EndSplineSet
EndChar

StartChar: wcircumflex
Encoding: 373 373 388
Width: 739
VWidth: 0
Flags: HW
LayerCount: 2
Fore
SplineSet
45 460 m 1
 198 460 l 1
 250 229 l 1
 425 498 l 1
 508 228 l 1
 641 460 l 1
 803 460 l 1
 485 -31 l 1
 385 240 l 1
 192 -31 l 1
 45 460 l 1
454 642 m 1
 352 558 l 1
 256 632 l 1
 467 769 l 1
 640 626 l 1
 527 557 l 1
 454 642 l 1
EndSplineSet
EndChar

StartChar: Ycircumflex
Encoding: 374 374 389
Width: 641
VWidth: 0
Flags: HW
LayerCount: 2
Fore
SplineSet
542 700 m 1
 740 700 l 1
 428 281 l 1
 380 0 l 1
 208 0 l 1
 259 289 l 1
 92 700 l 1
 281 700 l 1
 367 442 l 1
 542 700 l 1
440 861 m 1
 337 777 l 1
 241 852 l 1
 452 989 l 1
 626 846 l 1
 513 776 l 1
 440 861 l 1
EndSplineSet
EndChar

StartChar: ycircumflex
Encoding: 375 375 390
Width: 506
VWidth: 0
Flags: HW
LayerCount: 2
Fore
SplineSet
572 460 m 1
 164 -220 l 1
 7 -220 l 1
 165 42 l 1
 43 460 l 1
 204 460 l 1
 285 90 l 1
 207 92 l 1
 412 460 l 1
 572 460 l 1
337 615 m 1
 234 531 l 1
 138 606 l 1
 350 743 l 1
 523 600 l 1
 410 530 l 1
 337 615 l 1
EndSplineSet
EndChar

StartChar: uni0123
Encoding: 291 291 391
Width: 553
VWidth: 0
Flags: HW
LayerCount: 2
Fore
SplineSet
330 842 m 1
 473 789 l 1
 290 559 l 1
 181 598 l 1
 330 842 l 1
-43 -33 m 1
 100 -34 l 1
 102 -85 128 -116 184 -117 c 0
 253 -118 307 -64 320 10 c 1
 398 460 l 1
 544 460 l 1
 467 10 l 2
 442 -148 330 -238 183 -239 c 0
 30 -239 -43 -159 -43 -33 c 1
-5 237 m 0
 12 374 121 470 242 470 c 0
 365 470 420 363 404 236 c 0
 387 105 298 3 176 3 c 0
 54 3 -21 104 -5 237 c 0
152 236 m 0
 143 176 175 127 235 126 c 0
 291 125 349 172 359 237 c 0
 368 297 337 345 282 347 c 0
 220 349 162 299 152 236 c 0
EndSplineSet
EndChar

StartChar: Hbar
Encoding: 294 294 392
Width: 763
VWidth: 0
Flags: HW
LayerCount: 2
Fore
SplineSet
91 293 m 1
 117 445 l 1
 636 445 l 1
 610 293 l 1
 91 293 l 1
570 700 m 1
 741 700 l 1
 620 0 l 1
 451 0 l 1
 570 700 l 1
114 700 m 1
 285 700 l 1
 164 0 l 1
 -5 0 l 1
 114 700 l 1
20 537 m 1
 39 643 l 1
 798 643 l 1
 780 537 l 1
 20 537 l 1
EndSplineSet
EndChar

StartChar: hbar
Encoding: 295 295 393
Width: 551
VWidth: 0
Flags: HW
LayerCount: 2
Fore
SplineSet
267 780 m 1
 133 0 l 1
 -20 0 l 1
 114 780 l 1
 267 780 l 1
320 280 m 1
 325 322 321 360 275 363 c 0
 227 366 193 325 182 281 c 1
 153 281 l 1
 171 383 229 476 342 477 c 0
 453 478 485 404 473 303 c 1
 422 0 l 1
 270 0 l 1
 320 280 l 1
30 597 m 1
 53 728 l 1
 379 728 l 1
 356 597 l 1
 30 597 l 1
EndSplineSet
EndChar

StartChar: uni0400
Encoding: 1024 1024 394
Width: 533
VWidth: 0
Flags: HW
LayerCount: 2
Fore
SplineSet
153 0 m 1
 177 140 l 1
 524 140 l 1
 500 0 l 1
 153 0 l 1
248 560 m 1
 272 700 l 1
 620 700 l 1
 595 560 l 1
 248 560 l 1
204 299 m 1
 228 436 l 1
 555 436 l 1
 531 299 l 1
 204 299 l 1
161 700 m 1
 326 700 l 1
 205 0 l 1
 42 0 l 1
 161 700 l 1
257 930 m 1
 375 980 l 1
 497 815 l 1
 412 776 l 1
 257 930 l 1
EndSplineSet
EndChar

StartChar: uni0401
Encoding: 1025 1025 395
Width: 533
VWidth: 0
Flags: HW
LayerCount: 2
Fore
SplineSet
153 0 m 1
 177 140 l 1
 524 140 l 1
 500 0 l 1
 153 0 l 1
248 560 m 1
 272 700 l 1
 620 700 l 1
 595 560 l 1
 248 560 l 1
204 299 m 1
 228 436 l 1
 555 436 l 1
 531 299 l 1
 204 299 l 1
161 700 m 1
 326 700 l 1
 205 0 l 1
 42 0 l 1
 161 700 l 1
453 860 m 0
 458 905 503 941 549 940 c 0
 596 939 634 904 628 857 c 0
 623 812 577 776 531 777 c 0
 484 778 447 813 453 860 c 0
216 860 m 0
 221 905 266 941 312 940 c 0
 359 939 397 904 391 857 c 0
 386 812 340 776 294 777 c 0
 247 778 210 813 216 860 c 0
EndSplineSet
EndChar

StartChar: uni0403
Encoding: 1027 1027 396
Width: 492
VWidth: 0
Flags: HW
LayerCount: 2
Fore
SplineSet
167 700 m 1
 578 700 l 1
 552 547 l 1
 312 547 l 1
 217 0 l 1
 48 0 l 1
 167 700 l 1
581 922 m 1
 386 777 l 1
 302 823 l 1
 471 978 l 1
 581 922 l 1
EndSplineSet
EndChar

StartChar: uni040C
Encoding: 1036 1036 397
Width: 548
VWidth: 0
Flags: HW
LayerCount: 2
Fore
SplineSet
161 700 m 1
 339 700 l 1
 217 0 l 1
 42 0 l 1
 161 700 l 1
559 700 m 1
 767 700 l 1
 428 366 l 1
 652 0 l 1
 457 0 l 1
 231 373 l 1
 559 700 l 1
621 909 m 1
 426 764 l 1
 342 811 l 1
 510 966 l 1
 621 909 l 1
EndSplineSet
EndChar

StartChar: uni040D
Encoding: 1037 1037 398
Width: 769
VWidth: 0
Flags: HW
LayerCount: 2
Fore
SplineSet
757 518 m 1
 32 -44 l 1
 79 182 l 1
 804 745 l 1
 757 518 l 1
326 700 m 1
 227 127 l 1
 32 -44 l 1
 162 700 l 1
 326 700 l 1
804 745 m 1
 674 0 l 1
 510 0 l 1
 607 566 l 1
 804 745 l 1
359 911 m 1
 475 961 l 1
 597 797 l 1
 513 758 l 1
 359 911 l 1
EndSplineSet
EndChar

StartChar: uni040E
Encoding: 1038 1038 399
Width: 587
VWidth: 0
Flags: HW
LayerCount: 2
Fore
SplineSet
695 700 m 1
 256 0 l 1
 83 0 l 1
 217 220 l 1
 84 700 l 1
 261 700 l 1
 343 284 l 1
 269 286 l 1
 519 700 l 1
 695 700 l 1
261 923 m 1
 357 922 l 1
 357 891 372 865 407 864 c 0
 444 862 472 891 481 922 c 1
 583 921 l 1
 567 839 504 776 405 776 c 0
 306 776 257 839 261 923 c 1
EndSplineSet
EndChar

StartChar: uni0410
Encoding: 1040 1040 400
Width: 713
VWidth: 0
Flags: HW
LayerCount: 2
Fore
SplineSet
173 134 m 1
 206 263 l 1
 548 263 l 1
 536 134 l 1
 173 134 l 1
410 441 m 1
 276 216 l 1
 277 177 l 1
 164 0 l 1
 -34 0 l 1
 456 748 l 1
 687 0 l 1
 502 0 l 1
 448 172 l 1
 463 215 l 1
 410 441 l 1
EndSplineSet
EndChar

StartChar: uni0411
Encoding: 1041 1041 401
Width: 653
VWidth: 0
Flags: HW
LayerCount: 2
Fore
SplineSet
148 299 m 1
 169 436 l 1
 425 436 l 1
 553 435 645 344 628 219 c 0
 610 92 496 1 365 0 c 1
 94 0 l 1
 118 140 l 1
 342 140 l 2
 401 141 446 166 457 220 c 0
 467 271 433 298 377 299 c 1
 148 299 l 1
167 700 m 1
 659 700 l 1
 635 560 l 1
 317 560 l 1
 221 0 l 1
 48 0 l 1
 167 700 l 1
EndSplineSet
EndChar

StartChar: uni0412
Encoding: 1042 1042 402
Width: 646
VWidth: 0
Flags: HW
LayerCount: 2
Fore
SplineSet
226.297851562 348 m 1
 239.297851562 422 l 1
 344.297851562 422 l 1
 397.297851562 423 442.297851562 449 451.297851562 497 c 0
 459.297851562 542 429.297851562 567 380.297851562 568 c 1
 312.297851562 568 l 1
 234.297851562 132 l 1
 310.297851562 132 l 1
 372.297851562 134 432.297851562 157 443.297851562 221 c 0
 453.297851562 279 408.297851562 300 351.297851562 302 c 1
 218.297851562 303 l 1
 235.297851562 396 l 1
 373.297851562 396 l 1
 499.297851562 394 631.297851562 335 613.297851562 196 c 0
 595.297851562 56 469.297851562 2 320.297851562 0 c 1
 43.2978515625 0 l 1
 163.297851562 700 l 1
 409.297851562 700 l 1
 533.297851562 698 646.297851562 643 629.297851562 521 c 0
 613.297851562 404 492.297851562 350 363.297851562 348 c 2
 226.297851562 348 l 1
EndSplineSet
EndChar

StartChar: uni0413
Encoding: 1043 1043 403
Width: 492
VWidth: 0
Flags: HW
LayerCount: 2
Fore
SplineSet
167 700 m 1
 578 700 l 1
 552 547 l 1
 312 547 l 1
 217 0 l 1
 48 0 l 1
 167 700 l 1
EndSplineSet
EndChar

StartChar: uni0414
Encoding: 1044 1044 404
Width: 856
VWidth: 0
Flags: HW
LayerCount: 2
Fore
SplineSet
474 423 m 1
 269 30 l 1
 67 30 l 1
 523 739 l 1
 735 30 l 1
 545 30 l 1
 474 423 l 1
621 0 m 1
 180 0 l 1
 160 -110 l 1
 -10 -110 l 1
 35 147 l 1
 814 147 l 1
 770 -110 l 1
 601 -110 l 1
 621 0 l 1
EndSplineSet
EndChar

StartChar: uni0415
Encoding: 1045 1045 405
Width: 586
VWidth: 0
Flags: HW
LayerCount: 2
Fore
SplineSet
154 0 m 1
 177 140 l 1
 525 140 l 1
 501 0 l 1
 154 0 l 1
249 560 m 1
 273 700 l 1
 621 700 l 1
 596 560 l 1
 249 560 l 1
205 299 m 1
 228 436 l 1
 556 436 l 1
 532 299 l 1
 205 299 l 1
162 700 m 1
 327 700 l 1
 206 0 l 1
 44 0 l 1
 162 700 l 1
EndSplineSet
EndChar

StartChar: uni0416
Encoding: 1046 1046 406
Width: 1055
VWidth: 0
Flags: HW
LayerCount: 2
Fore
SplineSet
296 700 m 1
 523 364 l 1
 172 0 l 1
 -35 0 l 1
 332 378 l 1
 109 700 l 1
 296 700 l 1
534 700 m 1
 711 700 l 1
 591 0 l 1
 415 0 l 1
 534 700 l 1
929 700 m 1
 1142 700 l 1
 796 366 l 1
 1027 0 l 1
 833 0 l 1
 609 377 l 1
 929 700 l 1
EndSplineSet
EndChar

StartChar: uni0417
Encoding: 1047 1047 407
Width: 649
VWidth: 0
Flags: HW
LayerCount: 2
Fore
SplineSet
326 339 m 1
 335 415 l 1
 414 418 484 444 496 503 c 0
 504 548 472 576 417 577 c 0
 350 578 306 542 290 494 c 1
 133 495 l 1
 157 625 266 713 426 713 c 0
 572 713 684 639 665 518 c 0
 644 382 479 341 326 339 c 1
321 -16 m 0
 140 -16 42 83 54 223 c 1
 217 222 l 1
 215 157 254 122 324 121 c 0
 392 120 453 148 465 208 c 0
 482 278 408 304 321 306 c 1
 332 392 l 1
 488 390 649 343 628 191 c 0
 609 59 484 -16 321 -16 c 0
EndSplineSet
EndChar

StartChar: uni0418
Encoding: 1048 1048 408
Width: 769
VWidth: 0
Flags: HW
LayerCount: 2
Fore
SplineSet
757 518 m 1
 32 -44 l 1
 79 182 l 1
 804 745 l 1
 757 518 l 1
326 700 m 1
 227 127 l 1
 32 -44 l 1
 162 700 l 1
 326 700 l 1
804 745 m 1
 674 0 l 1
 510 0 l 1
 607 566 l 1
 804 745 l 1
EndSplineSet
EndChar

StartChar: uni0419
Encoding: 1049 1049 409
Width: 769
VWidth: 0
Flags: HW
LayerCount: 2
Fore
SplineSet
757 518 m 1
 32 -44 l 1
 79 182 l 1
 804 745 l 1
 757 518 l 1
326 700 m 1
 227 127 l 1
 32 -44 l 1
 162 700 l 1
 326 700 l 1
804 745 m 1
 674 0 l 1
 510 0 l 1
 607 566 l 1
 804 745 l 1
363 922 m 1
 459 922 l 1
 460 890 475 864 511 863 c 0
 548 862 575 890 584 921 c 1
 684 921 l 1
 667 839 605 776 506 776 c 0
 408 776 359 839 363 922 c 1
EndSplineSet
EndChar

StartChar: uni041A
Encoding: 1050 1050 410
Width: 682
VWidth: 0
Flags: HW
LayerCount: 2
Fore
SplineSet
161 700 m 1
 339 700 l 1
 217 0 l 1
 42 0 l 1
 161 700 l 1
559 700 m 1
 767 700 l 1
 428 366 l 1
 652 0 l 1
 457 0 l 1
 231 373 l 1
 559 700 l 1
EndSplineSet
EndChar

StartChar: uni041B
Encoding: 1051 1051 411
Width: 748
VWidth: 0
Flags: HW
LayerCount: 2
Fore
SplineSet
766 700 m 1
 646 0 l 1
 473 0 l 1
 567 547 l 1
 348 547 l 1
 305 297 l 2
 274 109 177 8 -16 1 c 1
 3 143 l 1
 74 152 117 208 131 287 c 1
 202 700 l 1
 766 700 l 1
EndSplineSet
EndChar

StartChar: uni041C
Encoding: 1052 1052 412
Width: 866
VWidth: 0
Flags: HW
LayerCount: 2
Fore
SplineSet
285 353 m 1
 183 0 l 1
 2 0 l 1
 239 736 l 1
 455 312 l 1
 825 743 l 1
 807 0 l 1
 630 0 l 1
 649 345 l 1
 420 63 l 1
 285 353 l 1
EndSplineSet
EndChar

StartChar: uni041D
Encoding: 1053 1053 413
Width: 763
VWidth: 0
Flags: HW
LayerCount: 2
Fore
SplineSet
138 293 m 1
 164 445 l 1
 684 445 l 1
 657 293 l 1
 138 293 l 1
617 700 m 1
 788 700 l 1
 667 0 l 1
 499 0 l 1
 617 700 l 1
161 700 m 1
 332 700 l 1
 211 0 l 1
 42 0 l 1
 161 700 l 1
EndSplineSet
EndChar

StartChar: uni041E
Encoding: 1054 1054 414
Width: 796
VWidth: 0
Flags: HW
LayerCount: 2
Fore
SplineSet
242.22265625 350 m 0
 225.22265625 244 270.22265625 142 388.22265625 141 c 0
 507.22265625 140 600.22265625 236 621.22265625 350 c 0
 639.22265625 457 594.22265625 558 474.22265625 559 c 0
 355.22265625 560 262.22265625 464 242.22265625 350 c 0
63.22265625 350 m 0
 93.22265625 558 273.22265625 716 486.22265625 716 c 0
 697.22265625 716 827.22265625 552 799.22265625 350 c 0
 769.22265625 141 593.22265625 -23 375.22265625 -23 c 0
 161.22265625 -23 35.22265625 148 63.22265625 350 c 0
EndSplineSet
EndChar

StartChar: uni041F
Encoding: 1055 1055 415
Width: 748
VWidth: 0
Flags: HW
LayerCount: 2
Fore
SplineSet
568 547 m 1
 315 547 l 1
 221 0 l 1
 48 0 l 1
 168 700 l 1
 767 700 l 1
 646 0 l 1
 474 0 l 1
 568 547 l 1
EndSplineSet
EndChar

StartChar: uni0420
Encoding: 1056 1056 416
Width: 607
VWidth: 0
Flags: HW
LayerCount: 2
Fore
SplineSet
162.178710938 700 m 1
 333.178710938 700 l 1
 213.178710938 0 l 1
 44.1787109375 0 l 1
 162.178710938 700 l 1
244.178710938 560 m 1
 267.178710938 700 l 1
 394.178710938 700 l 1
 552.178710938 698 650.178710938 613 629.178710938 470 c 0
 608.178710938 326 493.178710938 244 331.178710938 242 c 1
 188.178710938 242 l 1
 213.178710938 382 l 1
 340.178710938 382 l 2
 403.178710938 383 455.178710938 415 467.178710938 472 c 0
 477.178710938 527 443.178710938 558 383.178710938 559 c 1
 244.178710938 560 l 1
EndSplineSet
EndChar

StartChar: uni0421
Encoding: 1057 1057 417
Width: 679
VWidth: 0
Flags: HW
LayerCount: 2
Fore
SplineSet
248 350 m 0
 229 238 293 149 407 147 c 0
 500 146 572 191 630 238 c 1
 604 54 l 1
 542 11 475 -16 384 -16 c 0
 168 -16 34 145 63 350 c 0
 94 562 273 716 494 716 c 0
 583 716 644 690 701 645 c 1
 675 461 l 1
 633 515 575 554 490 554 c 0
 374 554 270 469 248 350 c 0
EndSplineSet
EndChar

StartChar: uni0422
Encoding: 1058 1058 418
Width: 547
VWidth: 0
Flags: HW
LayerCount: 2
Fore
SplineSet
68 547 m 1
 95 700 l 1
 639 700 l 1
 612 547 l 1
 425 547 l 1
 331 0 l 1
 162 0 l 1
 255 547 l 1
 68 547 l 1
EndSplineSet
EndChar

StartChar: uni0423
Encoding: 1059 1059 419
Width: 599
VWidth: 0
Flags: HW
LayerCount: 2
Fore
SplineSet
708 700 m 1
 268 0 l 1
 89 0 l 1
 223 220 l 1
 84 700 l 1
 267 700 l 1
 349 284 l 1
 275 286 l 1
 526 700 l 1
 708 700 l 1
EndSplineSet
EndChar

StartChar: uni0424
Encoding: 1060 1060 420
Width: 906
VWidth: 0
Flags: HW
LayerCount: 2
Fore
SplineSet
459 700 m 1
 633 700 l 1
 512 0 l 1
 340 0 l 1
 459 700 l 1
731 350 m 0
 750 440 675 470 581 471 c 1
 447 471 l 2
 345 470 260 441 241 350 c 0
 222 260 297 230 391 229 c 1
 526 229 l 2
 628 230 712 259 731 350 c 0
903 350 m 0
 879 182 722 81 546 80 c 1
 350 80 l 1
 181 81 46 183 70 350 c 0
 94 518 251 619 427 620 c 1
 623 620 l 1
 792 619 927 517 903 350 c 0
EndSplineSet
EndChar

StartChar: uni0425
Encoding: 1061 1061 421
Width: 678
VWidth: 0
Flags: HW
LayerCount: 2
Fore
SplineSet
541 700 m 1
 756 700 l 1
 478 353 l 1
 643 0 l 1
 442 0 l 1
 359 227 l 1
 194 0 l 1
 -22 0 l 1
 280 365 l 1
 131 700 l 1
 332 700 l 1
 400 503 l 1
 541 700 l 1
EndSplineSet
EndChar

StartChar: uni0426
Encoding: 1062 1062 422
Width: 834
VWidth: 0
Flags: HW
LayerCount: 2
Fore
SplineSet
240 153 m 1
 524 153 l 1
 618 700 l 1
 791 700 l 1
 698 153 l 1
 805 153 l 1
 755 -135 l 1
 592 -135 l 1
 615 0 l 1
 42 0 l 1
 162 700 l 1
 334 700 l 1
 240 153 l 1
EndSplineSet
EndChar

StartChar: uni0427
Encoding: 1063 1063 423
Width: 697
VWidth: 0
Flags: HW
LayerCount: 2
Fore
SplineSet
315 220 m 1
 386 370 l 1
 550 371 l 1
 523 220 l 1
 315 220 l 1
539 700 m 1
 716 700 l 1
 595 0 l 1
 420 0 l 1
 539 700 l 1
333 700 m 1
 295 489 l 1
 284 415 319 370 386 370 c 1
 315 220 l 1
 173 220 105 336 123 467 c 1
 162 700 l 1
 333 700 l 1
EndSplineSet
EndChar

StartChar: uni0428
Encoding: 1064 1064 424
Width: 1050
VWidth: 0
Flags: HW
LayerCount: 2
Fore
SplineSet
804 153 m 1
 898 700 l 1
 1069 700 l 1
 949 0 l 1
 48 0 l 1
 168 700 l 1
 338 700 l 1
 245 153 l 1
 442 153 l 1
 536 700 l 1
 700 700 l 1
 606 153 l 1
 804 153 l 1
EndSplineSet
EndChar

StartChar: uni0429
Encoding: 1065 1065 425
Width: 1118
VWidth: 0
Flags: HW
LayerCount: 2
Fore
SplineSet
804 153 m 1
 898 700 l 1
 1069 700 l 1
 974 153 l 1
 1082 153 l 1
 1033 -135 l 1
 869 -135 l 1
 893 0 l 1
 48 0 l 1
 168 700 l 1
 338 700 l 1
 245 153 l 1
 442 153 l 1
 536 700 l 1
 700 700 l 1
 606 153 l 1
 804 153 l 1
EndSplineSet
EndChar

StartChar: uni042A
Encoding: 1066 1066 426
Width: 714
VWidth: 0
Flags: HW
LayerCount: 2
Fore
SplineSet
312 318 m 1
 334 458 l 1
 462 458 l 2
 620 457 718 372 697 229 c 0
 676 85 560 1 398 0 c 2
 255 0 l 1
 280 140 l 1
 408 140 l 2
 471 141 523 173 535 230 c 0
 545 285 511 317 451 317 c 2
 312 318 l 1
250 548 m 1
 73 548 l 1
 100 700 l 1
 445 700 l 1
 324 0 l 1
 155 0 l 1
 250 548 l 1
EndSplineSet
EndChar

StartChar: uni042B
Encoding: 1067 1067 427
Width: 883
VWidth: 0
Flags: HW
LayerCount: 2
Fore
SplineSet
733 700 m 1
 907 700 l 1
 787 0 l 1
 615 0 l 1
 733 700 l 1
161 700 m 1
 332 700 l 1
 211 0 l 1
 42 0 l 1
 161 700 l 1
202 318 m 1
 224 458 l 1
 352 458 l 2
 510 457 608 372 587 229 c 0
 566 85 451 1 289 0 c 2
 145 0 l 1
 171 140 l 1
 298 140 l 2
 361 141 413 173 425 230 c 0
 435 285 401 317 341 317 c 2
 202 318 l 1
EndSplineSet
EndChar

StartChar: uni042C
Encoding: 1068 1068 428
Width: 605
VWidth: 0
Flags: HW
LayerCount: 2
Fore
SplineSet
161 700 m 1
 332 700 l 1
 211 0 l 1
 42 0 l 1
 161 700 l 1
202 318 m 1
 224 458 l 1
 352 458 l 2
 510 457 608 372 587 229 c 0
 566 85 451 1 289 0 c 2
 145 0 l 1
 171 140 l 1
 298 140 l 2
 361 141 413 173 425 230 c 0
 435 285 401 317 341 317 c 2
 202 318 l 1
EndSplineSet
EndChar

StartChar: uni042D
Encoding: 1069 1069 429
Width: 679
VWidth: 0
Flags: HW
LayerCount: 2
Fore
SplineSet
152 282 m 1
 176 418 l 1
 541 418 l 1
 517 282 l 1
 152 282 l 1
516 350 m 0
 536 465 454 558 340 560 c 0
 249 561 174 518 119 481 c 1
 141 646 l 1
 203 689 271 716 362 716 c 0
 578 716 711 555 682 350 c 0
 651 138 473 -16 252 -16 c 0
 163 -16 102 10 45 55 c 1
 67 219 l 1
 108 175 170 140 254 140 c 0
 373 140 494 229 516 350 c 0
EndSplineSet
EndChar

StartChar: uni042E
Encoding: 1070 1070 430
Width: 1109
VWidth: 0
Flags: HW
LayerCount: 2
Fore
SplineSet
138 293 m 1
 164 445 l 1
 499 445 l 1
 473 293 l 1
 138 293 l 1
161 700 m 1
 332 700 l 1
 211 0 l 1
 42 0 l 1
 161 700 l 1
555 350 m 0
 538 244 583 142 701 141 c 0
 820 140 912 236 933 350 c 0
 951 457 907 558 787 559 c 0
 668 560 575 464 555 350 c 0
376 350 m 0
 406 558 586 716 799 716 c 0
 1010 716 1140 552 1112 350 c 0
 1082 141 906 -23 688 -23 c 0
 474 -23 348 148 376 350 c 0
EndSplineSet
EndChar

StartChar: uni042F
Encoding: 1071 1071 431
Width: 628
VWidth: 0
Flags: HW
LayerCount: 2
Fore
SplineSet
421 316 m 1
 175 0 l 1
 -30 0 l 1
 237 316 l 1
 421 316 l 1
653 700 m 1
 533 0 l 1
 363 0 l 1
 483 700 l 1
 653 700 l 1
524 555 m 1
 396 555 l 2
 333 555 281 521 269 464 c 0
 258 410 292 376 352 375 c 1
 494 374 l 1
 470 243 l 1
 330 242 l 1
 173 244 75 332 96 471 c 0
 117 611 233 699 394 700 c 1
 549 700 l 1
 524 555 l 1
EndSplineSet
EndChar

StartChar: uni0430
Encoding: 1072 1072 432
Width: 598
VWidth: 0
Flags: HW
LayerCount: 2
Fore
SplineSet
447 460 m 1
 597 460 l 1
 518 0 l 1
 369 0 l 1
 447 460 l 1
42 230 m 0
 60 367 168 471 291 470 c 0
 415 469 465 355 449 230 c 0
 431 99 342 -10 219 -10 c 0
 96 -10 25 98 42 230 c 0
199 230 m 0
 190 170 220 114 281 113 c 0
 338 112 395 165 406 230 c 0
 415 290 383 345 328 347 c 0
 266 349 210 294 199 230 c 0
EndSplineSet
EndChar

StartChar: uni0431
Encoding: 1073 1073 433
Width: 590
VWidth: 0
Flags: HW
LayerCount: 2
Fore
SplineSet
337 345 m 1
 369 469 l 1
 508 469 595 365 578 230 c 0
 560 91 441 -10 290 -10 c 0
 125 -10 56 112 56 244 c 1
 213 210 l 1
 213 161 241 116 297 116 c 0
 358 116 412 167 422 230 c 0
 433 297 396 345 337 345 c 1
150 231 m 1
 170 369 243 469 369 469 c 1
 337 345 l 1
 277 345 213 299 213 210 c 1
 150 231 l 1
56 244 m 1
 56 437 145 595 303 662 c 0
 383 695 438 725 466 780 c 1
 613 779 l 1
 585 682 498 615 393 572 c 0
 282 527 201 434 195 324 c 1
 208 210 l 1
 56 244 l 1
EndSplineSet
EndChar

StartChar: uni0432
Encoding: 1074 1074 434
Width: 509
VWidth: 0
Flags: HW
LayerCount: 2
Fore
SplineSet
169 240 m 1
 325 240 l 2
 409 239 488 213 477 124 c 0
 468 50 407 0 317 0 c 2
 129 0 l 1
 146 95 l 1
 271 95 l 2
 305 95 333 116 338 142 c 0
 342 167 325 185 294 185 c 2
 162 186 l 1
 169 240 l 1
169 220 m 1
 177 279 l 1
 293 280 l 2
 320 280 345 298 350 323 c 0
 354 345 340 365 316 365 c 2
 191 365 l 1
 208 460 l 1
 353 460 l 2
 432 459 506 420 494 334 c 0
 483 256 406 222 326 220 c 2
 169 220 l 1
122 460 m 1
 269 460 l 1
 190 0 l 1
 43 0 l 1
 122 460 l 1
EndSplineSet
EndChar

StartChar: uni0433
Encoding: 1075 1075 435
Width: 347
VWidth: 0
Flags: HW
LayerCount: 2
Fore
SplineSet
108 460 m 1
 400 460 l 1
 378 334 l 1
 237 334 l 1
 179 0 l 1
 30 0 l 1
 108 460 l 1
EndSplineSet
EndChar

StartChar: uni0434
Encoding: 1076 1076 436
Width: 683
VWidth: 0
Flags: HW
LayerCount: 2
Fore
SplineSet
363 274 m 1
 216 31 l 1
 71 64 l 1
 395 498 l 1
 571 60 l 1
 426 29 l 1
 363 274 l 1
474 0 m 1
 159 0 l 1
 142 -90 l 1
 -6 -90 l 1
 30 119 l 1
 637 119 l 1
 600 -90 l 1
 458 -90 l 1
 474 0 l 1
EndSplineSet
EndChar

StartChar: uni0435
Encoding: 1077 1077 437
Width: 558
VWidth: 0
Flags: HW
LayerCount: 2
Fore
SplineSet
124 197 m 1
 136 281 l 1
 386 282 l 1
 387 329 373 367 321 368 c 0
 257 371 215 315 202 253 c 1
 195 230 l 1
 186 158 206 104 270 101 c 0
 321 99 362 126 390 159 c 1
 524 124 l 1
 467 43 386 -11 267 -10 c 0
 113 -9 26 93 44 230 c 0
 46 247 49 263 54 279 c 0
 90 393 192 470 330 470 c 0
 480 470 558 376 542 237 c 0
 541 226 539 212 536 197 c 1
 124 197 l 1
EndSplineSet
EndChar

StartChar: uni0436
Encoding: 1078 1078 438
Width: 857
VWidth: 0
Flags: HW
LayerCount: 2
Fore
SplineSet
713 460 m 1
 897 460 l 1
 664 261 l 1
 828 0 l 1
 663 0 l 1
 493 276 l 1
 713 460 l 1
553 460 m 1
 474 0 l 1
 330 0 l 1
 408 460 l 1
 553 460 l 1
237 460 m 1
 403 264 l 1
 150 0 l 1
 -34 0 l 1
 230 272 l 1
 75 460 l 1
 237 460 l 1
EndSplineSet
EndChar

StartChar: uni0437
Encoding: 1079 1079 439
Width: 522
VWidth: 0
Flags: HW
LayerCount: 2
Fore
SplineSet
277 230 m 1
 286 286 l 1
 315 289 345 300 349 325 c 0
 351 345 336 360 312 360 c 0
 281 361 257 335 251 307 c 1
 112 308 l 1
 130 404 209 470 316 470 c 0
 417 470 504 414 492 333 c 0
 479 251 385 232 277 230 c 1
250 -10 m 0
 131 -10 58 53 55 158 c 1
 194 158 l 1
 201 124 218 99 258 98 c 0
 299 97 333 119 338 152 c 0
 344 188 312 200 273 203 c 1
 282 260 l 1
 387 258 490 226 477 134 c 0
 465 39 356 -10 250 -10 c 0
EndSplineSet
EndChar

StartChar: uni0438
Encoding: 1080 1080 440
Width: 573
VWidth: 0
Flags: HW
LayerCount: 2
Fore
SplineSet
541 326 m 1
 19 -44 l 1
 58 134 l 1
 580 504 l 1
 541 326 l 1
255 460 m 1
 193 102 l 1
 19 -44 l 1
 108 460 l 1
 255 460 l 1
580 504 m 1
 491 0 l 1
 344 0 l 1
 406 358 l 1
 580 504 l 1
EndSplineSet
EndChar

StartChar: uni0439
Encoding: 1081 1081 441
Width: 573
VWidth: 0
Flags: HW
LayerCount: 2
Fore
SplineSet
541 326 m 1
 19 -44 l 1
 58 134 l 1
 580 504 l 1
 541 326 l 1
255 460 m 1
 193 102 l 1
 19 -44 l 1
 108 460 l 1
 255 460 l 1
580 504 m 1
 491 0 l 1
 344 0 l 1
 406 358 l 1
 580 504 l 1
212 694 m 1
 307 694 l 1
 308 662 323 636 359 635 c 0
 396 634 423 663 432 694 c 1
 532 693 l 1
 515 611 453 549 354 549 c 0
 256 549 208 611 212 694 c 1
EndSplineSet
EndChar

StartChar: uni043A
Encoding: 1082 1082 442
Width: 563
VWidth: 0
Flags: HW
LayerCount: 2
Fore
SplineSet
104 460 m 1
 252 460 l 1
 172 0 l 1
 27 0 l 1
 104 460 l 1
405 460 m 1
 595 460 l 1
 363 264 l 1
 526 0 l 1
 358 0 l 1
 189 276 l 1
 405 460 l 1
EndSplineSet
EndChar

StartChar: uni043B
Encoding: 1083 1083 443
Width: 605
VWidth: 0
Flags: HW
LayerCount: 2
Fore
SplineSet
583 460 m 1
 503 0 l 1
 357 0 l 1
 412 321 l 1
 253 321 l 1
 226 160 l 1
 204 44 126 3 -17 0 c 1
 3 136 l 1
 44 140 74 151 84 198 c 1
 130 460 l 1
 583 460 l 1
EndSplineSet
EndChar

StartChar: uni043C
Encoding: 1084 1084 444
Width: 637
VWidth: 0
Flags: HW
LayerCount: 2
Fore
SplineSet
456 0 m 1
 450 322 l 1
 557 503 l 1
 606 0 l 1
 456 0 l 1
284 139 m 1
 557 503 l 1
 531 285 l 1
 287 -33 l 1
 284 139 l 1
287 -33 m 1
 152 298 l 1
 196 496 l 1
 343 125 l 1
 287 -33 l 1
-27 0 m 1
 196 496 l 1
 240 306 l 1
 130 0 l 1
 -27 0 l 1
EndSplineSet
EndChar

StartChar: uni043D
Encoding: 1085 1085 445
Width: 596
VWidth: 0
Flags: HW
LayerCount: 2
Fore
SplineSet
106 186 m 1
 125 299 l 1
 491 299 l 1
 471 186 l 1
 106 186 l 1
447 460 m 1
 594 460 l 1
 515 0 l 1
 369 0 l 1
 447 460 l 1
106 460 m 1
 254 460 l 1
 174 0 l 1
 29 0 l 1
 106 460 l 1
EndSplineSet
EndChar

StartChar: uni043E
Encoding: 1086 1086 446
Width: 571
VWidth: 0
Flags: HW
LayerCount: 2
Fore
SplineSet
41 230 m 0
 61 372 186 470 332 470 c 0
 476 470 575 369 556 230 c 0
 536 89 411 -10 265 -10 c 0
 121 -10 22 91 41 230 c 0
196 230 m 0
 187 172 214 117 274 116 c 0
 335 115 390 167 401 230 c 0
 410 288 384 343 324 344 c 0
 263 345 207 293 196 230 c 0
EndSplineSet
EndChar

StartChar: uni043F
Encoding: 1087 1087 447
Width: 557
VWidth: 0
Flags: HW
LayerCount: 2
Fore
SplineSet
555 460 m 1
 476 0 l 1
 329 0 l 1
 386 328 l 1
 231 328 l 1
 174 0 l 1
 27 0 l 1
 107 460 l 1
 555 460 l 1
EndSplineSet
EndChar

StartChar: uni0440
Encoding: 1088 1088 448
Width: 573
VWidth: 0
Flags: HW
LayerCount: 2
Fore
SplineSet
143 -220 m 1
 -11 -220 l 1
 106 460 l 1
 258 460 l 1
 143 -220 l 1
584 230 m 0
 566 88 459 -17 335 -16 c 0
 205 -15 167 104 182 230 c 0
 199 362 277 475 404 476 c 0
 528 477 600 366 584 230 c 0
426 231 m 0
 435 291 404 340 344 341 c 0
 288 342 229 293 219 229 c 0
 210 169 241 121 296 119 c 0
 358 117 416 168 426 231 c 0
EndSplineSet
EndChar

StartChar: uni0441
Encoding: 1089 1089 449
Width: 475
VWidth: 0
Flags: HW
LayerCount: 2
Fore
SplineSet
195 230 m 0
 184 166 220 114 286 112 c 0
 342 111 397 141 433 179 c 1
 413 31 l 1
 375 6 327 -10 266 -10 c 0
 121 -10 21 91 40 230 c 0
 60 373 184 470 333 470 c 0
 393 470 438 454 476 430 c 1
 456 281 l 1
 433 324 388 348 339 348 c 0
 270 348 208 296 195 230 c 0
EndSplineSet
EndChar

StartChar: uni0442
Encoding: 1090 1090 450
Width: 322
VWidth: 0
Flags: HW
LayerCount: 2
Fore
SplineSet
55 460 m 1
 373 460 l 1
 351 334 l 1
 32 334 l 1
 55 460 l 1
136 440 m 1
 284 440 l 1
 208 0 l 1
 62 0 l 1
 136 440 l 1
EndSplineSet
EndChar

StartChar: uni0443
Encoding: 1091 1091 451
Width: 507
VWidth: 0
Flags: HW
LayerCount: 2
Fore
SplineSet
572 460 m 1
 164 -220 l 1
 7 -220 l 1
 165 42 l 1
 43 460 l 1
 204 460 l 1
 285 90 l 1
 207 92 l 1
 412 460 l 1
 572 460 l 1
EndSplineSet
EndChar

StartChar: uni0444
Encoding: 1092 1092 452
Width: 647
VWidth: 0
Flags: HW
LayerCount: 2
Fore
SplineSet
321 560 m 1
 465 560 l 1
 351 -100 l 1
 209 -100 l 1
 321 560 l 1
41 230 m 0
 62 380 199 470 370 470 c 0
 535 470 654 379 632 230 c 0
 611 80 474 -10 303 -10 c 0
 138 -10 19 81 41 230 c 0
178 230 m 0
 162 156 217 117 310 116 c 0
 408 115 478 155 495 230 c 0
 511 304 456 343 363 344 c 0
 265 345 195 305 178 230 c 0
EndSplineSet
EndChar

StartChar: uni0445
Encoding: 1093 1093 453
Width: 517
VWidth: 0
Flags: HW
LayerCount: 2
Fore
SplineSet
393 460 m 1
 566 460 l 1
 353 233 l 1
 496 0 l 1
 335 0 l 1
 262 134 l 1
 153 0 l 1
 -25 0 l 1
 198 244 l 1
 65 460 l 1
 231 460 l 1
 292 342 l 1
 393 460 l 1
EndSplineSet
EndChar

StartChar: uni0446
Encoding: 1094 1094 454
Width: 602
VWidth: 0
Flags: HW
LayerCount: 2
Fore
SplineSet
503 125 m 1
 583 125 l 1
 543 -103 l 1
 400 -103 l 1
 418 0 l 1
 28 0 l 1
 107 460 l 1
 260 460 l 1
 202 126 l 1
 350 126 l 1
 409 460 l 1
 561 460 l 1
 503 125 l 1
EndSplineSet
EndChar

StartChar: uni0447
Encoding: 1095 1095 455
Width: 531
VWidth: 0
Flags: HW
LayerCount: 2
Fore
SplineSet
220 116 m 1
 276 240 l 1
 393 240 l 1
 371 116 l 1
 220 116 l 1
369 460 m 1
 523 460 l 1
 443 0 l 1
 291 0 l 1
 369 460 l 1
251 460 m 1
 224 315 l 2
 215 264 232 240 276 240 c 1
 220 116 l 1
 87 116 59 205 76 328 c 2
 98 460 l 1
 251 460 l 1
EndSplineSet
EndChar

StartChar: uni0448
Encoding: 1096 1096 456
Width: 812
VWidth: 0
Flags: HW
LayerCount: 2
Fore
SplineSet
473 125 m 1
 605 126 l 1
 663 460 l 1
 810 460 l 1
 730 0 l 1
 28 0 l 1
 107 460 l 1
 254 460 l 1
 196 126 l 1
 327 126 l 1
 385 460 l 1
 531 460 l 1
 473 125 l 1
EndSplineSet
EndChar

StartChar: uni0449
Encoding: 1097 1097 457
Width: 850
VWidth: 0
Flags: HW
LayerCount: 2
Fore
SplineSet
473 125 m 1
 604 126 l 1
 662 460 l 1
 809 460 l 1
 752 126 l 1
 829 126 l 1
 790 -103 l 1
 647 -103 l 1
 665 0 l 1
 28 0 l 1
 107 460 l 1
 254 460 l 1
 196 126 l 1
 327 126 l 1
 385 460 l 1
 531 460 l 1
 473 125 l 1
EndSplineSet
EndChar

StartChar: uni044A
Encoding: 1098 1098 458
Width: 594
VWidth: 0
Flags: HW
LayerCount: 2
Fore
SplineSet
256 207 m 1
 271 305 l 1
 404 305 l 2
 494 305 563 257 551 162 c 0
 539 67 460 0 366 0 c 2
 218 0 l 1
 239 117 l 1
 347 117 l 2
 378 117 404 135 410 163 c 0
 415 188 398 206 371 206 c 2
 256 207 l 1
169 335 m 1
 32 334 l 1
 55 460 l 1
 330 460 l 1
 251 0 l 1
 112 0 l 1
 169 335 l 1
EndSplineSet
EndChar

StartChar: uni044B
Encoding: 1099 1099 459
Width: 742
VWidth: 0
Flags: HW
LayerCount: 2
Fore
SplineSet
586 460 m 1
 740 460 l 1
 660 0 l 1
 508 0 l 1
 586 460 l 1
106 460 m 1
 260 460 l 1
 180 0 l 1
 29 0 l 1
 106 460 l 1
182 207 m 1
 198 305 l 1
 331 305 l 2
 421 305 490 257 478 162 c 0
 466 67 387 0 293 0 c 2
 144 0 l 1
 165 117 l 1
 273 117 l 2
 304 117 330 135 336 163 c 0
 341 188 324 206 297 206 c 2
 182 207 l 1
EndSplineSet
EndChar

StartChar: uni044C
Encoding: 1100 1100 460
Width: 529
VWidth: 0
Flags: HW
LayerCount: 2
Fore
SplineSet
112 460 m 1
 266 460 l 1
 187 0 l 1
 35 0 l 1
 112 460 l 1
188 207 m 1
 203 305 l 1
 337 305 l 2
 427 305 496 257 484 162 c 0
 472 67 392 0 298 0 c 2
 151 0 l 1
 172 117 l 1
 279 117 l 2
 310 117 337 135 343 163 c 0
 348 188 332 206 303 206 c 2
 188 207 l 1
EndSplineSet
EndChar

StartChar: uni044D
Encoding: 1101 1101 461
Width: 478
VWidth: 0
Flags: HW
LayerCount: 2
Fore
SplineSet
126 280 m 1
 418 280 l 1
 375 180 l 1
 110 180 l 1
 126 280 l 1
308 230 m 0
 319 301 291 365 221 367 c 0
 168 369 111 339 75 301 c 1
 91 430 l 1
 129 453 178 470 238 470 c 0
 383 470 483 369 464 230 c 0
 444 87 319 -10 170 -10 c 0
 109 -10 65 5 27 32 c 1
 45 160 l 1
 68 117 109 92 161 92 c 0
 234 92 295 149 308 230 c 0
EndSplineSet
EndChar

